G04 MADE WITH FRITZING*
G04 WWW.FRITZING.ORG*
G04 DOUBLE SIDED*
G04 HOLES PLATED*
G04 CONTOUR ON CENTER OF CONTOUR VECTOR*
%ASAXBY*%
%FSLAX23Y23*%
%MOIN*%
%OFA0B0*%
%SFA1.0B1.0*%
%ADD10C,0.078000*%
%ADD11C,0.083307*%
%ADD12C,0.075000*%
%ADD13C,0.039370*%
%ADD14R,0.078000X0.078000*%
%ADD15R,0.083307X0.083307*%
%ADD16C,0.024000*%
%LNCOPPER0*%
G90*
G70*
G54D10*
X172Y643D03*
X172Y543D03*
G54D11*
X2272Y343D03*
X2272Y443D03*
X2272Y543D03*
X2272Y643D03*
X2272Y743D03*
X2272Y843D03*
X2372Y343D03*
X2372Y443D03*
X2372Y543D03*
X2372Y643D03*
X2372Y743D03*
X2372Y843D03*
X1772Y743D03*
X1772Y643D03*
X1772Y543D03*
X1672Y743D03*
X1672Y643D03*
X1672Y543D03*
G54D12*
X1278Y843D03*
X1278Y743D03*
X1278Y643D03*
X1278Y543D03*
X1278Y443D03*
X1278Y343D03*
X478Y743D03*
X478Y643D03*
X478Y543D03*
X478Y443D03*
X478Y343D03*
G54D13*
X1542Y888D03*
X2118Y720D03*
X2526Y984D03*
X2526Y696D03*
X1518Y456D03*
G54D14*
X172Y643D03*
G54D15*
X2372Y343D03*
X1672Y743D03*
G54D16*
X2265Y611D02*
X2262Y600D01*
D02*
X2262Y600D02*
X1830Y600D01*
D02*
X1830Y600D02*
X1796Y566D01*
D02*
X1649Y719D02*
X1299Y363D01*
D02*
X1561Y888D02*
X2190Y888D01*
D02*
X2190Y888D02*
X2190Y648D01*
D02*
X2190Y648D02*
X1804Y736D01*
D02*
X1696Y520D02*
X1950Y264D01*
D02*
X1950Y264D02*
X2454Y264D01*
D02*
X2454Y264D02*
X2454Y936D01*
D02*
X2454Y936D02*
X1494Y936D01*
D02*
X1494Y936D02*
X1494Y816D01*
D02*
X1494Y816D02*
X2142Y816D01*
D02*
X2142Y816D02*
X2123Y739D01*
D02*
X1307Y747D02*
X1446Y768D01*
D02*
X1446Y768D02*
X1446Y984D01*
D02*
X1446Y984D02*
X2507Y984D01*
D02*
X1255Y660D02*
X1206Y696D01*
D02*
X1206Y696D02*
X1206Y912D01*
D02*
X1206Y912D02*
X1398Y1032D01*
D02*
X1398Y1032D02*
X2574Y1032D01*
D02*
X2574Y1032D02*
X2574Y816D01*
D02*
X2574Y816D02*
X2533Y714D01*
D02*
X190Y618D02*
X438Y264D01*
D02*
X438Y264D02*
X1350Y264D01*
D02*
X1350Y264D02*
X1506Y442D01*
G04 End of Copper0*
M02*