; NON-PLATED HOLES START AT T1
; THROUGH (PLATED) HOLES START AT T100
M48
INCH
T1C0.125984
T100C0.043307
T101C0.035000
T102C0.038000
T103C0.015748
%
T1
X016724Y001428
X001724Y002428
X001724Y009428
T100
X016724Y005428
X022724Y003428
X017724Y005428
X022724Y004428
X023724Y004428
X023724Y006428
X023724Y005428
X016724Y007428
X017724Y007428
X022724Y005428
X023724Y007428
X017724Y006428
X022724Y006428
X023724Y008428
X022724Y007428
X016724Y006428
X022724Y008428
X023724Y003428
T101
X004784Y003428
X012784Y004428
X004784Y007428
X012784Y007428
X004784Y004428
X004784Y006428
X012784Y006428
X012784Y005428
X012784Y008428
X012784Y003428
X004784Y005428
T102
X001724Y005428
X001724Y006428
T103
X015180Y004561
X021180Y007201
X025260Y009841
X025260Y006961
X015420Y008881
T00
M30
