G04 MADE WITH FRITZING*
G04 WWW.FRITZING.ORG*
G04 DOUBLE SIDED*
G04 HOLES PLATED*
G04 CONTOUR ON CENTER OF CONTOUR VECTOR*
%ASAXBY*%
%FSLAX23Y23*%
%MOIN*%
%OFA0B0*%
%SFA1.0B1.0*%
%ADD10C,0.088000*%
%ADD11C,0.093307*%
%ADD12C,0.085000*%
%ADD13C,0.049370*%
%ADD14C,0.135984*%
%ADD15R,0.088000X0.088000*%
%ADD16R,0.093307X0.093307*%
%LNMASK0*%
G90*
G70*
G54D10*
X172Y643D03*
X172Y543D03*
G54D11*
X2272Y343D03*
X2272Y443D03*
X2272Y543D03*
X2272Y643D03*
X2272Y743D03*
X2272Y843D03*
X2372Y343D03*
X2372Y443D03*
X2372Y543D03*
X2372Y643D03*
X2372Y743D03*
X2372Y843D03*
X1772Y743D03*
X1772Y643D03*
X1772Y543D03*
X1672Y743D03*
X1672Y643D03*
X1672Y543D03*
G54D12*
X1278Y843D03*
X1278Y743D03*
X1278Y643D03*
X1278Y543D03*
X1278Y443D03*
X1278Y343D03*
X478Y743D03*
X478Y643D03*
X478Y543D03*
X478Y443D03*
X478Y343D03*
G54D13*
X1542Y888D03*
X2118Y720D03*
X2526Y984D03*
X2526Y696D03*
X1518Y456D03*
G54D14*
X172Y943D03*
X172Y243D03*
X1672Y143D03*
G54D15*
X172Y643D03*
G54D16*
X2372Y343D03*
X1672Y743D03*
G04 End of Mask0*
M02*