; NON-PLATED HOLES START AT T1
; THROUGH (PLATED) HOLES START AT T100
M48
INCH
T1C0.125984
T2C0.165354
T3C0.067000
T100C0.015748
T101C0.036972
T102C0.043307
%
T1
X049346Y005650
X049346Y001650
T2
X032600Y003948
X001744Y005913
X025097Y003934
X001799Y001650
X010093Y003948
X017588Y003938
X040073Y003948
T3
X019587Y003995
X034599Y004006
X012093Y004006
X027097Y003992
X015594Y003995
X023103Y003992
X042072Y004006
X038078Y004006
X030606Y004006
X008099Y004006
T100
X041880Y006554
X047880Y001754
X042840Y000794
T101
X031061Y004965
X023566Y004965
X008588Y004965
X033557Y005963
X011083Y005963
X016082Y004965
X026062Y005963
X038577Y004965
X018578Y005963
X041073Y005963
T102
X045346Y004650
X046346Y002650
X045346Y002650
X045346Y003650
X046346Y004650
X046346Y003650
T00
M30
