G04 MADE WITH FRITZING*
G04 WWW.FRITZING.ORG*
G04 DOUBLE SIDED*
G04 HOLES PLATED*
G04 CONTOUR ON CENTER OF CONTOUR VECTOR*
%ASAXBY*%
%FSLAX23Y23*%
%MOIN*%
%OFA0B0*%
%SFA1.0B1.0*%
%ADD10C,0.049370*%
%ADD11C,0.093307*%
%ADD12C,0.088639*%
%ADD13C,0.175354*%
%ADD14C,0.135984*%
%ADD15C,0.077000*%
%ADD16R,0.093307X0.093307*%
%LNMASK0*%
G90*
G70*
G54D10*
X4188Y655D03*
X4788Y175D03*
X4284Y79D03*
G54D11*
X4635Y265D03*
X4635Y365D03*
X4635Y465D03*
X4535Y265D03*
X4535Y365D03*
X4535Y465D03*
X4635Y265D03*
X4635Y365D03*
X4635Y465D03*
X4535Y265D03*
X4535Y365D03*
X4535Y465D03*
G54D12*
X3858Y497D03*
X4107Y596D03*
X3106Y497D03*
X3356Y596D03*
G54D13*
X4007Y395D03*
X174Y591D03*
X180Y165D03*
G54D14*
X4935Y165D03*
X4935Y565D03*
G54D12*
X859Y497D03*
X1108Y596D03*
X1608Y497D03*
X1858Y596D03*
X2357Y497D03*
X2606Y596D03*
G54D15*
X810Y401D03*
X1209Y401D03*
X1559Y400D03*
X1959Y400D03*
X2710Y399D03*
X2310Y399D03*
X3460Y401D03*
X3061Y401D03*
X4207Y401D03*
X3808Y401D03*
G54D13*
X3260Y395D03*
X1009Y395D03*
X1759Y394D03*
X2510Y393D03*
G54D16*
X4535Y265D03*
X4535Y265D03*
G04 End of Mask0*
M02*