G04 MADE WITH FRITZING*
G04 WWW.FRITZING.ORG*
G04 DOUBLE SIDED*
G04 HOLES PLATED*
G04 CONTOUR ON CENTER OF CONTOUR VECTOR*
%ASAXBY*%
%FSLAX23Y23*%
%MOIN*%
%OFA0B0*%
%SFA1.0B1.0*%
%ADD10C,0.039370*%
%ADD11C,0.083307*%
%ADD12C,0.078639*%
%ADD13R,0.083307X0.083307*%
%ADD14C,0.024000*%
%LNCOPPER0*%
G90*
G70*
G54D10*
X4188Y655D03*
X4788Y175D03*
X4284Y79D03*
G54D11*
X4635Y265D03*
X4635Y365D03*
X4635Y465D03*
X4535Y265D03*
X4535Y365D03*
X4535Y465D03*
X4635Y265D03*
X4635Y365D03*
X4635Y465D03*
X4535Y265D03*
X4535Y365D03*
X4535Y465D03*
G54D12*
X3858Y497D03*
X4107Y596D03*
X3106Y497D03*
X3356Y596D03*
X859Y497D03*
X1108Y596D03*
X1608Y497D03*
X1858Y596D03*
X2357Y497D03*
X2606Y596D03*
G54D13*
X4535Y265D03*
X4535Y265D03*
G54D14*
X4511Y288D02*
X4308Y487D01*
X4308Y487D02*
X3900Y511D01*
X3900Y511D02*
X3886Y506D01*
D02*
X2386Y497D02*
X3060Y511D01*
X3060Y511D02*
X3078Y506D01*
D02*
X1638Y497D02*
X2316Y511D01*
X2316Y511D02*
X2329Y507D01*
D02*
X888Y497D02*
X1572Y511D01*
X1572Y511D02*
X1581Y508D01*
D02*
X4206Y649D02*
X4620Y511D01*
X4620Y511D02*
X4625Y496D01*
D02*
X4776Y190D02*
X4655Y340D01*
D02*
X4303Y79D02*
X4644Y79D01*
X4644Y79D02*
X4636Y232D01*
G04 End of Copper0*
M02*