G04 MADE WITH FRITZING*
G04 WWW.FRITZING.ORG*
G04 DOUBLE SIDED*
G04 HOLES PLATED*
G04 CONTOUR ON CENTER OF CONTOUR VECTOR*
%ASAXBY*%
%FSLAX23Y23*%
%MOIN*%
%OFA0B0*%
%SFA1.0B1.0*%
%ADD10R,0.063000X0.173200X0.047000X0.157200*%
%ADD11C,0.008000*%
%ADD12R,0.001000X0.001000*%
%LNSILK0*%
G90*
G70*
G54D11*
X4417Y448D02*
X4472Y448D01*
X4472Y282D01*
X4417Y282D01*
X4417Y448D01*
D02*
G54D12*
X0Y787D02*
X5117Y787D01*
X0Y786D02*
X5117Y786D01*
X0Y785D02*
X5117Y785D01*
X0Y784D02*
X5117Y784D01*
X0Y783D02*
X5117Y783D01*
X0Y782D02*
X5117Y782D01*
X0Y781D02*
X5117Y781D01*
X0Y780D02*
X5117Y780D01*
X0Y779D02*
X7Y779D01*
X5110Y779D02*
X5117Y779D01*
X0Y778D02*
X7Y778D01*
X5110Y778D02*
X5117Y778D01*
X0Y777D02*
X7Y777D01*
X5110Y777D02*
X5117Y777D01*
X0Y776D02*
X7Y776D01*
X5110Y776D02*
X5117Y776D01*
X0Y775D02*
X7Y775D01*
X5110Y775D02*
X5117Y775D01*
X0Y774D02*
X7Y774D01*
X5110Y774D02*
X5117Y774D01*
X0Y773D02*
X7Y773D01*
X5110Y773D02*
X5117Y773D01*
X0Y772D02*
X7Y772D01*
X5110Y772D02*
X5117Y772D01*
X0Y771D02*
X7Y771D01*
X5110Y771D02*
X5117Y771D01*
X0Y770D02*
X7Y770D01*
X5110Y770D02*
X5117Y770D01*
X0Y769D02*
X7Y769D01*
X5110Y769D02*
X5117Y769D01*
X0Y768D02*
X7Y768D01*
X5110Y768D02*
X5117Y768D01*
X0Y767D02*
X7Y767D01*
X5110Y767D02*
X5117Y767D01*
X0Y766D02*
X7Y766D01*
X5110Y766D02*
X5117Y766D01*
X0Y765D02*
X7Y765D01*
X5110Y765D02*
X5117Y765D01*
X0Y764D02*
X7Y764D01*
X5110Y764D02*
X5117Y764D01*
X0Y763D02*
X7Y763D01*
X5110Y763D02*
X5117Y763D01*
X0Y762D02*
X7Y762D01*
X5110Y762D02*
X5117Y762D01*
X0Y761D02*
X7Y761D01*
X5110Y761D02*
X5117Y761D01*
X0Y760D02*
X7Y760D01*
X5110Y760D02*
X5117Y760D01*
X0Y759D02*
X7Y759D01*
X5110Y759D02*
X5117Y759D01*
X0Y758D02*
X7Y758D01*
X5110Y758D02*
X5117Y758D01*
X0Y757D02*
X7Y757D01*
X5110Y757D02*
X5117Y757D01*
X0Y756D02*
X7Y756D01*
X5110Y756D02*
X5117Y756D01*
X0Y755D02*
X7Y755D01*
X5110Y755D02*
X5117Y755D01*
X0Y754D02*
X7Y754D01*
X5110Y754D02*
X5117Y754D01*
X0Y753D02*
X7Y753D01*
X5110Y753D02*
X5117Y753D01*
X0Y752D02*
X7Y752D01*
X5110Y752D02*
X5117Y752D01*
X0Y751D02*
X7Y751D01*
X5110Y751D02*
X5117Y751D01*
X0Y750D02*
X7Y750D01*
X5110Y750D02*
X5117Y750D01*
X0Y749D02*
X7Y749D01*
X5110Y749D02*
X5117Y749D01*
X0Y748D02*
X7Y748D01*
X5110Y748D02*
X5117Y748D01*
X0Y747D02*
X7Y747D01*
X5110Y747D02*
X5117Y747D01*
X0Y746D02*
X7Y746D01*
X5110Y746D02*
X5117Y746D01*
X0Y745D02*
X7Y745D01*
X5110Y745D02*
X5117Y745D01*
X0Y744D02*
X7Y744D01*
X5110Y744D02*
X5117Y744D01*
X0Y743D02*
X7Y743D01*
X5110Y743D02*
X5117Y743D01*
X0Y742D02*
X7Y742D01*
X5110Y742D02*
X5117Y742D01*
X0Y741D02*
X7Y741D01*
X5110Y741D02*
X5117Y741D01*
X0Y740D02*
X7Y740D01*
X5110Y740D02*
X5117Y740D01*
X0Y739D02*
X7Y739D01*
X5110Y739D02*
X5117Y739D01*
X0Y738D02*
X7Y738D01*
X5110Y738D02*
X5117Y738D01*
X0Y737D02*
X7Y737D01*
X5110Y737D02*
X5117Y737D01*
X0Y736D02*
X7Y736D01*
X5110Y736D02*
X5117Y736D01*
X0Y735D02*
X7Y735D01*
X5110Y735D02*
X5117Y735D01*
X0Y734D02*
X7Y734D01*
X5110Y734D02*
X5117Y734D01*
X0Y733D02*
X7Y733D01*
X5110Y733D02*
X5117Y733D01*
X0Y732D02*
X7Y732D01*
X5110Y732D02*
X5117Y732D01*
X0Y731D02*
X7Y731D01*
X5110Y731D02*
X5117Y731D01*
X0Y730D02*
X7Y730D01*
X5110Y730D02*
X5117Y730D01*
X0Y729D02*
X7Y729D01*
X5110Y729D02*
X5117Y729D01*
X0Y728D02*
X7Y728D01*
X5110Y728D02*
X5117Y728D01*
X0Y727D02*
X7Y727D01*
X5110Y727D02*
X5117Y727D01*
X0Y726D02*
X7Y726D01*
X5110Y726D02*
X5117Y726D01*
X0Y725D02*
X7Y725D01*
X5110Y725D02*
X5117Y725D01*
X0Y724D02*
X7Y724D01*
X5110Y724D02*
X5117Y724D01*
X0Y723D02*
X7Y723D01*
X5110Y723D02*
X5117Y723D01*
X0Y722D02*
X7Y722D01*
X5110Y722D02*
X5117Y722D01*
X0Y721D02*
X7Y721D01*
X5110Y721D02*
X5117Y721D01*
X0Y720D02*
X7Y720D01*
X5110Y720D02*
X5117Y720D01*
X0Y719D02*
X7Y719D01*
X5110Y719D02*
X5117Y719D01*
X0Y718D02*
X7Y718D01*
X5110Y718D02*
X5117Y718D01*
X0Y717D02*
X7Y717D01*
X5110Y717D02*
X5117Y717D01*
X0Y716D02*
X7Y716D01*
X5110Y716D02*
X5117Y716D01*
X0Y715D02*
X7Y715D01*
X5110Y715D02*
X5117Y715D01*
X0Y714D02*
X7Y714D01*
X5110Y714D02*
X5117Y714D01*
X0Y713D02*
X7Y713D01*
X5110Y713D02*
X5117Y713D01*
X0Y712D02*
X7Y712D01*
X5110Y712D02*
X5117Y712D01*
X0Y711D02*
X7Y711D01*
X5110Y711D02*
X5117Y711D01*
X0Y710D02*
X7Y710D01*
X5110Y710D02*
X5117Y710D01*
X0Y709D02*
X7Y709D01*
X5110Y709D02*
X5117Y709D01*
X0Y708D02*
X7Y708D01*
X5110Y708D02*
X5117Y708D01*
X0Y707D02*
X7Y707D01*
X5110Y707D02*
X5117Y707D01*
X0Y706D02*
X7Y706D01*
X5110Y706D02*
X5117Y706D01*
X0Y705D02*
X7Y705D01*
X5110Y705D02*
X5117Y705D01*
X0Y704D02*
X7Y704D01*
X5110Y704D02*
X5117Y704D01*
X0Y703D02*
X7Y703D01*
X5110Y703D02*
X5117Y703D01*
X0Y702D02*
X7Y702D01*
X5110Y702D02*
X5117Y702D01*
X0Y701D02*
X7Y701D01*
X5110Y701D02*
X5117Y701D01*
X0Y700D02*
X7Y700D01*
X5110Y700D02*
X5117Y700D01*
X0Y699D02*
X7Y699D01*
X5110Y699D02*
X5117Y699D01*
X0Y698D02*
X7Y698D01*
X5110Y698D02*
X5117Y698D01*
X0Y697D02*
X7Y697D01*
X5110Y697D02*
X5117Y697D01*
X0Y696D02*
X7Y696D01*
X5110Y696D02*
X5117Y696D01*
X0Y695D02*
X7Y695D01*
X5110Y695D02*
X5117Y695D01*
X0Y694D02*
X7Y694D01*
X5110Y694D02*
X5117Y694D01*
X0Y693D02*
X7Y693D01*
X5110Y693D02*
X5117Y693D01*
X0Y692D02*
X7Y692D01*
X5110Y692D02*
X5117Y692D01*
X0Y691D02*
X7Y691D01*
X5110Y691D02*
X5117Y691D01*
X0Y690D02*
X7Y690D01*
X5110Y690D02*
X5117Y690D01*
X0Y689D02*
X7Y689D01*
X5110Y689D02*
X5117Y689D01*
X0Y688D02*
X7Y688D01*
X5110Y688D02*
X5117Y688D01*
X0Y687D02*
X7Y687D01*
X5110Y687D02*
X5117Y687D01*
X0Y686D02*
X7Y686D01*
X5110Y686D02*
X5117Y686D01*
X0Y685D02*
X7Y685D01*
X5110Y685D02*
X5117Y685D01*
X0Y684D02*
X7Y684D01*
X5110Y684D02*
X5117Y684D01*
X0Y683D02*
X7Y683D01*
X5110Y683D02*
X5117Y683D01*
X0Y682D02*
X7Y682D01*
X5110Y682D02*
X5117Y682D01*
X0Y681D02*
X7Y681D01*
X5110Y681D02*
X5117Y681D01*
X0Y680D02*
X7Y680D01*
X5110Y680D02*
X5117Y680D01*
X0Y679D02*
X7Y679D01*
X5110Y679D02*
X5117Y679D01*
X0Y678D02*
X7Y678D01*
X5110Y678D02*
X5117Y678D01*
X0Y677D02*
X7Y677D01*
X5110Y677D02*
X5117Y677D01*
X0Y676D02*
X7Y676D01*
X5110Y676D02*
X5117Y676D01*
X0Y675D02*
X7Y675D01*
X5110Y675D02*
X5117Y675D01*
X0Y674D02*
X7Y674D01*
X5110Y674D02*
X5117Y674D01*
X0Y673D02*
X7Y673D01*
X5110Y673D02*
X5117Y673D01*
X0Y672D02*
X7Y672D01*
X5110Y672D02*
X5117Y672D01*
X0Y671D02*
X7Y671D01*
X5110Y671D02*
X5117Y671D01*
X0Y670D02*
X7Y670D01*
X5110Y670D02*
X5117Y670D01*
X0Y669D02*
X7Y669D01*
X5110Y669D02*
X5117Y669D01*
X0Y668D02*
X7Y668D01*
X5110Y668D02*
X5117Y668D01*
X0Y667D02*
X7Y667D01*
X5110Y667D02*
X5117Y667D01*
X0Y666D02*
X7Y666D01*
X5110Y666D02*
X5117Y666D01*
X0Y665D02*
X7Y665D01*
X5110Y665D02*
X5117Y665D01*
X0Y664D02*
X7Y664D01*
X5110Y664D02*
X5117Y664D01*
X0Y663D02*
X7Y663D01*
X5110Y663D02*
X5117Y663D01*
X0Y662D02*
X7Y662D01*
X4412Y662D02*
X4766Y662D01*
X5110Y662D02*
X5117Y662D01*
X0Y661D02*
X7Y661D01*
X4412Y661D02*
X4766Y661D01*
X5110Y661D02*
X5117Y661D01*
X0Y660D02*
X7Y660D01*
X4412Y660D02*
X4766Y660D01*
X5110Y660D02*
X5117Y660D01*
X0Y659D02*
X7Y659D01*
X4412Y659D02*
X4766Y659D01*
X5110Y659D02*
X5117Y659D01*
X0Y658D02*
X7Y658D01*
X4412Y658D02*
X4766Y658D01*
X5110Y658D02*
X5117Y658D01*
X0Y657D02*
X7Y657D01*
X4412Y657D02*
X4766Y657D01*
X5110Y657D02*
X5117Y657D01*
X0Y656D02*
X7Y656D01*
X4412Y656D02*
X4766Y656D01*
X5110Y656D02*
X5117Y656D01*
X0Y655D02*
X7Y655D01*
X4412Y655D02*
X4766Y655D01*
X5110Y655D02*
X5117Y655D01*
X0Y654D02*
X7Y654D01*
X4412Y654D02*
X4419Y654D01*
X4759Y654D02*
X4766Y654D01*
X5110Y654D02*
X5117Y654D01*
X0Y653D02*
X7Y653D01*
X4412Y653D02*
X4419Y653D01*
X4759Y653D02*
X4766Y653D01*
X5110Y653D02*
X5117Y653D01*
X0Y652D02*
X7Y652D01*
X4412Y652D02*
X4419Y652D01*
X4759Y652D02*
X4766Y652D01*
X5110Y652D02*
X5117Y652D01*
X0Y651D02*
X7Y651D01*
X4412Y651D02*
X4419Y651D01*
X4759Y651D02*
X4766Y651D01*
X5110Y651D02*
X5117Y651D01*
X0Y650D02*
X7Y650D01*
X4412Y650D02*
X4419Y650D01*
X4759Y650D02*
X4766Y650D01*
X5110Y650D02*
X5117Y650D01*
X0Y649D02*
X7Y649D01*
X4412Y649D02*
X4419Y649D01*
X4759Y649D02*
X4766Y649D01*
X5110Y649D02*
X5117Y649D01*
X0Y648D02*
X7Y648D01*
X4412Y648D02*
X4419Y648D01*
X4759Y648D02*
X4766Y648D01*
X5110Y648D02*
X5117Y648D01*
X0Y647D02*
X7Y647D01*
X4412Y647D02*
X4419Y647D01*
X4759Y647D02*
X4766Y647D01*
X5110Y647D02*
X5117Y647D01*
X0Y646D02*
X7Y646D01*
X4412Y646D02*
X4419Y646D01*
X4759Y646D02*
X4766Y646D01*
X5110Y646D02*
X5117Y646D01*
X0Y645D02*
X7Y645D01*
X4412Y645D02*
X4419Y645D01*
X4759Y645D02*
X4766Y645D01*
X5110Y645D02*
X5117Y645D01*
X0Y644D02*
X7Y644D01*
X4412Y644D02*
X4419Y644D01*
X4759Y644D02*
X4766Y644D01*
X5110Y644D02*
X5117Y644D01*
X0Y643D02*
X7Y643D01*
X4412Y643D02*
X4419Y643D01*
X4759Y643D02*
X4766Y643D01*
X5110Y643D02*
X5117Y643D01*
X0Y642D02*
X7Y642D01*
X4412Y642D02*
X4419Y642D01*
X4759Y642D02*
X4766Y642D01*
X5110Y642D02*
X5117Y642D01*
X0Y641D02*
X7Y641D01*
X4412Y641D02*
X4419Y641D01*
X4759Y641D02*
X4766Y641D01*
X5110Y641D02*
X5117Y641D01*
X0Y640D02*
X7Y640D01*
X4412Y640D02*
X4419Y640D01*
X4759Y640D02*
X4766Y640D01*
X5110Y640D02*
X5117Y640D01*
X0Y639D02*
X7Y639D01*
X4412Y639D02*
X4419Y639D01*
X4759Y639D02*
X4766Y639D01*
X5110Y639D02*
X5117Y639D01*
X0Y638D02*
X7Y638D01*
X4412Y638D02*
X4419Y638D01*
X4759Y638D02*
X4766Y638D01*
X5110Y638D02*
X5117Y638D01*
X0Y637D02*
X7Y637D01*
X4412Y637D02*
X4419Y637D01*
X4759Y637D02*
X4766Y637D01*
X5110Y637D02*
X5117Y637D01*
X0Y636D02*
X7Y636D01*
X4412Y636D02*
X4419Y636D01*
X4759Y636D02*
X4766Y636D01*
X5110Y636D02*
X5117Y636D01*
X0Y635D02*
X7Y635D01*
X4412Y635D02*
X4419Y635D01*
X4759Y635D02*
X4766Y635D01*
X5110Y635D02*
X5117Y635D01*
X0Y634D02*
X7Y634D01*
X4412Y634D02*
X4419Y634D01*
X4759Y634D02*
X4766Y634D01*
X5110Y634D02*
X5117Y634D01*
X0Y633D02*
X7Y633D01*
X4412Y633D02*
X4419Y633D01*
X4759Y633D02*
X4766Y633D01*
X5110Y633D02*
X5117Y633D01*
X0Y632D02*
X7Y632D01*
X4412Y632D02*
X4419Y632D01*
X4759Y632D02*
X4766Y632D01*
X5110Y632D02*
X5117Y632D01*
X0Y631D02*
X7Y631D01*
X4412Y631D02*
X4419Y631D01*
X4759Y631D02*
X4766Y631D01*
X5110Y631D02*
X5117Y631D01*
X0Y630D02*
X7Y630D01*
X4412Y630D02*
X4419Y630D01*
X4759Y630D02*
X4766Y630D01*
X5110Y630D02*
X5117Y630D01*
X0Y629D02*
X7Y629D01*
X4412Y629D02*
X4419Y629D01*
X4759Y629D02*
X4766Y629D01*
X5110Y629D02*
X5117Y629D01*
X0Y628D02*
X7Y628D01*
X4412Y628D02*
X4419Y628D01*
X4759Y628D02*
X4766Y628D01*
X5110Y628D02*
X5117Y628D01*
X0Y627D02*
X7Y627D01*
X4412Y627D02*
X4419Y627D01*
X4759Y627D02*
X4766Y627D01*
X5110Y627D02*
X5117Y627D01*
X0Y626D02*
X7Y626D01*
X4412Y626D02*
X4419Y626D01*
X4456Y626D02*
X4722Y626D01*
X4759Y626D02*
X4766Y626D01*
X5110Y626D02*
X5117Y626D01*
X0Y625D02*
X7Y625D01*
X4412Y625D02*
X4419Y625D01*
X4456Y625D02*
X4722Y625D01*
X4759Y625D02*
X4766Y625D01*
X5110Y625D02*
X5117Y625D01*
X0Y624D02*
X7Y624D01*
X4412Y624D02*
X4419Y624D01*
X4456Y624D02*
X4722Y624D01*
X4759Y624D02*
X4766Y624D01*
X5110Y624D02*
X5117Y624D01*
X0Y623D02*
X7Y623D01*
X4412Y623D02*
X4419Y623D01*
X4456Y623D02*
X4722Y623D01*
X4759Y623D02*
X4766Y623D01*
X5110Y623D02*
X5117Y623D01*
X0Y622D02*
X7Y622D01*
X4412Y622D02*
X4419Y622D01*
X4456Y622D02*
X4722Y622D01*
X4759Y622D02*
X4766Y622D01*
X5110Y622D02*
X5117Y622D01*
X0Y621D02*
X7Y621D01*
X4412Y621D02*
X4419Y621D01*
X4456Y621D02*
X4722Y621D01*
X4759Y621D02*
X4766Y621D01*
X5110Y621D02*
X5117Y621D01*
X0Y620D02*
X7Y620D01*
X4412Y620D02*
X4419Y620D01*
X4456Y620D02*
X4722Y620D01*
X4759Y620D02*
X4766Y620D01*
X5110Y620D02*
X5117Y620D01*
X0Y619D02*
X7Y619D01*
X4412Y619D02*
X4419Y619D01*
X4456Y619D02*
X4722Y619D01*
X4759Y619D02*
X4766Y619D01*
X5110Y619D02*
X5117Y619D01*
X0Y618D02*
X7Y618D01*
X4412Y618D02*
X4419Y618D01*
X4456Y618D02*
X4463Y618D01*
X4715Y618D02*
X4722Y618D01*
X4759Y618D02*
X4766Y618D01*
X5110Y618D02*
X5117Y618D01*
X0Y617D02*
X7Y617D01*
X4412Y617D02*
X4419Y617D01*
X4456Y617D02*
X4463Y617D01*
X4715Y617D02*
X4722Y617D01*
X4759Y617D02*
X4766Y617D01*
X5110Y617D02*
X5117Y617D01*
X0Y616D02*
X7Y616D01*
X4412Y616D02*
X4419Y616D01*
X4456Y616D02*
X4463Y616D01*
X4715Y616D02*
X4722Y616D01*
X4759Y616D02*
X4766Y616D01*
X5110Y616D02*
X5117Y616D01*
X0Y615D02*
X7Y615D01*
X4412Y615D02*
X4419Y615D01*
X4456Y615D02*
X4463Y615D01*
X4715Y615D02*
X4722Y615D01*
X4759Y615D02*
X4766Y615D01*
X5110Y615D02*
X5117Y615D01*
X0Y614D02*
X7Y614D01*
X4412Y614D02*
X4419Y614D01*
X4456Y614D02*
X4463Y614D01*
X4715Y614D02*
X4722Y614D01*
X4759Y614D02*
X4766Y614D01*
X5110Y614D02*
X5117Y614D01*
X0Y613D02*
X7Y613D01*
X4412Y613D02*
X4419Y613D01*
X4456Y613D02*
X4463Y613D01*
X4715Y613D02*
X4722Y613D01*
X4759Y613D02*
X4766Y613D01*
X5110Y613D02*
X5117Y613D01*
X0Y612D02*
X7Y612D01*
X4412Y612D02*
X4419Y612D01*
X4456Y612D02*
X4463Y612D01*
X4715Y612D02*
X4722Y612D01*
X4759Y612D02*
X4766Y612D01*
X5110Y612D02*
X5117Y612D01*
X0Y611D02*
X7Y611D01*
X4412Y611D02*
X4419Y611D01*
X4456Y611D02*
X4463Y611D01*
X4715Y611D02*
X4722Y611D01*
X4759Y611D02*
X4766Y611D01*
X5110Y611D02*
X5117Y611D01*
X0Y610D02*
X7Y610D01*
X4412Y610D02*
X4419Y610D01*
X4456Y610D02*
X4463Y610D01*
X4715Y610D02*
X4722Y610D01*
X4759Y610D02*
X4766Y610D01*
X5110Y610D02*
X5117Y610D01*
X0Y609D02*
X7Y609D01*
X4412Y609D02*
X4419Y609D01*
X4456Y609D02*
X4463Y609D01*
X4715Y609D02*
X4722Y609D01*
X4759Y609D02*
X4766Y609D01*
X5110Y609D02*
X5117Y609D01*
X0Y608D02*
X7Y608D01*
X4412Y608D02*
X4419Y608D01*
X4456Y608D02*
X4463Y608D01*
X4715Y608D02*
X4722Y608D01*
X4759Y608D02*
X4766Y608D01*
X5110Y608D02*
X5117Y608D01*
X0Y607D02*
X7Y607D01*
X4412Y607D02*
X4419Y607D01*
X4456Y607D02*
X4463Y607D01*
X4715Y607D02*
X4722Y607D01*
X4759Y607D02*
X4766Y607D01*
X5110Y607D02*
X5117Y607D01*
X0Y606D02*
X7Y606D01*
X4412Y606D02*
X4419Y606D01*
X4456Y606D02*
X4463Y606D01*
X4715Y606D02*
X4722Y606D01*
X4759Y606D02*
X4766Y606D01*
X5110Y606D02*
X5117Y606D01*
X0Y605D02*
X7Y605D01*
X4412Y605D02*
X4419Y605D01*
X4456Y605D02*
X4463Y605D01*
X4715Y605D02*
X4722Y605D01*
X4759Y605D02*
X4766Y605D01*
X5110Y605D02*
X5117Y605D01*
X0Y604D02*
X7Y604D01*
X4412Y604D02*
X4419Y604D01*
X4456Y604D02*
X4463Y604D01*
X4715Y604D02*
X4722Y604D01*
X4759Y604D02*
X4766Y604D01*
X5110Y604D02*
X5117Y604D01*
X0Y603D02*
X7Y603D01*
X4412Y603D02*
X4419Y603D01*
X4456Y603D02*
X4463Y603D01*
X4715Y603D02*
X4722Y603D01*
X4759Y603D02*
X4766Y603D01*
X5110Y603D02*
X5117Y603D01*
X0Y602D02*
X7Y602D01*
X4412Y602D02*
X4419Y602D01*
X4456Y602D02*
X4463Y602D01*
X4715Y602D02*
X4722Y602D01*
X4759Y602D02*
X4766Y602D01*
X5110Y602D02*
X5117Y602D01*
X0Y601D02*
X7Y601D01*
X4412Y601D02*
X4419Y601D01*
X4456Y601D02*
X4463Y601D01*
X4715Y601D02*
X4722Y601D01*
X4759Y601D02*
X4766Y601D01*
X5110Y601D02*
X5117Y601D01*
X0Y600D02*
X7Y600D01*
X4412Y600D02*
X4419Y600D01*
X4456Y600D02*
X4463Y600D01*
X4715Y600D02*
X4722Y600D01*
X4759Y600D02*
X4766Y600D01*
X5110Y600D02*
X5117Y600D01*
X0Y599D02*
X7Y599D01*
X4412Y599D02*
X4419Y599D01*
X4456Y599D02*
X4463Y599D01*
X4715Y599D02*
X4722Y599D01*
X4759Y599D02*
X4766Y599D01*
X5110Y599D02*
X5117Y599D01*
X0Y598D02*
X7Y598D01*
X4412Y598D02*
X4419Y598D01*
X4456Y598D02*
X4463Y598D01*
X4715Y598D02*
X4722Y598D01*
X4759Y598D02*
X4766Y598D01*
X5110Y598D02*
X5117Y598D01*
X0Y597D02*
X7Y597D01*
X4412Y597D02*
X4419Y597D01*
X4456Y597D02*
X4463Y597D01*
X4715Y597D02*
X4722Y597D01*
X4759Y597D02*
X4766Y597D01*
X5110Y597D02*
X5117Y597D01*
X0Y596D02*
X7Y596D01*
X4412Y596D02*
X4419Y596D01*
X4456Y596D02*
X4463Y596D01*
X4715Y596D02*
X4722Y596D01*
X4759Y596D02*
X4766Y596D01*
X5110Y596D02*
X5117Y596D01*
X0Y595D02*
X7Y595D01*
X4412Y595D02*
X4419Y595D01*
X4456Y595D02*
X4463Y595D01*
X4715Y595D02*
X4722Y595D01*
X4759Y595D02*
X4766Y595D01*
X5110Y595D02*
X5117Y595D01*
X0Y594D02*
X7Y594D01*
X4412Y594D02*
X4419Y594D01*
X4456Y594D02*
X4463Y594D01*
X4715Y594D02*
X4722Y594D01*
X4759Y594D02*
X4766Y594D01*
X5110Y594D02*
X5117Y594D01*
X0Y593D02*
X7Y593D01*
X4412Y593D02*
X4419Y593D01*
X4456Y593D02*
X4463Y593D01*
X4715Y593D02*
X4722Y593D01*
X4759Y593D02*
X4766Y593D01*
X5110Y593D02*
X5117Y593D01*
X0Y592D02*
X7Y592D01*
X4412Y592D02*
X4419Y592D01*
X4456Y592D02*
X4463Y592D01*
X4715Y592D02*
X4722Y592D01*
X4759Y592D02*
X4766Y592D01*
X5110Y592D02*
X5117Y592D01*
X0Y591D02*
X7Y591D01*
X4412Y591D02*
X4419Y591D01*
X4456Y591D02*
X4463Y591D01*
X4715Y591D02*
X4722Y591D01*
X4759Y591D02*
X4766Y591D01*
X5110Y591D02*
X5117Y591D01*
X0Y590D02*
X7Y590D01*
X4412Y590D02*
X4419Y590D01*
X4456Y590D02*
X4463Y590D01*
X4715Y590D02*
X4722Y590D01*
X4759Y590D02*
X4766Y590D01*
X5110Y590D02*
X5117Y590D01*
X0Y589D02*
X7Y589D01*
X4412Y589D02*
X4419Y589D01*
X4456Y589D02*
X4463Y589D01*
X4715Y589D02*
X4722Y589D01*
X4759Y589D02*
X4766Y589D01*
X5110Y589D02*
X5117Y589D01*
X0Y588D02*
X7Y588D01*
X4412Y588D02*
X4419Y588D01*
X4456Y588D02*
X4463Y588D01*
X4715Y588D02*
X4722Y588D01*
X4759Y588D02*
X4766Y588D01*
X5110Y588D02*
X5117Y588D01*
X0Y587D02*
X7Y587D01*
X4412Y587D02*
X4419Y587D01*
X4456Y587D02*
X4463Y587D01*
X4715Y587D02*
X4722Y587D01*
X4759Y587D02*
X4766Y587D01*
X5110Y587D02*
X5117Y587D01*
X0Y586D02*
X7Y586D01*
X4412Y586D02*
X4419Y586D01*
X4456Y586D02*
X4463Y586D01*
X4715Y586D02*
X4722Y586D01*
X4759Y586D02*
X4766Y586D01*
X5110Y586D02*
X5117Y586D01*
X0Y585D02*
X7Y585D01*
X4412Y585D02*
X4419Y585D01*
X4456Y585D02*
X4463Y585D01*
X4715Y585D02*
X4722Y585D01*
X4759Y585D02*
X4766Y585D01*
X5110Y585D02*
X5117Y585D01*
X0Y584D02*
X7Y584D01*
X4412Y584D02*
X4419Y584D01*
X4456Y584D02*
X4463Y584D01*
X4715Y584D02*
X4722Y584D01*
X4759Y584D02*
X4766Y584D01*
X5110Y584D02*
X5117Y584D01*
X0Y583D02*
X7Y583D01*
X4412Y583D02*
X4419Y583D01*
X4456Y583D02*
X4463Y583D01*
X4715Y583D02*
X4722Y583D01*
X4759Y583D02*
X4766Y583D01*
X5110Y583D02*
X5117Y583D01*
X0Y582D02*
X7Y582D01*
X4412Y582D02*
X4419Y582D01*
X4456Y582D02*
X4463Y582D01*
X4715Y582D02*
X4722Y582D01*
X4759Y582D02*
X4766Y582D01*
X5110Y582D02*
X5117Y582D01*
X0Y581D02*
X7Y581D01*
X4412Y581D02*
X4419Y581D01*
X4456Y581D02*
X4463Y581D01*
X4715Y581D02*
X4722Y581D01*
X4759Y581D02*
X4766Y581D01*
X5110Y581D02*
X5117Y581D01*
X0Y580D02*
X7Y580D01*
X4412Y580D02*
X4419Y580D01*
X4456Y580D02*
X4463Y580D01*
X4715Y580D02*
X4722Y580D01*
X4759Y580D02*
X4766Y580D01*
X5110Y580D02*
X5117Y580D01*
X0Y579D02*
X7Y579D01*
X4412Y579D02*
X4419Y579D01*
X4456Y579D02*
X4463Y579D01*
X4715Y579D02*
X4722Y579D01*
X4759Y579D02*
X4766Y579D01*
X5110Y579D02*
X5117Y579D01*
X0Y578D02*
X7Y578D01*
X4412Y578D02*
X4419Y578D01*
X4456Y578D02*
X4463Y578D01*
X4715Y578D02*
X4722Y578D01*
X4759Y578D02*
X4766Y578D01*
X5110Y578D02*
X5117Y578D01*
X0Y577D02*
X7Y577D01*
X4412Y577D02*
X4419Y577D01*
X4456Y577D02*
X4463Y577D01*
X4715Y577D02*
X4722Y577D01*
X4759Y577D02*
X4766Y577D01*
X5110Y577D02*
X5117Y577D01*
X0Y576D02*
X7Y576D01*
X4412Y576D02*
X4419Y576D01*
X4456Y576D02*
X4463Y576D01*
X4715Y576D02*
X4722Y576D01*
X4759Y576D02*
X4766Y576D01*
X5110Y576D02*
X5117Y576D01*
X0Y575D02*
X7Y575D01*
X4412Y575D02*
X4419Y575D01*
X4456Y575D02*
X4463Y575D01*
X4715Y575D02*
X4722Y575D01*
X4759Y575D02*
X4766Y575D01*
X5110Y575D02*
X5117Y575D01*
X0Y574D02*
X7Y574D01*
X4412Y574D02*
X4419Y574D01*
X4456Y574D02*
X4463Y574D01*
X4715Y574D02*
X4722Y574D01*
X4759Y574D02*
X4766Y574D01*
X5110Y574D02*
X5117Y574D01*
X0Y573D02*
X7Y573D01*
X4412Y573D02*
X4419Y573D01*
X4456Y573D02*
X4463Y573D01*
X4715Y573D02*
X4722Y573D01*
X4759Y573D02*
X4766Y573D01*
X5110Y573D02*
X5117Y573D01*
X0Y572D02*
X7Y572D01*
X4412Y572D02*
X4419Y572D01*
X4456Y572D02*
X4463Y572D01*
X4715Y572D02*
X4722Y572D01*
X4759Y572D02*
X4766Y572D01*
X5110Y572D02*
X5117Y572D01*
X0Y571D02*
X7Y571D01*
X4412Y571D02*
X4419Y571D01*
X4456Y571D02*
X4463Y571D01*
X4715Y571D02*
X4722Y571D01*
X4759Y571D02*
X4766Y571D01*
X5110Y571D02*
X5117Y571D01*
X0Y570D02*
X7Y570D01*
X4412Y570D02*
X4419Y570D01*
X4456Y570D02*
X4463Y570D01*
X4715Y570D02*
X4722Y570D01*
X4759Y570D02*
X4766Y570D01*
X5110Y570D02*
X5117Y570D01*
X0Y569D02*
X7Y569D01*
X4412Y569D02*
X4419Y569D01*
X4456Y569D02*
X4463Y569D01*
X4715Y569D02*
X4722Y569D01*
X4759Y569D02*
X4766Y569D01*
X5110Y569D02*
X5117Y569D01*
X0Y568D02*
X7Y568D01*
X4412Y568D02*
X4419Y568D01*
X4456Y568D02*
X4463Y568D01*
X4715Y568D02*
X4722Y568D01*
X4759Y568D02*
X4766Y568D01*
X5110Y568D02*
X5117Y568D01*
X0Y567D02*
X7Y567D01*
X4412Y567D02*
X4419Y567D01*
X4456Y567D02*
X4463Y567D01*
X4715Y567D02*
X4722Y567D01*
X4759Y567D02*
X4766Y567D01*
X5110Y567D02*
X5117Y567D01*
X0Y566D02*
X7Y566D01*
X4412Y566D02*
X4419Y566D01*
X4456Y566D02*
X4463Y566D01*
X4715Y566D02*
X4722Y566D01*
X4759Y566D02*
X4766Y566D01*
X5110Y566D02*
X5117Y566D01*
X0Y565D02*
X7Y565D01*
X4412Y565D02*
X4419Y565D01*
X4456Y565D02*
X4463Y565D01*
X4715Y565D02*
X4722Y565D01*
X4759Y565D02*
X4766Y565D01*
X5110Y565D02*
X5117Y565D01*
X0Y564D02*
X7Y564D01*
X4412Y564D02*
X4419Y564D01*
X4456Y564D02*
X4463Y564D01*
X4715Y564D02*
X4722Y564D01*
X4759Y564D02*
X4766Y564D01*
X5110Y564D02*
X5117Y564D01*
X0Y563D02*
X7Y563D01*
X4412Y563D02*
X4419Y563D01*
X4456Y563D02*
X4463Y563D01*
X4715Y563D02*
X4722Y563D01*
X4759Y563D02*
X4766Y563D01*
X5110Y563D02*
X5117Y563D01*
X0Y562D02*
X7Y562D01*
X4412Y562D02*
X4419Y562D01*
X4456Y562D02*
X4463Y562D01*
X4715Y562D02*
X4722Y562D01*
X4759Y562D02*
X4766Y562D01*
X5110Y562D02*
X5117Y562D01*
X0Y561D02*
X7Y561D01*
X4412Y561D02*
X4419Y561D01*
X4456Y561D02*
X4463Y561D01*
X4715Y561D02*
X4722Y561D01*
X4759Y561D02*
X4766Y561D01*
X5110Y561D02*
X5117Y561D01*
X0Y560D02*
X7Y560D01*
X4412Y560D02*
X4419Y560D01*
X4456Y560D02*
X4463Y560D01*
X4715Y560D02*
X4722Y560D01*
X4759Y560D02*
X4766Y560D01*
X5110Y560D02*
X5117Y560D01*
X0Y559D02*
X7Y559D01*
X4412Y559D02*
X4419Y559D01*
X4456Y559D02*
X4463Y559D01*
X4715Y559D02*
X4722Y559D01*
X4759Y559D02*
X4766Y559D01*
X5110Y559D02*
X5117Y559D01*
X0Y558D02*
X7Y558D01*
X4412Y558D02*
X4419Y558D01*
X4456Y558D02*
X4463Y558D01*
X4715Y558D02*
X4722Y558D01*
X4759Y558D02*
X4766Y558D01*
X5110Y558D02*
X5117Y558D01*
X0Y557D02*
X7Y557D01*
X4412Y557D02*
X4419Y557D01*
X4456Y557D02*
X4463Y557D01*
X4715Y557D02*
X4722Y557D01*
X4759Y557D02*
X4766Y557D01*
X5110Y557D02*
X5117Y557D01*
X0Y556D02*
X7Y556D01*
X4412Y556D02*
X4419Y556D01*
X4456Y556D02*
X4463Y556D01*
X4715Y556D02*
X4722Y556D01*
X4759Y556D02*
X4766Y556D01*
X5110Y556D02*
X5117Y556D01*
X0Y555D02*
X7Y555D01*
X4412Y555D02*
X4419Y555D01*
X4456Y555D02*
X4463Y555D01*
X4715Y555D02*
X4722Y555D01*
X4759Y555D02*
X4766Y555D01*
X5110Y555D02*
X5117Y555D01*
X0Y554D02*
X7Y554D01*
X4412Y554D02*
X4419Y554D01*
X4456Y554D02*
X4463Y554D01*
X4715Y554D02*
X4722Y554D01*
X4759Y554D02*
X4766Y554D01*
X5110Y554D02*
X5117Y554D01*
X0Y553D02*
X7Y553D01*
X4412Y553D02*
X4419Y553D01*
X4456Y553D02*
X4463Y553D01*
X4715Y553D02*
X4722Y553D01*
X4759Y553D02*
X4766Y553D01*
X5110Y553D02*
X5117Y553D01*
X0Y552D02*
X7Y552D01*
X4412Y552D02*
X4419Y552D01*
X4456Y552D02*
X4463Y552D01*
X4715Y552D02*
X4722Y552D01*
X4759Y552D02*
X4766Y552D01*
X5110Y552D02*
X5117Y552D01*
X0Y551D02*
X7Y551D01*
X4412Y551D02*
X4419Y551D01*
X4456Y551D02*
X4463Y551D01*
X4715Y551D02*
X4722Y551D01*
X4759Y551D02*
X4766Y551D01*
X5110Y551D02*
X5117Y551D01*
X0Y550D02*
X7Y550D01*
X4412Y550D02*
X4419Y550D01*
X4456Y550D02*
X4463Y550D01*
X4715Y550D02*
X4722Y550D01*
X4759Y550D02*
X4766Y550D01*
X5110Y550D02*
X5117Y550D01*
X0Y549D02*
X7Y549D01*
X4412Y549D02*
X4419Y549D01*
X4456Y549D02*
X4463Y549D01*
X4715Y549D02*
X4722Y549D01*
X4759Y549D02*
X4766Y549D01*
X5110Y549D02*
X5117Y549D01*
X0Y548D02*
X7Y548D01*
X4412Y548D02*
X4419Y548D01*
X4456Y548D02*
X4463Y548D01*
X4715Y548D02*
X4722Y548D01*
X4759Y548D02*
X4766Y548D01*
X5110Y548D02*
X5117Y548D01*
X0Y547D02*
X7Y547D01*
X4412Y547D02*
X4419Y547D01*
X4456Y547D02*
X4463Y547D01*
X4715Y547D02*
X4722Y547D01*
X4759Y547D02*
X4766Y547D01*
X5110Y547D02*
X5117Y547D01*
X0Y546D02*
X7Y546D01*
X4412Y546D02*
X4419Y546D01*
X4456Y546D02*
X4463Y546D01*
X4715Y546D02*
X4722Y546D01*
X4759Y546D02*
X4766Y546D01*
X5110Y546D02*
X5117Y546D01*
X0Y545D02*
X7Y545D01*
X4412Y545D02*
X4419Y545D01*
X4456Y545D02*
X4463Y545D01*
X4715Y545D02*
X4722Y545D01*
X4759Y545D02*
X4766Y545D01*
X5110Y545D02*
X5117Y545D01*
X0Y544D02*
X7Y544D01*
X4412Y544D02*
X4419Y544D01*
X4456Y544D02*
X4463Y544D01*
X4715Y544D02*
X4722Y544D01*
X4759Y544D02*
X4766Y544D01*
X5110Y544D02*
X5117Y544D01*
X0Y543D02*
X7Y543D01*
X4412Y543D02*
X4419Y543D01*
X4456Y543D02*
X4463Y543D01*
X4715Y543D02*
X4722Y543D01*
X4759Y543D02*
X4766Y543D01*
X5110Y543D02*
X5117Y543D01*
X0Y542D02*
X7Y542D01*
X4412Y542D02*
X4419Y542D01*
X4456Y542D02*
X4463Y542D01*
X4715Y542D02*
X4722Y542D01*
X4759Y542D02*
X4766Y542D01*
X5110Y542D02*
X5117Y542D01*
X0Y541D02*
X7Y541D01*
X4412Y541D02*
X4419Y541D01*
X4456Y541D02*
X4463Y541D01*
X4715Y541D02*
X4722Y541D01*
X4759Y541D02*
X4766Y541D01*
X5110Y541D02*
X5117Y541D01*
X0Y540D02*
X7Y540D01*
X4412Y540D02*
X4419Y540D01*
X4456Y540D02*
X4463Y540D01*
X4715Y540D02*
X4722Y540D01*
X4759Y540D02*
X4766Y540D01*
X5110Y540D02*
X5117Y540D01*
X0Y539D02*
X7Y539D01*
X4412Y539D02*
X4419Y539D01*
X4456Y539D02*
X4463Y539D01*
X4715Y539D02*
X4722Y539D01*
X4759Y539D02*
X4766Y539D01*
X5110Y539D02*
X5117Y539D01*
X0Y538D02*
X7Y538D01*
X4412Y538D02*
X4419Y538D01*
X4456Y538D02*
X4463Y538D01*
X4715Y538D02*
X4722Y538D01*
X4759Y538D02*
X4766Y538D01*
X5110Y538D02*
X5117Y538D01*
X0Y537D02*
X7Y537D01*
X4412Y537D02*
X4419Y537D01*
X4456Y537D02*
X4463Y537D01*
X4715Y537D02*
X4722Y537D01*
X4759Y537D02*
X4766Y537D01*
X5110Y537D02*
X5117Y537D01*
X0Y536D02*
X7Y536D01*
X4412Y536D02*
X4419Y536D01*
X4456Y536D02*
X4463Y536D01*
X4715Y536D02*
X4722Y536D01*
X4759Y536D02*
X4766Y536D01*
X5110Y536D02*
X5117Y536D01*
X0Y535D02*
X7Y535D01*
X4412Y535D02*
X4419Y535D01*
X4456Y535D02*
X4463Y535D01*
X4715Y535D02*
X4722Y535D01*
X4759Y535D02*
X4766Y535D01*
X5110Y535D02*
X5117Y535D01*
X0Y534D02*
X7Y534D01*
X4412Y534D02*
X4419Y534D01*
X4456Y534D02*
X4463Y534D01*
X4715Y534D02*
X4722Y534D01*
X4759Y534D02*
X4766Y534D01*
X5110Y534D02*
X5117Y534D01*
X0Y533D02*
X7Y533D01*
X4412Y533D02*
X4419Y533D01*
X4456Y533D02*
X4463Y533D01*
X4715Y533D02*
X4722Y533D01*
X4759Y533D02*
X4766Y533D01*
X5110Y533D02*
X5117Y533D01*
X0Y532D02*
X7Y532D01*
X4412Y532D02*
X4419Y532D01*
X4456Y532D02*
X4463Y532D01*
X4715Y532D02*
X4722Y532D01*
X4759Y532D02*
X4766Y532D01*
X5110Y532D02*
X5117Y532D01*
X0Y531D02*
X7Y531D01*
X4412Y531D02*
X4419Y531D01*
X4456Y531D02*
X4463Y531D01*
X4715Y531D02*
X4722Y531D01*
X4759Y531D02*
X4766Y531D01*
X5110Y531D02*
X5117Y531D01*
X0Y530D02*
X7Y530D01*
X4412Y530D02*
X4419Y530D01*
X4456Y530D02*
X4463Y530D01*
X4715Y530D02*
X4722Y530D01*
X4759Y530D02*
X4766Y530D01*
X5110Y530D02*
X5117Y530D01*
X0Y529D02*
X7Y529D01*
X4412Y529D02*
X4419Y529D01*
X4456Y529D02*
X4463Y529D01*
X4715Y529D02*
X4722Y529D01*
X4759Y529D02*
X4766Y529D01*
X5110Y529D02*
X5117Y529D01*
X0Y528D02*
X7Y528D01*
X4412Y528D02*
X4419Y528D01*
X4456Y528D02*
X4463Y528D01*
X4715Y528D02*
X4722Y528D01*
X4759Y528D02*
X4766Y528D01*
X5110Y528D02*
X5117Y528D01*
X0Y527D02*
X7Y527D01*
X4412Y527D02*
X4419Y527D01*
X4456Y527D02*
X4463Y527D01*
X4715Y527D02*
X4722Y527D01*
X4759Y527D02*
X4766Y527D01*
X5110Y527D02*
X5117Y527D01*
X0Y526D02*
X7Y526D01*
X4412Y526D02*
X4419Y526D01*
X4456Y526D02*
X4463Y526D01*
X4715Y526D02*
X4722Y526D01*
X4759Y526D02*
X4766Y526D01*
X5110Y526D02*
X5117Y526D01*
X0Y525D02*
X7Y525D01*
X4412Y525D02*
X4419Y525D01*
X4456Y525D02*
X4463Y525D01*
X4715Y525D02*
X4722Y525D01*
X4759Y525D02*
X4766Y525D01*
X5110Y525D02*
X5117Y525D01*
X0Y524D02*
X7Y524D01*
X4412Y524D02*
X4419Y524D01*
X4456Y524D02*
X4463Y524D01*
X4715Y524D02*
X4722Y524D01*
X4759Y524D02*
X4766Y524D01*
X5110Y524D02*
X5117Y524D01*
X0Y523D02*
X7Y523D01*
X4412Y523D02*
X4419Y523D01*
X4456Y523D02*
X4463Y523D01*
X4715Y523D02*
X4722Y523D01*
X4759Y523D02*
X4766Y523D01*
X5110Y523D02*
X5117Y523D01*
X0Y522D02*
X7Y522D01*
X4412Y522D02*
X4419Y522D01*
X4456Y522D02*
X4463Y522D01*
X4715Y522D02*
X4722Y522D01*
X4759Y522D02*
X4766Y522D01*
X5110Y522D02*
X5117Y522D01*
X0Y521D02*
X7Y521D01*
X4412Y521D02*
X4419Y521D01*
X4456Y521D02*
X4463Y521D01*
X4715Y521D02*
X4722Y521D01*
X4759Y521D02*
X4766Y521D01*
X5110Y521D02*
X5117Y521D01*
X0Y520D02*
X7Y520D01*
X4412Y520D02*
X4419Y520D01*
X4456Y520D02*
X4463Y520D01*
X4715Y520D02*
X4722Y520D01*
X4759Y520D02*
X4766Y520D01*
X5110Y520D02*
X5117Y520D01*
X0Y519D02*
X7Y519D01*
X4412Y519D02*
X4419Y519D01*
X4456Y519D02*
X4463Y519D01*
X4715Y519D02*
X4722Y519D01*
X4759Y519D02*
X4766Y519D01*
X5110Y519D02*
X5117Y519D01*
X0Y518D02*
X7Y518D01*
X4412Y518D02*
X4419Y518D01*
X4456Y518D02*
X4463Y518D01*
X4715Y518D02*
X4722Y518D01*
X4759Y518D02*
X4766Y518D01*
X5110Y518D02*
X5117Y518D01*
X0Y517D02*
X7Y517D01*
X4412Y517D02*
X4419Y517D01*
X4456Y517D02*
X4463Y517D01*
X4715Y517D02*
X4722Y517D01*
X4759Y517D02*
X4766Y517D01*
X5110Y517D02*
X5117Y517D01*
X0Y516D02*
X7Y516D01*
X4412Y516D02*
X4419Y516D01*
X4456Y516D02*
X4463Y516D01*
X4715Y516D02*
X4722Y516D01*
X4759Y516D02*
X4766Y516D01*
X5110Y516D02*
X5117Y516D01*
X0Y515D02*
X7Y515D01*
X4412Y515D02*
X4419Y515D01*
X4456Y515D02*
X4463Y515D01*
X4715Y515D02*
X4722Y515D01*
X4759Y515D02*
X4766Y515D01*
X5110Y515D02*
X5117Y515D01*
X0Y514D02*
X7Y514D01*
X4412Y514D02*
X4419Y514D01*
X4456Y514D02*
X4463Y514D01*
X4715Y514D02*
X4722Y514D01*
X4759Y514D02*
X4766Y514D01*
X5110Y514D02*
X5117Y514D01*
X0Y513D02*
X7Y513D01*
X4412Y513D02*
X4419Y513D01*
X4456Y513D02*
X4463Y513D01*
X4715Y513D02*
X4722Y513D01*
X4759Y513D02*
X4766Y513D01*
X5110Y513D02*
X5117Y513D01*
X0Y512D02*
X7Y512D01*
X4412Y512D02*
X4419Y512D01*
X4456Y512D02*
X4463Y512D01*
X4715Y512D02*
X4722Y512D01*
X4759Y512D02*
X4766Y512D01*
X5110Y512D02*
X5117Y512D01*
X0Y511D02*
X7Y511D01*
X4412Y511D02*
X4419Y511D01*
X4456Y511D02*
X4463Y511D01*
X4715Y511D02*
X4722Y511D01*
X4759Y511D02*
X4766Y511D01*
X5110Y511D02*
X5117Y511D01*
X0Y510D02*
X7Y510D01*
X4412Y510D02*
X4419Y510D01*
X4456Y510D02*
X4463Y510D01*
X4715Y510D02*
X4722Y510D01*
X4759Y510D02*
X4766Y510D01*
X5110Y510D02*
X5117Y510D01*
X0Y509D02*
X7Y509D01*
X4412Y509D02*
X4419Y509D01*
X4456Y509D02*
X4463Y509D01*
X4715Y509D02*
X4722Y509D01*
X4759Y509D02*
X4766Y509D01*
X5110Y509D02*
X5117Y509D01*
X0Y508D02*
X7Y508D01*
X4412Y508D02*
X4419Y508D01*
X4456Y508D02*
X4463Y508D01*
X4715Y508D02*
X4722Y508D01*
X4759Y508D02*
X4766Y508D01*
X5110Y508D02*
X5117Y508D01*
X0Y507D02*
X7Y507D01*
X4412Y507D02*
X4419Y507D01*
X4456Y507D02*
X4463Y507D01*
X4715Y507D02*
X4722Y507D01*
X4759Y507D02*
X4766Y507D01*
X5110Y507D02*
X5117Y507D01*
X0Y506D02*
X7Y506D01*
X4412Y506D02*
X4419Y506D01*
X4456Y506D02*
X4463Y506D01*
X4715Y506D02*
X4722Y506D01*
X4759Y506D02*
X4766Y506D01*
X5110Y506D02*
X5117Y506D01*
X0Y505D02*
X7Y505D01*
X4412Y505D02*
X4419Y505D01*
X4456Y505D02*
X4463Y505D01*
X4715Y505D02*
X4722Y505D01*
X4759Y505D02*
X4766Y505D01*
X5110Y505D02*
X5117Y505D01*
X0Y504D02*
X7Y504D01*
X4412Y504D02*
X4419Y504D01*
X4456Y504D02*
X4463Y504D01*
X4715Y504D02*
X4722Y504D01*
X4759Y504D02*
X4766Y504D01*
X5110Y504D02*
X5117Y504D01*
X0Y503D02*
X7Y503D01*
X4412Y503D02*
X4419Y503D01*
X4456Y503D02*
X4463Y503D01*
X4715Y503D02*
X4722Y503D01*
X4759Y503D02*
X4766Y503D01*
X5110Y503D02*
X5117Y503D01*
X0Y502D02*
X7Y502D01*
X4412Y502D02*
X4419Y502D01*
X4456Y502D02*
X4463Y502D01*
X4715Y502D02*
X4722Y502D01*
X4759Y502D02*
X4766Y502D01*
X5110Y502D02*
X5117Y502D01*
X0Y501D02*
X7Y501D01*
X4412Y501D02*
X4419Y501D01*
X4456Y501D02*
X4463Y501D01*
X4715Y501D02*
X4722Y501D01*
X4759Y501D02*
X4766Y501D01*
X5110Y501D02*
X5117Y501D01*
X0Y500D02*
X7Y500D01*
X4412Y500D02*
X4419Y500D01*
X4456Y500D02*
X4463Y500D01*
X4715Y500D02*
X4722Y500D01*
X4759Y500D02*
X4766Y500D01*
X5110Y500D02*
X5117Y500D01*
X0Y499D02*
X7Y499D01*
X4412Y499D02*
X4419Y499D01*
X4456Y499D02*
X4463Y499D01*
X4715Y499D02*
X4722Y499D01*
X4759Y499D02*
X4766Y499D01*
X5110Y499D02*
X5117Y499D01*
X0Y498D02*
X7Y498D01*
X4412Y498D02*
X4419Y498D01*
X4456Y498D02*
X4463Y498D01*
X4715Y498D02*
X4722Y498D01*
X4759Y498D02*
X4766Y498D01*
X5110Y498D02*
X5117Y498D01*
X0Y497D02*
X7Y497D01*
X4412Y497D02*
X4419Y497D01*
X4456Y497D02*
X4463Y497D01*
X4715Y497D02*
X4722Y497D01*
X4759Y497D02*
X4766Y497D01*
X5110Y497D02*
X5117Y497D01*
X0Y496D02*
X7Y496D01*
X4412Y496D02*
X4419Y496D01*
X4456Y496D02*
X4463Y496D01*
X4715Y496D02*
X4722Y496D01*
X4759Y496D02*
X4766Y496D01*
X5110Y496D02*
X5117Y496D01*
X0Y495D02*
X7Y495D01*
X4412Y495D02*
X4419Y495D01*
X4456Y495D02*
X4463Y495D01*
X4715Y495D02*
X4722Y495D01*
X4759Y495D02*
X4766Y495D01*
X5110Y495D02*
X5117Y495D01*
X0Y494D02*
X7Y494D01*
X4412Y494D02*
X4419Y494D01*
X4456Y494D02*
X4463Y494D01*
X4715Y494D02*
X4722Y494D01*
X4759Y494D02*
X4766Y494D01*
X5110Y494D02*
X5117Y494D01*
X0Y493D02*
X7Y493D01*
X4412Y493D02*
X4419Y493D01*
X4456Y493D02*
X4463Y493D01*
X4715Y493D02*
X4722Y493D01*
X4759Y493D02*
X4766Y493D01*
X5110Y493D02*
X5117Y493D01*
X0Y492D02*
X7Y492D01*
X4412Y492D02*
X4419Y492D01*
X4456Y492D02*
X4463Y492D01*
X4715Y492D02*
X4722Y492D01*
X4759Y492D02*
X4766Y492D01*
X5110Y492D02*
X5117Y492D01*
X0Y491D02*
X7Y491D01*
X4412Y491D02*
X4419Y491D01*
X4456Y491D02*
X4463Y491D01*
X4715Y491D02*
X4722Y491D01*
X4759Y491D02*
X4766Y491D01*
X5110Y491D02*
X5117Y491D01*
X0Y490D02*
X7Y490D01*
X4412Y490D02*
X4419Y490D01*
X4456Y490D02*
X4463Y490D01*
X4715Y490D02*
X4722Y490D01*
X4759Y490D02*
X4766Y490D01*
X5110Y490D02*
X5117Y490D01*
X0Y489D02*
X7Y489D01*
X4412Y489D02*
X4419Y489D01*
X4456Y489D02*
X4463Y489D01*
X4715Y489D02*
X4722Y489D01*
X4759Y489D02*
X4766Y489D01*
X5110Y489D02*
X5117Y489D01*
X0Y488D02*
X7Y488D01*
X4412Y488D02*
X4419Y488D01*
X4456Y488D02*
X4463Y488D01*
X4715Y488D02*
X4722Y488D01*
X4759Y488D02*
X4766Y488D01*
X5110Y488D02*
X5117Y488D01*
X0Y487D02*
X7Y487D01*
X4412Y487D02*
X4419Y487D01*
X4456Y487D02*
X4463Y487D01*
X4715Y487D02*
X4722Y487D01*
X4759Y487D02*
X4766Y487D01*
X5110Y487D02*
X5117Y487D01*
X0Y486D02*
X7Y486D01*
X4412Y486D02*
X4419Y486D01*
X4456Y486D02*
X4463Y486D01*
X4715Y486D02*
X4722Y486D01*
X4759Y486D02*
X4766Y486D01*
X5110Y486D02*
X5117Y486D01*
X0Y485D02*
X7Y485D01*
X4412Y485D02*
X4419Y485D01*
X4456Y485D02*
X4463Y485D01*
X4715Y485D02*
X4722Y485D01*
X4759Y485D02*
X4766Y485D01*
X5110Y485D02*
X5117Y485D01*
X0Y484D02*
X7Y484D01*
X4412Y484D02*
X4419Y484D01*
X4456Y484D02*
X4463Y484D01*
X4715Y484D02*
X4722Y484D01*
X4759Y484D02*
X4766Y484D01*
X5110Y484D02*
X5117Y484D01*
X0Y483D02*
X7Y483D01*
X4412Y483D02*
X4419Y483D01*
X4456Y483D02*
X4463Y483D01*
X4715Y483D02*
X4722Y483D01*
X4759Y483D02*
X4766Y483D01*
X5110Y483D02*
X5117Y483D01*
X0Y482D02*
X7Y482D01*
X4412Y482D02*
X4419Y482D01*
X4456Y482D02*
X4463Y482D01*
X4715Y482D02*
X4722Y482D01*
X4759Y482D02*
X4766Y482D01*
X5110Y482D02*
X5117Y482D01*
X0Y481D02*
X7Y481D01*
X4412Y481D02*
X4419Y481D01*
X4456Y481D02*
X4463Y481D01*
X4715Y481D02*
X4722Y481D01*
X4759Y481D02*
X4766Y481D01*
X5110Y481D02*
X5117Y481D01*
X0Y480D02*
X7Y480D01*
X4412Y480D02*
X4419Y480D01*
X4456Y480D02*
X4463Y480D01*
X4715Y480D02*
X4722Y480D01*
X4759Y480D02*
X4766Y480D01*
X5110Y480D02*
X5117Y480D01*
X0Y479D02*
X7Y479D01*
X4412Y479D02*
X4419Y479D01*
X4456Y479D02*
X4463Y479D01*
X4715Y479D02*
X4722Y479D01*
X4759Y479D02*
X4766Y479D01*
X5110Y479D02*
X5117Y479D01*
X0Y478D02*
X7Y478D01*
X4412Y478D02*
X4419Y478D01*
X4456Y478D02*
X4463Y478D01*
X4715Y478D02*
X4722Y478D01*
X4759Y478D02*
X4766Y478D01*
X5110Y478D02*
X5117Y478D01*
X0Y477D02*
X7Y477D01*
X4412Y477D02*
X4419Y477D01*
X4456Y477D02*
X4463Y477D01*
X4715Y477D02*
X4722Y477D01*
X4759Y477D02*
X4766Y477D01*
X5110Y477D02*
X5117Y477D01*
X0Y476D02*
X7Y476D01*
X4412Y476D02*
X4419Y476D01*
X4456Y476D02*
X4463Y476D01*
X4715Y476D02*
X4722Y476D01*
X4759Y476D02*
X4766Y476D01*
X5110Y476D02*
X5117Y476D01*
X0Y475D02*
X7Y475D01*
X4412Y475D02*
X4419Y475D01*
X4456Y475D02*
X4463Y475D01*
X4715Y475D02*
X4722Y475D01*
X4759Y475D02*
X4766Y475D01*
X5110Y475D02*
X5117Y475D01*
X0Y474D02*
X7Y474D01*
X4412Y474D02*
X4419Y474D01*
X4456Y474D02*
X4463Y474D01*
X4715Y474D02*
X4722Y474D01*
X4759Y474D02*
X4766Y474D01*
X5110Y474D02*
X5117Y474D01*
X0Y473D02*
X7Y473D01*
X4412Y473D02*
X4419Y473D01*
X4456Y473D02*
X4463Y473D01*
X4715Y473D02*
X4722Y473D01*
X4759Y473D02*
X4766Y473D01*
X5110Y473D02*
X5117Y473D01*
X0Y472D02*
X7Y472D01*
X4412Y472D02*
X4419Y472D01*
X4456Y472D02*
X4463Y472D01*
X4715Y472D02*
X4722Y472D01*
X4759Y472D02*
X4766Y472D01*
X5110Y472D02*
X5117Y472D01*
X0Y471D02*
X7Y471D01*
X4412Y471D02*
X4419Y471D01*
X4456Y471D02*
X4463Y471D01*
X4715Y471D02*
X4722Y471D01*
X4759Y471D02*
X4766Y471D01*
X5110Y471D02*
X5117Y471D01*
X0Y470D02*
X7Y470D01*
X4412Y470D02*
X4419Y470D01*
X4456Y470D02*
X4463Y470D01*
X4715Y470D02*
X4722Y470D01*
X4759Y470D02*
X4766Y470D01*
X5110Y470D02*
X5117Y470D01*
X0Y469D02*
X7Y469D01*
X4412Y469D02*
X4419Y469D01*
X4456Y469D02*
X4463Y469D01*
X4715Y469D02*
X4722Y469D01*
X4759Y469D02*
X4766Y469D01*
X5110Y469D02*
X5117Y469D01*
X0Y468D02*
X7Y468D01*
X4412Y468D02*
X4419Y468D01*
X4456Y468D02*
X4463Y468D01*
X4715Y468D02*
X4722Y468D01*
X4759Y468D02*
X4766Y468D01*
X5110Y468D02*
X5117Y468D01*
X0Y467D02*
X7Y467D01*
X4412Y467D02*
X4419Y467D01*
X4456Y467D02*
X4463Y467D01*
X4715Y467D02*
X4722Y467D01*
X4759Y467D02*
X4766Y467D01*
X5110Y467D02*
X5117Y467D01*
X0Y466D02*
X7Y466D01*
X4412Y466D02*
X4419Y466D01*
X4456Y466D02*
X4463Y466D01*
X4715Y466D02*
X4722Y466D01*
X4759Y466D02*
X4766Y466D01*
X5110Y466D02*
X5117Y466D01*
X0Y465D02*
X7Y465D01*
X4412Y465D02*
X4419Y465D01*
X4456Y465D02*
X4463Y465D01*
X4715Y465D02*
X4722Y465D01*
X4759Y465D02*
X4766Y465D01*
X5110Y465D02*
X5117Y465D01*
X0Y464D02*
X7Y464D01*
X4412Y464D02*
X4419Y464D01*
X4456Y464D02*
X4463Y464D01*
X4715Y464D02*
X4722Y464D01*
X4759Y464D02*
X4766Y464D01*
X5110Y464D02*
X5117Y464D01*
X0Y463D02*
X7Y463D01*
X4412Y463D02*
X4419Y463D01*
X4456Y463D02*
X4463Y463D01*
X4715Y463D02*
X4722Y463D01*
X4759Y463D02*
X4766Y463D01*
X5110Y463D02*
X5117Y463D01*
X0Y462D02*
X7Y462D01*
X4412Y462D02*
X4419Y462D01*
X4456Y462D02*
X4463Y462D01*
X4715Y462D02*
X4722Y462D01*
X4759Y462D02*
X4766Y462D01*
X5110Y462D02*
X5117Y462D01*
X0Y461D02*
X7Y461D01*
X4412Y461D02*
X4419Y461D01*
X4456Y461D02*
X4463Y461D01*
X4715Y461D02*
X4722Y461D01*
X4759Y461D02*
X4766Y461D01*
X5110Y461D02*
X5117Y461D01*
X0Y460D02*
X7Y460D01*
X4412Y460D02*
X4419Y460D01*
X4456Y460D02*
X4463Y460D01*
X4715Y460D02*
X4722Y460D01*
X4759Y460D02*
X4766Y460D01*
X5110Y460D02*
X5117Y460D01*
X0Y459D02*
X7Y459D01*
X4412Y459D02*
X4419Y459D01*
X4456Y459D02*
X4463Y459D01*
X4715Y459D02*
X4722Y459D01*
X4759Y459D02*
X4766Y459D01*
X5110Y459D02*
X5117Y459D01*
X0Y458D02*
X7Y458D01*
X4412Y458D02*
X4419Y458D01*
X4456Y458D02*
X4463Y458D01*
X4715Y458D02*
X4722Y458D01*
X4759Y458D02*
X4766Y458D01*
X5110Y458D02*
X5117Y458D01*
X0Y457D02*
X7Y457D01*
X4412Y457D02*
X4419Y457D01*
X4456Y457D02*
X4463Y457D01*
X4715Y457D02*
X4722Y457D01*
X4759Y457D02*
X4766Y457D01*
X5110Y457D02*
X5117Y457D01*
X0Y456D02*
X7Y456D01*
X4412Y456D02*
X4419Y456D01*
X4456Y456D02*
X4463Y456D01*
X4715Y456D02*
X4722Y456D01*
X4759Y456D02*
X4766Y456D01*
X5110Y456D02*
X5117Y456D01*
X0Y455D02*
X7Y455D01*
X4412Y455D02*
X4419Y455D01*
X4456Y455D02*
X4462Y455D01*
X4715Y455D02*
X4722Y455D01*
X4759Y455D02*
X4766Y455D01*
X5110Y455D02*
X5117Y455D01*
X0Y454D02*
X7Y454D01*
X4412Y454D02*
X4419Y454D01*
X4715Y454D02*
X4722Y454D01*
X4759Y454D02*
X4766Y454D01*
X5110Y454D02*
X5117Y454D01*
X0Y453D02*
X7Y453D01*
X4412Y453D02*
X4419Y453D01*
X4715Y453D02*
X4722Y453D01*
X4759Y453D02*
X4766Y453D01*
X5110Y453D02*
X5117Y453D01*
X0Y452D02*
X7Y452D01*
X4412Y452D02*
X4419Y452D01*
X4715Y452D02*
X4722Y452D01*
X4759Y452D02*
X4766Y452D01*
X5110Y452D02*
X5117Y452D01*
X0Y451D02*
X7Y451D01*
X4412Y451D02*
X4419Y451D01*
X4715Y451D02*
X4722Y451D01*
X4759Y451D02*
X4766Y451D01*
X5110Y451D02*
X5117Y451D01*
X0Y450D02*
X7Y450D01*
X4412Y450D02*
X4419Y450D01*
X4715Y450D02*
X4722Y450D01*
X4759Y450D02*
X4766Y450D01*
X5110Y450D02*
X5117Y450D01*
X0Y449D02*
X7Y449D01*
X4412Y449D02*
X4419Y449D01*
X4715Y449D02*
X4722Y449D01*
X4759Y449D02*
X4766Y449D01*
X5110Y449D02*
X5117Y449D01*
X0Y448D02*
X7Y448D01*
X4412Y448D02*
X4419Y448D01*
X4715Y448D02*
X4722Y448D01*
X4759Y448D02*
X4766Y448D01*
X5110Y448D02*
X5117Y448D01*
X0Y447D02*
X7Y447D01*
X4412Y447D02*
X4419Y447D01*
X4715Y447D02*
X4722Y447D01*
X4759Y447D02*
X4766Y447D01*
X5110Y447D02*
X5117Y447D01*
X0Y446D02*
X7Y446D01*
X4412Y446D02*
X4419Y446D01*
X4715Y446D02*
X4722Y446D01*
X4759Y446D02*
X4766Y446D01*
X5110Y446D02*
X5117Y446D01*
X0Y445D02*
X7Y445D01*
X4412Y445D02*
X4419Y445D01*
X4715Y445D02*
X4722Y445D01*
X4759Y445D02*
X4766Y445D01*
X5110Y445D02*
X5117Y445D01*
X0Y444D02*
X7Y444D01*
X4412Y444D02*
X4419Y444D01*
X4715Y444D02*
X4722Y444D01*
X4759Y444D02*
X4766Y444D01*
X5110Y444D02*
X5117Y444D01*
X0Y443D02*
X7Y443D01*
X4412Y443D02*
X4419Y443D01*
X4715Y443D02*
X4722Y443D01*
X4759Y443D02*
X4766Y443D01*
X5110Y443D02*
X5117Y443D01*
X0Y442D02*
X7Y442D01*
X4412Y442D02*
X4419Y442D01*
X4715Y442D02*
X4722Y442D01*
X4759Y442D02*
X4766Y442D01*
X5110Y442D02*
X5117Y442D01*
X0Y441D02*
X7Y441D01*
X4412Y441D02*
X4419Y441D01*
X4715Y441D02*
X4722Y441D01*
X4759Y441D02*
X4766Y441D01*
X5110Y441D02*
X5117Y441D01*
X0Y440D02*
X7Y440D01*
X4412Y440D02*
X4419Y440D01*
X4715Y440D02*
X4722Y440D01*
X4759Y440D02*
X4766Y440D01*
X5110Y440D02*
X5117Y440D01*
X0Y439D02*
X7Y439D01*
X4412Y439D02*
X4419Y439D01*
X4715Y439D02*
X4722Y439D01*
X4759Y439D02*
X4766Y439D01*
X5110Y439D02*
X5117Y439D01*
X0Y438D02*
X7Y438D01*
X4412Y438D02*
X4419Y438D01*
X4715Y438D02*
X4722Y438D01*
X4759Y438D02*
X4766Y438D01*
X5110Y438D02*
X5117Y438D01*
X0Y437D02*
X7Y437D01*
X4412Y437D02*
X4419Y437D01*
X4715Y437D02*
X4722Y437D01*
X4759Y437D02*
X4766Y437D01*
X5110Y437D02*
X5117Y437D01*
X0Y436D02*
X7Y436D01*
X4412Y436D02*
X4419Y436D01*
X4715Y436D02*
X4722Y436D01*
X4759Y436D02*
X4766Y436D01*
X5110Y436D02*
X5117Y436D01*
X0Y435D02*
X7Y435D01*
X4412Y435D02*
X4419Y435D01*
X4715Y435D02*
X4722Y435D01*
X4759Y435D02*
X4766Y435D01*
X5110Y435D02*
X5117Y435D01*
X0Y434D02*
X7Y434D01*
X4412Y434D02*
X4419Y434D01*
X4715Y434D02*
X4722Y434D01*
X4759Y434D02*
X4766Y434D01*
X5110Y434D02*
X5117Y434D01*
X0Y433D02*
X7Y433D01*
X4412Y433D02*
X4419Y433D01*
X4715Y433D02*
X4722Y433D01*
X4759Y433D02*
X4766Y433D01*
X5110Y433D02*
X5117Y433D01*
X0Y432D02*
X7Y432D01*
X4412Y432D02*
X4419Y432D01*
X4715Y432D02*
X4722Y432D01*
X4759Y432D02*
X4766Y432D01*
X5110Y432D02*
X5117Y432D01*
X0Y431D02*
X7Y431D01*
X4412Y431D02*
X4419Y431D01*
X4715Y431D02*
X4722Y431D01*
X4759Y431D02*
X4766Y431D01*
X5110Y431D02*
X5117Y431D01*
X0Y430D02*
X7Y430D01*
X4412Y430D02*
X4419Y430D01*
X4715Y430D02*
X4722Y430D01*
X4759Y430D02*
X4766Y430D01*
X5110Y430D02*
X5117Y430D01*
X0Y429D02*
X7Y429D01*
X4412Y429D02*
X4419Y429D01*
X4715Y429D02*
X4722Y429D01*
X4759Y429D02*
X4766Y429D01*
X5110Y429D02*
X5117Y429D01*
X0Y428D02*
X7Y428D01*
X4412Y428D02*
X4419Y428D01*
X4715Y428D02*
X4722Y428D01*
X4759Y428D02*
X4766Y428D01*
X5110Y428D02*
X5117Y428D01*
X0Y427D02*
X7Y427D01*
X4412Y427D02*
X4419Y427D01*
X4715Y427D02*
X4722Y427D01*
X4759Y427D02*
X4766Y427D01*
X5110Y427D02*
X5117Y427D01*
X0Y426D02*
X7Y426D01*
X4412Y426D02*
X4419Y426D01*
X4715Y426D02*
X4722Y426D01*
X4759Y426D02*
X4766Y426D01*
X5110Y426D02*
X5117Y426D01*
X0Y425D02*
X7Y425D01*
X4412Y425D02*
X4419Y425D01*
X4715Y425D02*
X4722Y425D01*
X4759Y425D02*
X4766Y425D01*
X5110Y425D02*
X5117Y425D01*
X0Y424D02*
X7Y424D01*
X4412Y424D02*
X4419Y424D01*
X4715Y424D02*
X4722Y424D01*
X4759Y424D02*
X4766Y424D01*
X5110Y424D02*
X5117Y424D01*
X0Y423D02*
X7Y423D01*
X4412Y423D02*
X4419Y423D01*
X4715Y423D02*
X4722Y423D01*
X4759Y423D02*
X4766Y423D01*
X5110Y423D02*
X5117Y423D01*
X0Y422D02*
X7Y422D01*
X4412Y422D02*
X4419Y422D01*
X4715Y422D02*
X4722Y422D01*
X4759Y422D02*
X4766Y422D01*
X5110Y422D02*
X5117Y422D01*
X0Y421D02*
X7Y421D01*
X4412Y421D02*
X4419Y421D01*
X4715Y421D02*
X4722Y421D01*
X4759Y421D02*
X4766Y421D01*
X5110Y421D02*
X5117Y421D01*
X0Y420D02*
X7Y420D01*
X4412Y420D02*
X4419Y420D01*
X4715Y420D02*
X4722Y420D01*
X4759Y420D02*
X4766Y420D01*
X5110Y420D02*
X5117Y420D01*
X0Y419D02*
X7Y419D01*
X4412Y419D02*
X4419Y419D01*
X4715Y419D02*
X4722Y419D01*
X4759Y419D02*
X4766Y419D01*
X5110Y419D02*
X5117Y419D01*
X0Y418D02*
X7Y418D01*
X4412Y418D02*
X4419Y418D01*
X4715Y418D02*
X4722Y418D01*
X4759Y418D02*
X4766Y418D01*
X5110Y418D02*
X5117Y418D01*
X0Y417D02*
X7Y417D01*
X4412Y417D02*
X4419Y417D01*
X4715Y417D02*
X4722Y417D01*
X4759Y417D02*
X4766Y417D01*
X5110Y417D02*
X5117Y417D01*
X0Y416D02*
X7Y416D01*
X4412Y416D02*
X4419Y416D01*
X4715Y416D02*
X4722Y416D01*
X4759Y416D02*
X4766Y416D01*
X5110Y416D02*
X5117Y416D01*
X0Y415D02*
X7Y415D01*
X4412Y415D02*
X4419Y415D01*
X4715Y415D02*
X4722Y415D01*
X4759Y415D02*
X4766Y415D01*
X5110Y415D02*
X5117Y415D01*
X0Y414D02*
X7Y414D01*
X4412Y414D02*
X4419Y414D01*
X4715Y414D02*
X4722Y414D01*
X4759Y414D02*
X4766Y414D01*
X5110Y414D02*
X5117Y414D01*
X0Y413D02*
X7Y413D01*
X4412Y413D02*
X4419Y413D01*
X4715Y413D02*
X4722Y413D01*
X4759Y413D02*
X4766Y413D01*
X5110Y413D02*
X5117Y413D01*
X0Y412D02*
X7Y412D01*
X4412Y412D02*
X4419Y412D01*
X4715Y412D02*
X4722Y412D01*
X4759Y412D02*
X4766Y412D01*
X5110Y412D02*
X5117Y412D01*
X0Y411D02*
X7Y411D01*
X4412Y411D02*
X4419Y411D01*
X4715Y411D02*
X4722Y411D01*
X4759Y411D02*
X4766Y411D01*
X5110Y411D02*
X5117Y411D01*
X0Y410D02*
X7Y410D01*
X4412Y410D02*
X4419Y410D01*
X4715Y410D02*
X4722Y410D01*
X4759Y410D02*
X4766Y410D01*
X5110Y410D02*
X5117Y410D01*
X0Y409D02*
X7Y409D01*
X4412Y409D02*
X4419Y409D01*
X4715Y409D02*
X4722Y409D01*
X4759Y409D02*
X4766Y409D01*
X5110Y409D02*
X5117Y409D01*
X0Y408D02*
X7Y408D01*
X4412Y408D02*
X4419Y408D01*
X4715Y408D02*
X4722Y408D01*
X4759Y408D02*
X4766Y408D01*
X5110Y408D02*
X5117Y408D01*
X0Y407D02*
X7Y407D01*
X4412Y407D02*
X4419Y407D01*
X4715Y407D02*
X4722Y407D01*
X4759Y407D02*
X4766Y407D01*
X5110Y407D02*
X5117Y407D01*
X0Y406D02*
X7Y406D01*
X4412Y406D02*
X4419Y406D01*
X4715Y406D02*
X4722Y406D01*
X4759Y406D02*
X4766Y406D01*
X5110Y406D02*
X5117Y406D01*
X0Y405D02*
X7Y405D01*
X4412Y405D02*
X4419Y405D01*
X4715Y405D02*
X4722Y405D01*
X4759Y405D02*
X4766Y405D01*
X5110Y405D02*
X5117Y405D01*
X0Y404D02*
X7Y404D01*
X4412Y404D02*
X4419Y404D01*
X4715Y404D02*
X4722Y404D01*
X4759Y404D02*
X4766Y404D01*
X5110Y404D02*
X5117Y404D01*
X0Y403D02*
X7Y403D01*
X4412Y403D02*
X4419Y403D01*
X4715Y403D02*
X4722Y403D01*
X4759Y403D02*
X4766Y403D01*
X5110Y403D02*
X5117Y403D01*
X0Y402D02*
X7Y402D01*
X4412Y402D02*
X4419Y402D01*
X4715Y402D02*
X4722Y402D01*
X4759Y402D02*
X4766Y402D01*
X5110Y402D02*
X5117Y402D01*
X0Y401D02*
X7Y401D01*
X4412Y401D02*
X4419Y401D01*
X4715Y401D02*
X4722Y401D01*
X4759Y401D02*
X4766Y401D01*
X5110Y401D02*
X5117Y401D01*
X0Y400D02*
X7Y400D01*
X4412Y400D02*
X4419Y400D01*
X4715Y400D02*
X4722Y400D01*
X4759Y400D02*
X4766Y400D01*
X5110Y400D02*
X5117Y400D01*
X0Y399D02*
X7Y399D01*
X4412Y399D02*
X4419Y399D01*
X4715Y399D02*
X4722Y399D01*
X4759Y399D02*
X4766Y399D01*
X5110Y399D02*
X5117Y399D01*
X0Y398D02*
X7Y398D01*
X4412Y398D02*
X4419Y398D01*
X4715Y398D02*
X4722Y398D01*
X4759Y398D02*
X4766Y398D01*
X5110Y398D02*
X5117Y398D01*
X0Y397D02*
X7Y397D01*
X4412Y397D02*
X4419Y397D01*
X4715Y397D02*
X4722Y397D01*
X4759Y397D02*
X4766Y397D01*
X5110Y397D02*
X5117Y397D01*
X0Y396D02*
X7Y396D01*
X4412Y396D02*
X4419Y396D01*
X4715Y396D02*
X4722Y396D01*
X4759Y396D02*
X4766Y396D01*
X5110Y396D02*
X5117Y396D01*
X0Y395D02*
X7Y395D01*
X4412Y395D02*
X4419Y395D01*
X4715Y395D02*
X4722Y395D01*
X4759Y395D02*
X4766Y395D01*
X5110Y395D02*
X5117Y395D01*
X0Y394D02*
X7Y394D01*
X4412Y394D02*
X4419Y394D01*
X4715Y394D02*
X4722Y394D01*
X4759Y394D02*
X4766Y394D01*
X5110Y394D02*
X5117Y394D01*
X0Y393D02*
X7Y393D01*
X4412Y393D02*
X4419Y393D01*
X4715Y393D02*
X4722Y393D01*
X4759Y393D02*
X4766Y393D01*
X5110Y393D02*
X5117Y393D01*
X0Y392D02*
X7Y392D01*
X4412Y392D02*
X4419Y392D01*
X4715Y392D02*
X4722Y392D01*
X4759Y392D02*
X4766Y392D01*
X5110Y392D02*
X5117Y392D01*
X0Y391D02*
X7Y391D01*
X4412Y391D02*
X4419Y391D01*
X4715Y391D02*
X4722Y391D01*
X4759Y391D02*
X4766Y391D01*
X5110Y391D02*
X5117Y391D01*
X0Y390D02*
X7Y390D01*
X4412Y390D02*
X4419Y390D01*
X4715Y390D02*
X4722Y390D01*
X4759Y390D02*
X4766Y390D01*
X5110Y390D02*
X5117Y390D01*
X0Y389D02*
X7Y389D01*
X4412Y389D02*
X4419Y389D01*
X4715Y389D02*
X4722Y389D01*
X4759Y389D02*
X4766Y389D01*
X5110Y389D02*
X5117Y389D01*
X0Y388D02*
X7Y388D01*
X4412Y388D02*
X4419Y388D01*
X4715Y388D02*
X4722Y388D01*
X4759Y388D02*
X4766Y388D01*
X5110Y388D02*
X5117Y388D01*
X0Y387D02*
X7Y387D01*
X4412Y387D02*
X4419Y387D01*
X4715Y387D02*
X4722Y387D01*
X4759Y387D02*
X4766Y387D01*
X5110Y387D02*
X5117Y387D01*
X0Y386D02*
X7Y386D01*
X4412Y386D02*
X4419Y386D01*
X4715Y386D02*
X4722Y386D01*
X4759Y386D02*
X4766Y386D01*
X5110Y386D02*
X5117Y386D01*
X0Y385D02*
X7Y385D01*
X4412Y385D02*
X4419Y385D01*
X4715Y385D02*
X4722Y385D01*
X4759Y385D02*
X4766Y385D01*
X5110Y385D02*
X5117Y385D01*
X0Y384D02*
X7Y384D01*
X4412Y384D02*
X4419Y384D01*
X4715Y384D02*
X4722Y384D01*
X4759Y384D02*
X4766Y384D01*
X5110Y384D02*
X5117Y384D01*
X0Y383D02*
X7Y383D01*
X4412Y383D02*
X4419Y383D01*
X4715Y383D02*
X4722Y383D01*
X4759Y383D02*
X4766Y383D01*
X5110Y383D02*
X5117Y383D01*
X0Y382D02*
X7Y382D01*
X4412Y382D02*
X4419Y382D01*
X4715Y382D02*
X4722Y382D01*
X4759Y382D02*
X4766Y382D01*
X5110Y382D02*
X5117Y382D01*
X0Y381D02*
X7Y381D01*
X4412Y381D02*
X4419Y381D01*
X4715Y381D02*
X4722Y381D01*
X4759Y381D02*
X4766Y381D01*
X5110Y381D02*
X5117Y381D01*
X0Y380D02*
X7Y380D01*
X4412Y380D02*
X4419Y380D01*
X4715Y380D02*
X4722Y380D01*
X4759Y380D02*
X4766Y380D01*
X5110Y380D02*
X5117Y380D01*
X0Y379D02*
X7Y379D01*
X4412Y379D02*
X4419Y379D01*
X4715Y379D02*
X4722Y379D01*
X4759Y379D02*
X4766Y379D01*
X5110Y379D02*
X5117Y379D01*
X0Y378D02*
X7Y378D01*
X4412Y378D02*
X4419Y378D01*
X4715Y378D02*
X4722Y378D01*
X4759Y378D02*
X4766Y378D01*
X5110Y378D02*
X5117Y378D01*
X0Y377D02*
X7Y377D01*
X4412Y377D02*
X4419Y377D01*
X4715Y377D02*
X4722Y377D01*
X4759Y377D02*
X4766Y377D01*
X5110Y377D02*
X5117Y377D01*
X0Y376D02*
X7Y376D01*
X4412Y376D02*
X4419Y376D01*
X4715Y376D02*
X4722Y376D01*
X4759Y376D02*
X4766Y376D01*
X5110Y376D02*
X5117Y376D01*
X0Y375D02*
X7Y375D01*
X4412Y375D02*
X4419Y375D01*
X4715Y375D02*
X4722Y375D01*
X4759Y375D02*
X4766Y375D01*
X5110Y375D02*
X5117Y375D01*
X0Y374D02*
X7Y374D01*
X4412Y374D02*
X4419Y374D01*
X4715Y374D02*
X4722Y374D01*
X4759Y374D02*
X4766Y374D01*
X5110Y374D02*
X5117Y374D01*
X0Y373D02*
X7Y373D01*
X4412Y373D02*
X4419Y373D01*
X4715Y373D02*
X4722Y373D01*
X4759Y373D02*
X4766Y373D01*
X5110Y373D02*
X5117Y373D01*
X0Y372D02*
X7Y372D01*
X4412Y372D02*
X4419Y372D01*
X4715Y372D02*
X4722Y372D01*
X4759Y372D02*
X4766Y372D01*
X5110Y372D02*
X5117Y372D01*
X0Y371D02*
X7Y371D01*
X4412Y371D02*
X4419Y371D01*
X4715Y371D02*
X4722Y371D01*
X4759Y371D02*
X4766Y371D01*
X5110Y371D02*
X5117Y371D01*
X0Y370D02*
X7Y370D01*
X4412Y370D02*
X4419Y370D01*
X4715Y370D02*
X4722Y370D01*
X4759Y370D02*
X4766Y370D01*
X5110Y370D02*
X5117Y370D01*
X0Y369D02*
X7Y369D01*
X4412Y369D02*
X4419Y369D01*
X4715Y369D02*
X4722Y369D01*
X4759Y369D02*
X4766Y369D01*
X5110Y369D02*
X5117Y369D01*
X0Y368D02*
X7Y368D01*
X4412Y368D02*
X4419Y368D01*
X4715Y368D02*
X4722Y368D01*
X4759Y368D02*
X4766Y368D01*
X5110Y368D02*
X5117Y368D01*
X0Y367D02*
X7Y367D01*
X4412Y367D02*
X4419Y367D01*
X4715Y367D02*
X4722Y367D01*
X4759Y367D02*
X4766Y367D01*
X5110Y367D02*
X5117Y367D01*
X0Y366D02*
X7Y366D01*
X4412Y366D02*
X4419Y366D01*
X4715Y366D02*
X4722Y366D01*
X4759Y366D02*
X4766Y366D01*
X5110Y366D02*
X5117Y366D01*
X0Y365D02*
X7Y365D01*
X4412Y365D02*
X4419Y365D01*
X4715Y365D02*
X4722Y365D01*
X4759Y365D02*
X4766Y365D01*
X5110Y365D02*
X5117Y365D01*
X0Y364D02*
X7Y364D01*
X4412Y364D02*
X4419Y364D01*
X4715Y364D02*
X4722Y364D01*
X4759Y364D02*
X4766Y364D01*
X5110Y364D02*
X5117Y364D01*
X0Y363D02*
X7Y363D01*
X4412Y363D02*
X4419Y363D01*
X4715Y363D02*
X4722Y363D01*
X4759Y363D02*
X4766Y363D01*
X5110Y363D02*
X5117Y363D01*
X0Y362D02*
X7Y362D01*
X4412Y362D02*
X4419Y362D01*
X4715Y362D02*
X4722Y362D01*
X4759Y362D02*
X4766Y362D01*
X5110Y362D02*
X5117Y362D01*
X0Y361D02*
X7Y361D01*
X4412Y361D02*
X4419Y361D01*
X4715Y361D02*
X4722Y361D01*
X4759Y361D02*
X4766Y361D01*
X5110Y361D02*
X5117Y361D01*
X0Y360D02*
X7Y360D01*
X4412Y360D02*
X4419Y360D01*
X4715Y360D02*
X4722Y360D01*
X4759Y360D02*
X4766Y360D01*
X5110Y360D02*
X5117Y360D01*
X0Y359D02*
X7Y359D01*
X4412Y359D02*
X4419Y359D01*
X4715Y359D02*
X4722Y359D01*
X4759Y359D02*
X4766Y359D01*
X5110Y359D02*
X5117Y359D01*
X0Y358D02*
X7Y358D01*
X4412Y358D02*
X4419Y358D01*
X4715Y358D02*
X4722Y358D01*
X4759Y358D02*
X4766Y358D01*
X5110Y358D02*
X5117Y358D01*
X0Y357D02*
X7Y357D01*
X4412Y357D02*
X4419Y357D01*
X4715Y357D02*
X4722Y357D01*
X4759Y357D02*
X4766Y357D01*
X5110Y357D02*
X5117Y357D01*
X0Y356D02*
X7Y356D01*
X4412Y356D02*
X4419Y356D01*
X4715Y356D02*
X4722Y356D01*
X4759Y356D02*
X4766Y356D01*
X5110Y356D02*
X5117Y356D01*
X0Y355D02*
X7Y355D01*
X4412Y355D02*
X4419Y355D01*
X4715Y355D02*
X4722Y355D01*
X4759Y355D02*
X4766Y355D01*
X5110Y355D02*
X5117Y355D01*
X0Y354D02*
X7Y354D01*
X4412Y354D02*
X4419Y354D01*
X4715Y354D02*
X4722Y354D01*
X4759Y354D02*
X4766Y354D01*
X5110Y354D02*
X5117Y354D01*
X0Y353D02*
X7Y353D01*
X4412Y353D02*
X4419Y353D01*
X4715Y353D02*
X4722Y353D01*
X4759Y353D02*
X4766Y353D01*
X5110Y353D02*
X5117Y353D01*
X0Y352D02*
X7Y352D01*
X4412Y352D02*
X4419Y352D01*
X4715Y352D02*
X4722Y352D01*
X4759Y352D02*
X4766Y352D01*
X5110Y352D02*
X5117Y352D01*
X0Y351D02*
X7Y351D01*
X4412Y351D02*
X4419Y351D01*
X4715Y351D02*
X4722Y351D01*
X4759Y351D02*
X4766Y351D01*
X5110Y351D02*
X5117Y351D01*
X0Y350D02*
X7Y350D01*
X4412Y350D02*
X4419Y350D01*
X4715Y350D02*
X4722Y350D01*
X4759Y350D02*
X4766Y350D01*
X5110Y350D02*
X5117Y350D01*
X0Y349D02*
X7Y349D01*
X4412Y349D02*
X4419Y349D01*
X4715Y349D02*
X4722Y349D01*
X4759Y349D02*
X4766Y349D01*
X5110Y349D02*
X5117Y349D01*
X0Y348D02*
X7Y348D01*
X4412Y348D02*
X4419Y348D01*
X4715Y348D02*
X4722Y348D01*
X4759Y348D02*
X4766Y348D01*
X5110Y348D02*
X5117Y348D01*
X0Y347D02*
X7Y347D01*
X4412Y347D02*
X4419Y347D01*
X4715Y347D02*
X4722Y347D01*
X4759Y347D02*
X4766Y347D01*
X5110Y347D02*
X5117Y347D01*
X0Y346D02*
X7Y346D01*
X4412Y346D02*
X4419Y346D01*
X4715Y346D02*
X4722Y346D01*
X4759Y346D02*
X4766Y346D01*
X5110Y346D02*
X5117Y346D01*
X0Y345D02*
X7Y345D01*
X4412Y345D02*
X4419Y345D01*
X4715Y345D02*
X4722Y345D01*
X4759Y345D02*
X4766Y345D01*
X5110Y345D02*
X5117Y345D01*
X0Y344D02*
X7Y344D01*
X4412Y344D02*
X4419Y344D01*
X4715Y344D02*
X4722Y344D01*
X4759Y344D02*
X4766Y344D01*
X5110Y344D02*
X5117Y344D01*
X0Y343D02*
X7Y343D01*
X4412Y343D02*
X4419Y343D01*
X4715Y343D02*
X4722Y343D01*
X4759Y343D02*
X4766Y343D01*
X5110Y343D02*
X5117Y343D01*
X0Y342D02*
X7Y342D01*
X4412Y342D02*
X4419Y342D01*
X4715Y342D02*
X4722Y342D01*
X4759Y342D02*
X4766Y342D01*
X5110Y342D02*
X5117Y342D01*
X0Y341D02*
X7Y341D01*
X4412Y341D02*
X4419Y341D01*
X4715Y341D02*
X4722Y341D01*
X4759Y341D02*
X4766Y341D01*
X5110Y341D02*
X5117Y341D01*
X0Y340D02*
X7Y340D01*
X4412Y340D02*
X4419Y340D01*
X4715Y340D02*
X4722Y340D01*
X4759Y340D02*
X4766Y340D01*
X5110Y340D02*
X5117Y340D01*
X0Y339D02*
X7Y339D01*
X4412Y339D02*
X4419Y339D01*
X4715Y339D02*
X4722Y339D01*
X4759Y339D02*
X4766Y339D01*
X5110Y339D02*
X5117Y339D01*
X0Y338D02*
X7Y338D01*
X4412Y338D02*
X4419Y338D01*
X4715Y338D02*
X4722Y338D01*
X4759Y338D02*
X4766Y338D01*
X5110Y338D02*
X5117Y338D01*
X0Y337D02*
X7Y337D01*
X4412Y337D02*
X4419Y337D01*
X4715Y337D02*
X4722Y337D01*
X4759Y337D02*
X4766Y337D01*
X5110Y337D02*
X5117Y337D01*
X0Y336D02*
X7Y336D01*
X4412Y336D02*
X4419Y336D01*
X4715Y336D02*
X4722Y336D01*
X4759Y336D02*
X4766Y336D01*
X5110Y336D02*
X5117Y336D01*
X0Y335D02*
X7Y335D01*
X4412Y335D02*
X4419Y335D01*
X4715Y335D02*
X4722Y335D01*
X4759Y335D02*
X4766Y335D01*
X5110Y335D02*
X5117Y335D01*
X0Y334D02*
X7Y334D01*
X4412Y334D02*
X4419Y334D01*
X4715Y334D02*
X4722Y334D01*
X4759Y334D02*
X4766Y334D01*
X5110Y334D02*
X5117Y334D01*
X0Y333D02*
X7Y333D01*
X4412Y333D02*
X4419Y333D01*
X4715Y333D02*
X4722Y333D01*
X4759Y333D02*
X4766Y333D01*
X5110Y333D02*
X5117Y333D01*
X0Y332D02*
X7Y332D01*
X4412Y332D02*
X4419Y332D01*
X4715Y332D02*
X4722Y332D01*
X4759Y332D02*
X4766Y332D01*
X5110Y332D02*
X5117Y332D01*
X0Y331D02*
X7Y331D01*
X4412Y331D02*
X4419Y331D01*
X4715Y331D02*
X4722Y331D01*
X4759Y331D02*
X4766Y331D01*
X5110Y331D02*
X5117Y331D01*
X0Y330D02*
X7Y330D01*
X4412Y330D02*
X4419Y330D01*
X4715Y330D02*
X4722Y330D01*
X4759Y330D02*
X4766Y330D01*
X5110Y330D02*
X5117Y330D01*
X0Y329D02*
X7Y329D01*
X4412Y329D02*
X4419Y329D01*
X4715Y329D02*
X4722Y329D01*
X4759Y329D02*
X4766Y329D01*
X5110Y329D02*
X5117Y329D01*
X0Y328D02*
X7Y328D01*
X4412Y328D02*
X4419Y328D01*
X4715Y328D02*
X4722Y328D01*
X4759Y328D02*
X4766Y328D01*
X5110Y328D02*
X5117Y328D01*
X0Y327D02*
X7Y327D01*
X4412Y327D02*
X4419Y327D01*
X4715Y327D02*
X4722Y327D01*
X4759Y327D02*
X4766Y327D01*
X5110Y327D02*
X5117Y327D01*
X0Y326D02*
X7Y326D01*
X4412Y326D02*
X4419Y326D01*
X4715Y326D02*
X4722Y326D01*
X4759Y326D02*
X4766Y326D01*
X5110Y326D02*
X5117Y326D01*
X0Y325D02*
X7Y325D01*
X4412Y325D02*
X4419Y325D01*
X4715Y325D02*
X4722Y325D01*
X4759Y325D02*
X4766Y325D01*
X5110Y325D02*
X5117Y325D01*
X0Y324D02*
X7Y324D01*
X4412Y324D02*
X4419Y324D01*
X4715Y324D02*
X4722Y324D01*
X4759Y324D02*
X4766Y324D01*
X5110Y324D02*
X5117Y324D01*
X0Y323D02*
X7Y323D01*
X4412Y323D02*
X4419Y323D01*
X4715Y323D02*
X4722Y323D01*
X4759Y323D02*
X4766Y323D01*
X5110Y323D02*
X5117Y323D01*
X0Y322D02*
X7Y322D01*
X4412Y322D02*
X4419Y322D01*
X4715Y322D02*
X4722Y322D01*
X4759Y322D02*
X4766Y322D01*
X5110Y322D02*
X5117Y322D01*
X0Y321D02*
X7Y321D01*
X4412Y321D02*
X4419Y321D01*
X4715Y321D02*
X4722Y321D01*
X4759Y321D02*
X4766Y321D01*
X5110Y321D02*
X5117Y321D01*
X0Y320D02*
X7Y320D01*
X4412Y320D02*
X4419Y320D01*
X4715Y320D02*
X4722Y320D01*
X4759Y320D02*
X4766Y320D01*
X5110Y320D02*
X5117Y320D01*
X0Y319D02*
X7Y319D01*
X4412Y319D02*
X4419Y319D01*
X4715Y319D02*
X4722Y319D01*
X4759Y319D02*
X4766Y319D01*
X5110Y319D02*
X5117Y319D01*
X0Y318D02*
X7Y318D01*
X4412Y318D02*
X4419Y318D01*
X4715Y318D02*
X4722Y318D01*
X4759Y318D02*
X4766Y318D01*
X5110Y318D02*
X5117Y318D01*
X0Y317D02*
X7Y317D01*
X4412Y317D02*
X4419Y317D01*
X4715Y317D02*
X4722Y317D01*
X4759Y317D02*
X4766Y317D01*
X5110Y317D02*
X5117Y317D01*
X0Y316D02*
X7Y316D01*
X4412Y316D02*
X4419Y316D01*
X4715Y316D02*
X4722Y316D01*
X4759Y316D02*
X4766Y316D01*
X5110Y316D02*
X5117Y316D01*
X0Y315D02*
X7Y315D01*
X4412Y315D02*
X4419Y315D01*
X4715Y315D02*
X4722Y315D01*
X4759Y315D02*
X4766Y315D01*
X5110Y315D02*
X5117Y315D01*
X0Y314D02*
X7Y314D01*
X4412Y314D02*
X4419Y314D01*
X4715Y314D02*
X4722Y314D01*
X4759Y314D02*
X4766Y314D01*
X5110Y314D02*
X5117Y314D01*
X0Y313D02*
X7Y313D01*
X4412Y313D02*
X4419Y313D01*
X4715Y313D02*
X4722Y313D01*
X4759Y313D02*
X4766Y313D01*
X5110Y313D02*
X5117Y313D01*
X0Y312D02*
X7Y312D01*
X4412Y312D02*
X4419Y312D01*
X4715Y312D02*
X4722Y312D01*
X4759Y312D02*
X4766Y312D01*
X5110Y312D02*
X5117Y312D01*
X0Y311D02*
X7Y311D01*
X4412Y311D02*
X4419Y311D01*
X4715Y311D02*
X4722Y311D01*
X4759Y311D02*
X4766Y311D01*
X5110Y311D02*
X5117Y311D01*
X0Y310D02*
X7Y310D01*
X4412Y310D02*
X4419Y310D01*
X4715Y310D02*
X4722Y310D01*
X4759Y310D02*
X4766Y310D01*
X5110Y310D02*
X5117Y310D01*
X0Y309D02*
X7Y309D01*
X4412Y309D02*
X4419Y309D01*
X4715Y309D02*
X4722Y309D01*
X4759Y309D02*
X4766Y309D01*
X5110Y309D02*
X5117Y309D01*
X0Y308D02*
X7Y308D01*
X4412Y308D02*
X4419Y308D01*
X4715Y308D02*
X4722Y308D01*
X4759Y308D02*
X4766Y308D01*
X5110Y308D02*
X5117Y308D01*
X0Y307D02*
X7Y307D01*
X4412Y307D02*
X4419Y307D01*
X4715Y307D02*
X4722Y307D01*
X4759Y307D02*
X4766Y307D01*
X5110Y307D02*
X5117Y307D01*
X0Y306D02*
X7Y306D01*
X4412Y306D02*
X4419Y306D01*
X4715Y306D02*
X4722Y306D01*
X4759Y306D02*
X4766Y306D01*
X5110Y306D02*
X5117Y306D01*
X0Y305D02*
X7Y305D01*
X4412Y305D02*
X4419Y305D01*
X4715Y305D02*
X4722Y305D01*
X4759Y305D02*
X4766Y305D01*
X5110Y305D02*
X5117Y305D01*
X0Y304D02*
X7Y304D01*
X4412Y304D02*
X4419Y304D01*
X4715Y304D02*
X4722Y304D01*
X4759Y304D02*
X4766Y304D01*
X5110Y304D02*
X5117Y304D01*
X0Y303D02*
X7Y303D01*
X4412Y303D02*
X4419Y303D01*
X4715Y303D02*
X4722Y303D01*
X4759Y303D02*
X4766Y303D01*
X5110Y303D02*
X5117Y303D01*
X0Y302D02*
X7Y302D01*
X4412Y302D02*
X4419Y302D01*
X4715Y302D02*
X4722Y302D01*
X4759Y302D02*
X4766Y302D01*
X5110Y302D02*
X5117Y302D01*
X0Y301D02*
X7Y301D01*
X4412Y301D02*
X4419Y301D01*
X4715Y301D02*
X4722Y301D01*
X4759Y301D02*
X4766Y301D01*
X5110Y301D02*
X5117Y301D01*
X0Y300D02*
X7Y300D01*
X4412Y300D02*
X4419Y300D01*
X4715Y300D02*
X4722Y300D01*
X4759Y300D02*
X4766Y300D01*
X5110Y300D02*
X5117Y300D01*
X0Y299D02*
X7Y299D01*
X4412Y299D02*
X4419Y299D01*
X4715Y299D02*
X4722Y299D01*
X4759Y299D02*
X4766Y299D01*
X5110Y299D02*
X5117Y299D01*
X0Y298D02*
X7Y298D01*
X4412Y298D02*
X4419Y298D01*
X4715Y298D02*
X4722Y298D01*
X4759Y298D02*
X4766Y298D01*
X5110Y298D02*
X5117Y298D01*
X0Y297D02*
X7Y297D01*
X4412Y297D02*
X4419Y297D01*
X4715Y297D02*
X4722Y297D01*
X4759Y297D02*
X4766Y297D01*
X5110Y297D02*
X5117Y297D01*
X0Y296D02*
X7Y296D01*
X4412Y296D02*
X4419Y296D01*
X4715Y296D02*
X4722Y296D01*
X4759Y296D02*
X4766Y296D01*
X5110Y296D02*
X5117Y296D01*
X0Y295D02*
X7Y295D01*
X4412Y295D02*
X4419Y295D01*
X4715Y295D02*
X4722Y295D01*
X4759Y295D02*
X4766Y295D01*
X5110Y295D02*
X5117Y295D01*
X0Y294D02*
X7Y294D01*
X4412Y294D02*
X4419Y294D01*
X4715Y294D02*
X4722Y294D01*
X4759Y294D02*
X4766Y294D01*
X5110Y294D02*
X5117Y294D01*
X0Y293D02*
X7Y293D01*
X4412Y293D02*
X4419Y293D01*
X4715Y293D02*
X4722Y293D01*
X4759Y293D02*
X4766Y293D01*
X5110Y293D02*
X5117Y293D01*
X0Y292D02*
X7Y292D01*
X4412Y292D02*
X4419Y292D01*
X4715Y292D02*
X4722Y292D01*
X4759Y292D02*
X4766Y292D01*
X5110Y292D02*
X5117Y292D01*
X0Y291D02*
X7Y291D01*
X4412Y291D02*
X4419Y291D01*
X4715Y291D02*
X4722Y291D01*
X4759Y291D02*
X4766Y291D01*
X5110Y291D02*
X5117Y291D01*
X0Y290D02*
X7Y290D01*
X4412Y290D02*
X4419Y290D01*
X4715Y290D02*
X4722Y290D01*
X4759Y290D02*
X4766Y290D01*
X5110Y290D02*
X5117Y290D01*
X0Y289D02*
X7Y289D01*
X4412Y289D02*
X4419Y289D01*
X4715Y289D02*
X4722Y289D01*
X4759Y289D02*
X4766Y289D01*
X5110Y289D02*
X5117Y289D01*
X0Y288D02*
X7Y288D01*
X4412Y288D02*
X4419Y288D01*
X4715Y288D02*
X4722Y288D01*
X4759Y288D02*
X4766Y288D01*
X5110Y288D02*
X5117Y288D01*
X0Y287D02*
X7Y287D01*
X4412Y287D02*
X4419Y287D01*
X4715Y287D02*
X4722Y287D01*
X4759Y287D02*
X4766Y287D01*
X5110Y287D02*
X5117Y287D01*
X0Y286D02*
X7Y286D01*
X4412Y286D02*
X4419Y286D01*
X4715Y286D02*
X4722Y286D01*
X4759Y286D02*
X4766Y286D01*
X5110Y286D02*
X5117Y286D01*
X0Y285D02*
X7Y285D01*
X4412Y285D02*
X4419Y285D01*
X4715Y285D02*
X4722Y285D01*
X4759Y285D02*
X4766Y285D01*
X5110Y285D02*
X5117Y285D01*
X0Y284D02*
X7Y284D01*
X4412Y284D02*
X4419Y284D01*
X4715Y284D02*
X4722Y284D01*
X4759Y284D02*
X4766Y284D01*
X5110Y284D02*
X5117Y284D01*
X0Y283D02*
X7Y283D01*
X4412Y283D02*
X4419Y283D01*
X4715Y283D02*
X4722Y283D01*
X4759Y283D02*
X4766Y283D01*
X5110Y283D02*
X5117Y283D01*
X0Y282D02*
X7Y282D01*
X4412Y282D02*
X4419Y282D01*
X4456Y282D02*
X4463Y282D01*
X4715Y282D02*
X4722Y282D01*
X4759Y282D02*
X4766Y282D01*
X5110Y282D02*
X5117Y282D01*
X0Y281D02*
X7Y281D01*
X4412Y281D02*
X4419Y281D01*
X4456Y281D02*
X4463Y281D01*
X4715Y281D02*
X4722Y281D01*
X4759Y281D02*
X4766Y281D01*
X5110Y281D02*
X5117Y281D01*
X0Y280D02*
X7Y280D01*
X4412Y280D02*
X4419Y280D01*
X4456Y280D02*
X4463Y280D01*
X4715Y280D02*
X4722Y280D01*
X4759Y280D02*
X4766Y280D01*
X5110Y280D02*
X5117Y280D01*
X0Y279D02*
X7Y279D01*
X4412Y279D02*
X4419Y279D01*
X4456Y279D02*
X4463Y279D01*
X4715Y279D02*
X4722Y279D01*
X4759Y279D02*
X4766Y279D01*
X5110Y279D02*
X5117Y279D01*
X0Y278D02*
X7Y278D01*
X4412Y278D02*
X4419Y278D01*
X4456Y278D02*
X4463Y278D01*
X4715Y278D02*
X4722Y278D01*
X4759Y278D02*
X4766Y278D01*
X5110Y278D02*
X5117Y278D01*
X0Y277D02*
X7Y277D01*
X4412Y277D02*
X4419Y277D01*
X4456Y277D02*
X4463Y277D01*
X4715Y277D02*
X4722Y277D01*
X4759Y277D02*
X4766Y277D01*
X5110Y277D02*
X5117Y277D01*
X0Y276D02*
X7Y276D01*
X4412Y276D02*
X4419Y276D01*
X4456Y276D02*
X4463Y276D01*
X4715Y276D02*
X4722Y276D01*
X4759Y276D02*
X4766Y276D01*
X5110Y276D02*
X5117Y276D01*
X0Y275D02*
X7Y275D01*
X4412Y275D02*
X4419Y275D01*
X4456Y275D02*
X4463Y275D01*
X4715Y275D02*
X4722Y275D01*
X4759Y275D02*
X4766Y275D01*
X5110Y275D02*
X5117Y275D01*
X0Y274D02*
X7Y274D01*
X4412Y274D02*
X4419Y274D01*
X4456Y274D02*
X4463Y274D01*
X4715Y274D02*
X4722Y274D01*
X4759Y274D02*
X4766Y274D01*
X5110Y274D02*
X5117Y274D01*
X0Y273D02*
X7Y273D01*
X4412Y273D02*
X4419Y273D01*
X4456Y273D02*
X4463Y273D01*
X4715Y273D02*
X4722Y273D01*
X4759Y273D02*
X4766Y273D01*
X5110Y273D02*
X5117Y273D01*
X0Y272D02*
X7Y272D01*
X4412Y272D02*
X4419Y272D01*
X4456Y272D02*
X4463Y272D01*
X4715Y272D02*
X4722Y272D01*
X4759Y272D02*
X4766Y272D01*
X5110Y272D02*
X5117Y272D01*
X0Y271D02*
X7Y271D01*
X4412Y271D02*
X4419Y271D01*
X4456Y271D02*
X4463Y271D01*
X4715Y271D02*
X4722Y271D01*
X4759Y271D02*
X4766Y271D01*
X5110Y271D02*
X5117Y271D01*
X0Y270D02*
X7Y270D01*
X4412Y270D02*
X4419Y270D01*
X4456Y270D02*
X4463Y270D01*
X4715Y270D02*
X4722Y270D01*
X4759Y270D02*
X4766Y270D01*
X5110Y270D02*
X5117Y270D01*
X0Y269D02*
X7Y269D01*
X4412Y269D02*
X4419Y269D01*
X4456Y269D02*
X4463Y269D01*
X4715Y269D02*
X4722Y269D01*
X4759Y269D02*
X4766Y269D01*
X5110Y269D02*
X5117Y269D01*
X0Y268D02*
X7Y268D01*
X4412Y268D02*
X4419Y268D01*
X4456Y268D02*
X4463Y268D01*
X4715Y268D02*
X4722Y268D01*
X4759Y268D02*
X4766Y268D01*
X5110Y268D02*
X5117Y268D01*
X0Y267D02*
X7Y267D01*
X4412Y267D02*
X4419Y267D01*
X4456Y267D02*
X4463Y267D01*
X4715Y267D02*
X4722Y267D01*
X4759Y267D02*
X4766Y267D01*
X5110Y267D02*
X5117Y267D01*
X0Y266D02*
X7Y266D01*
X4412Y266D02*
X4419Y266D01*
X4456Y266D02*
X4463Y266D01*
X4715Y266D02*
X4722Y266D01*
X4759Y266D02*
X4766Y266D01*
X5110Y266D02*
X5117Y266D01*
X0Y265D02*
X7Y265D01*
X4412Y265D02*
X4419Y265D01*
X4456Y265D02*
X4463Y265D01*
X4715Y265D02*
X4722Y265D01*
X4759Y265D02*
X4766Y265D01*
X5110Y265D02*
X5117Y265D01*
X0Y264D02*
X7Y264D01*
X4412Y264D02*
X4419Y264D01*
X4456Y264D02*
X4463Y264D01*
X4715Y264D02*
X4722Y264D01*
X4759Y264D02*
X4766Y264D01*
X5110Y264D02*
X5117Y264D01*
X0Y263D02*
X7Y263D01*
X4412Y263D02*
X4419Y263D01*
X4456Y263D02*
X4463Y263D01*
X4715Y263D02*
X4722Y263D01*
X4759Y263D02*
X4766Y263D01*
X5110Y263D02*
X5117Y263D01*
X0Y262D02*
X7Y262D01*
X4412Y262D02*
X4419Y262D01*
X4456Y262D02*
X4463Y262D01*
X4715Y262D02*
X4722Y262D01*
X4759Y262D02*
X4766Y262D01*
X5110Y262D02*
X5117Y262D01*
X0Y261D02*
X7Y261D01*
X4412Y261D02*
X4419Y261D01*
X4456Y261D02*
X4463Y261D01*
X4715Y261D02*
X4722Y261D01*
X4759Y261D02*
X4766Y261D01*
X5110Y261D02*
X5117Y261D01*
X0Y260D02*
X7Y260D01*
X4412Y260D02*
X4419Y260D01*
X4456Y260D02*
X4463Y260D01*
X4715Y260D02*
X4722Y260D01*
X4759Y260D02*
X4766Y260D01*
X5110Y260D02*
X5117Y260D01*
X0Y259D02*
X7Y259D01*
X4412Y259D02*
X4419Y259D01*
X4456Y259D02*
X4463Y259D01*
X4715Y259D02*
X4722Y259D01*
X4759Y259D02*
X4766Y259D01*
X5110Y259D02*
X5117Y259D01*
X0Y258D02*
X7Y258D01*
X4412Y258D02*
X4419Y258D01*
X4456Y258D02*
X4463Y258D01*
X4715Y258D02*
X4722Y258D01*
X4759Y258D02*
X4766Y258D01*
X5110Y258D02*
X5117Y258D01*
X0Y257D02*
X7Y257D01*
X4412Y257D02*
X4419Y257D01*
X4456Y257D02*
X4463Y257D01*
X4715Y257D02*
X4722Y257D01*
X4759Y257D02*
X4766Y257D01*
X5110Y257D02*
X5117Y257D01*
X0Y256D02*
X7Y256D01*
X4412Y256D02*
X4419Y256D01*
X4456Y256D02*
X4463Y256D01*
X4715Y256D02*
X4722Y256D01*
X4759Y256D02*
X4766Y256D01*
X5110Y256D02*
X5117Y256D01*
X0Y255D02*
X7Y255D01*
X4412Y255D02*
X4419Y255D01*
X4456Y255D02*
X4463Y255D01*
X4715Y255D02*
X4722Y255D01*
X4759Y255D02*
X4766Y255D01*
X5110Y255D02*
X5117Y255D01*
X0Y254D02*
X7Y254D01*
X4412Y254D02*
X4419Y254D01*
X4456Y254D02*
X4463Y254D01*
X4715Y254D02*
X4722Y254D01*
X4759Y254D02*
X4766Y254D01*
X5110Y254D02*
X5117Y254D01*
X0Y253D02*
X7Y253D01*
X4412Y253D02*
X4419Y253D01*
X4456Y253D02*
X4463Y253D01*
X4715Y253D02*
X4722Y253D01*
X4759Y253D02*
X4766Y253D01*
X5110Y253D02*
X5117Y253D01*
X0Y252D02*
X7Y252D01*
X4412Y252D02*
X4419Y252D01*
X4456Y252D02*
X4463Y252D01*
X4715Y252D02*
X4722Y252D01*
X4759Y252D02*
X4766Y252D01*
X5110Y252D02*
X5117Y252D01*
X0Y251D02*
X7Y251D01*
X4412Y251D02*
X4419Y251D01*
X4456Y251D02*
X4463Y251D01*
X4715Y251D02*
X4722Y251D01*
X4759Y251D02*
X4766Y251D01*
X5110Y251D02*
X5117Y251D01*
X0Y250D02*
X7Y250D01*
X4412Y250D02*
X4419Y250D01*
X4456Y250D02*
X4463Y250D01*
X4715Y250D02*
X4722Y250D01*
X4759Y250D02*
X4766Y250D01*
X5110Y250D02*
X5117Y250D01*
X0Y249D02*
X7Y249D01*
X4412Y249D02*
X4419Y249D01*
X4456Y249D02*
X4463Y249D01*
X4715Y249D02*
X4722Y249D01*
X4759Y249D02*
X4766Y249D01*
X5110Y249D02*
X5117Y249D01*
X0Y248D02*
X7Y248D01*
X4412Y248D02*
X4419Y248D01*
X4456Y248D02*
X4463Y248D01*
X4715Y248D02*
X4722Y248D01*
X4759Y248D02*
X4766Y248D01*
X5110Y248D02*
X5117Y248D01*
X0Y247D02*
X7Y247D01*
X4412Y247D02*
X4419Y247D01*
X4456Y247D02*
X4463Y247D01*
X4715Y247D02*
X4722Y247D01*
X4759Y247D02*
X4766Y247D01*
X5110Y247D02*
X5117Y247D01*
X0Y246D02*
X7Y246D01*
X4412Y246D02*
X4419Y246D01*
X4456Y246D02*
X4463Y246D01*
X4715Y246D02*
X4722Y246D01*
X4759Y246D02*
X4766Y246D01*
X5110Y246D02*
X5117Y246D01*
X0Y245D02*
X7Y245D01*
X4412Y245D02*
X4419Y245D01*
X4456Y245D02*
X4463Y245D01*
X4715Y245D02*
X4722Y245D01*
X4759Y245D02*
X4766Y245D01*
X5110Y245D02*
X5117Y245D01*
X0Y244D02*
X7Y244D01*
X4412Y244D02*
X4419Y244D01*
X4456Y244D02*
X4463Y244D01*
X4715Y244D02*
X4722Y244D01*
X4759Y244D02*
X4766Y244D01*
X5110Y244D02*
X5117Y244D01*
X0Y243D02*
X7Y243D01*
X4412Y243D02*
X4419Y243D01*
X4456Y243D02*
X4463Y243D01*
X4715Y243D02*
X4722Y243D01*
X4759Y243D02*
X4766Y243D01*
X5110Y243D02*
X5117Y243D01*
X0Y242D02*
X7Y242D01*
X4412Y242D02*
X4419Y242D01*
X4456Y242D02*
X4463Y242D01*
X4715Y242D02*
X4722Y242D01*
X4759Y242D02*
X4766Y242D01*
X5110Y242D02*
X5117Y242D01*
X0Y241D02*
X7Y241D01*
X4412Y241D02*
X4419Y241D01*
X4456Y241D02*
X4463Y241D01*
X4715Y241D02*
X4722Y241D01*
X4759Y241D02*
X4766Y241D01*
X5110Y241D02*
X5117Y241D01*
X0Y240D02*
X7Y240D01*
X4412Y240D02*
X4419Y240D01*
X4456Y240D02*
X4463Y240D01*
X4715Y240D02*
X4722Y240D01*
X4759Y240D02*
X4766Y240D01*
X5110Y240D02*
X5117Y240D01*
X0Y239D02*
X7Y239D01*
X4412Y239D02*
X4419Y239D01*
X4456Y239D02*
X4463Y239D01*
X4715Y239D02*
X4722Y239D01*
X4759Y239D02*
X4766Y239D01*
X5110Y239D02*
X5117Y239D01*
X0Y238D02*
X7Y238D01*
X4412Y238D02*
X4419Y238D01*
X4456Y238D02*
X4463Y238D01*
X4715Y238D02*
X4722Y238D01*
X4759Y238D02*
X4766Y238D01*
X5110Y238D02*
X5117Y238D01*
X0Y237D02*
X7Y237D01*
X4412Y237D02*
X4419Y237D01*
X4456Y237D02*
X4463Y237D01*
X4715Y237D02*
X4722Y237D01*
X4759Y237D02*
X4766Y237D01*
X5110Y237D02*
X5117Y237D01*
X0Y236D02*
X7Y236D01*
X4412Y236D02*
X4419Y236D01*
X4456Y236D02*
X4463Y236D01*
X4715Y236D02*
X4722Y236D01*
X4759Y236D02*
X4766Y236D01*
X5110Y236D02*
X5117Y236D01*
X0Y235D02*
X7Y235D01*
X4412Y235D02*
X4419Y235D01*
X4456Y235D02*
X4463Y235D01*
X4715Y235D02*
X4722Y235D01*
X4759Y235D02*
X4766Y235D01*
X5110Y235D02*
X5117Y235D01*
X0Y234D02*
X7Y234D01*
X4412Y234D02*
X4419Y234D01*
X4456Y234D02*
X4463Y234D01*
X4715Y234D02*
X4722Y234D01*
X4759Y234D02*
X4766Y234D01*
X5110Y234D02*
X5117Y234D01*
X0Y233D02*
X7Y233D01*
X4412Y233D02*
X4419Y233D01*
X4456Y233D02*
X4463Y233D01*
X4715Y233D02*
X4722Y233D01*
X4759Y233D02*
X4766Y233D01*
X5110Y233D02*
X5117Y233D01*
X0Y232D02*
X7Y232D01*
X4412Y232D02*
X4419Y232D01*
X4456Y232D02*
X4463Y232D01*
X4715Y232D02*
X4722Y232D01*
X4759Y232D02*
X4766Y232D01*
X5110Y232D02*
X5117Y232D01*
X0Y231D02*
X7Y231D01*
X4412Y231D02*
X4419Y231D01*
X4456Y231D02*
X4463Y231D01*
X4715Y231D02*
X4722Y231D01*
X4759Y231D02*
X4766Y231D01*
X5110Y231D02*
X5117Y231D01*
X0Y230D02*
X7Y230D01*
X4412Y230D02*
X4419Y230D01*
X4456Y230D02*
X4463Y230D01*
X4715Y230D02*
X4722Y230D01*
X4759Y230D02*
X4766Y230D01*
X5110Y230D02*
X5117Y230D01*
X0Y229D02*
X7Y229D01*
X4412Y229D02*
X4419Y229D01*
X4456Y229D02*
X4463Y229D01*
X4715Y229D02*
X4722Y229D01*
X4759Y229D02*
X4766Y229D01*
X5110Y229D02*
X5117Y229D01*
X0Y228D02*
X7Y228D01*
X4412Y228D02*
X4419Y228D01*
X4456Y228D02*
X4463Y228D01*
X4715Y228D02*
X4722Y228D01*
X4759Y228D02*
X4766Y228D01*
X5110Y228D02*
X5117Y228D01*
X0Y227D02*
X7Y227D01*
X4412Y227D02*
X4419Y227D01*
X4456Y227D02*
X4463Y227D01*
X4715Y227D02*
X4722Y227D01*
X4759Y227D02*
X4766Y227D01*
X5110Y227D02*
X5117Y227D01*
X0Y226D02*
X7Y226D01*
X4412Y226D02*
X4419Y226D01*
X4456Y226D02*
X4463Y226D01*
X4715Y226D02*
X4722Y226D01*
X4759Y226D02*
X4766Y226D01*
X5110Y226D02*
X5117Y226D01*
X0Y225D02*
X7Y225D01*
X4412Y225D02*
X4419Y225D01*
X4456Y225D02*
X4463Y225D01*
X4715Y225D02*
X4722Y225D01*
X4759Y225D02*
X4766Y225D01*
X5110Y225D02*
X5117Y225D01*
X0Y224D02*
X7Y224D01*
X4412Y224D02*
X4419Y224D01*
X4456Y224D02*
X4463Y224D01*
X4715Y224D02*
X4722Y224D01*
X4759Y224D02*
X4766Y224D01*
X5110Y224D02*
X5117Y224D01*
X0Y223D02*
X7Y223D01*
X4412Y223D02*
X4419Y223D01*
X4456Y223D02*
X4463Y223D01*
X4715Y223D02*
X4722Y223D01*
X4759Y223D02*
X4766Y223D01*
X5110Y223D02*
X5117Y223D01*
X0Y222D02*
X7Y222D01*
X4412Y222D02*
X4419Y222D01*
X4456Y222D02*
X4463Y222D01*
X4715Y222D02*
X4722Y222D01*
X4759Y222D02*
X4766Y222D01*
X5110Y222D02*
X5117Y222D01*
X0Y221D02*
X7Y221D01*
X4412Y221D02*
X4419Y221D01*
X4456Y221D02*
X4463Y221D01*
X4715Y221D02*
X4722Y221D01*
X4759Y221D02*
X4766Y221D01*
X5110Y221D02*
X5117Y221D01*
X0Y220D02*
X7Y220D01*
X4412Y220D02*
X4419Y220D01*
X4456Y220D02*
X4463Y220D01*
X4715Y220D02*
X4722Y220D01*
X4759Y220D02*
X4766Y220D01*
X5110Y220D02*
X5117Y220D01*
X0Y219D02*
X7Y219D01*
X4412Y219D02*
X4419Y219D01*
X4456Y219D02*
X4463Y219D01*
X4715Y219D02*
X4722Y219D01*
X4759Y219D02*
X4766Y219D01*
X5110Y219D02*
X5117Y219D01*
X0Y218D02*
X7Y218D01*
X4412Y218D02*
X4419Y218D01*
X4456Y218D02*
X4463Y218D01*
X4715Y218D02*
X4722Y218D01*
X4759Y218D02*
X4766Y218D01*
X5110Y218D02*
X5117Y218D01*
X0Y217D02*
X7Y217D01*
X4412Y217D02*
X4419Y217D01*
X4456Y217D02*
X4463Y217D01*
X4715Y217D02*
X4722Y217D01*
X4759Y217D02*
X4766Y217D01*
X5110Y217D02*
X5117Y217D01*
X0Y216D02*
X7Y216D01*
X4412Y216D02*
X4419Y216D01*
X4456Y216D02*
X4463Y216D01*
X4715Y216D02*
X4722Y216D01*
X4759Y216D02*
X4766Y216D01*
X5110Y216D02*
X5117Y216D01*
X0Y215D02*
X7Y215D01*
X4412Y215D02*
X4419Y215D01*
X4456Y215D02*
X4463Y215D01*
X4715Y215D02*
X4722Y215D01*
X4759Y215D02*
X4766Y215D01*
X5110Y215D02*
X5117Y215D01*
X0Y214D02*
X7Y214D01*
X4412Y214D02*
X4419Y214D01*
X4456Y214D02*
X4463Y214D01*
X4715Y214D02*
X4722Y214D01*
X4759Y214D02*
X4766Y214D01*
X5110Y214D02*
X5117Y214D01*
X0Y213D02*
X7Y213D01*
X4412Y213D02*
X4419Y213D01*
X4456Y213D02*
X4463Y213D01*
X4715Y213D02*
X4722Y213D01*
X4759Y213D02*
X4766Y213D01*
X5110Y213D02*
X5117Y213D01*
X0Y212D02*
X7Y212D01*
X4412Y212D02*
X4419Y212D01*
X4456Y212D02*
X4463Y212D01*
X4715Y212D02*
X4722Y212D01*
X4759Y212D02*
X4766Y212D01*
X5110Y212D02*
X5117Y212D01*
X0Y211D02*
X7Y211D01*
X4412Y211D02*
X4419Y211D01*
X4456Y211D02*
X4463Y211D01*
X4715Y211D02*
X4722Y211D01*
X4759Y211D02*
X4766Y211D01*
X5110Y211D02*
X5117Y211D01*
X0Y210D02*
X7Y210D01*
X4412Y210D02*
X4419Y210D01*
X4456Y210D02*
X4463Y210D01*
X4715Y210D02*
X4722Y210D01*
X4759Y210D02*
X4766Y210D01*
X5110Y210D02*
X5117Y210D01*
X0Y209D02*
X7Y209D01*
X4412Y209D02*
X4419Y209D01*
X4456Y209D02*
X4463Y209D01*
X4715Y209D02*
X4722Y209D01*
X4759Y209D02*
X4766Y209D01*
X5110Y209D02*
X5117Y209D01*
X0Y208D02*
X7Y208D01*
X4412Y208D02*
X4419Y208D01*
X4456Y208D02*
X4463Y208D01*
X4715Y208D02*
X4722Y208D01*
X4759Y208D02*
X4766Y208D01*
X5110Y208D02*
X5117Y208D01*
X0Y207D02*
X7Y207D01*
X4412Y207D02*
X4419Y207D01*
X4456Y207D02*
X4463Y207D01*
X4715Y207D02*
X4722Y207D01*
X4759Y207D02*
X4766Y207D01*
X5110Y207D02*
X5117Y207D01*
X0Y206D02*
X7Y206D01*
X4412Y206D02*
X4419Y206D01*
X4456Y206D02*
X4463Y206D01*
X4715Y206D02*
X4722Y206D01*
X4759Y206D02*
X4766Y206D01*
X5110Y206D02*
X5117Y206D01*
X0Y205D02*
X7Y205D01*
X4412Y205D02*
X4419Y205D01*
X4456Y205D02*
X4463Y205D01*
X4715Y205D02*
X4722Y205D01*
X4759Y205D02*
X4766Y205D01*
X5110Y205D02*
X5117Y205D01*
X0Y204D02*
X7Y204D01*
X4412Y204D02*
X4419Y204D01*
X4456Y204D02*
X4463Y204D01*
X4715Y204D02*
X4722Y204D01*
X4759Y204D02*
X4766Y204D01*
X5110Y204D02*
X5117Y204D01*
X0Y203D02*
X7Y203D01*
X4412Y203D02*
X4419Y203D01*
X4456Y203D02*
X4463Y203D01*
X4715Y203D02*
X4722Y203D01*
X4759Y203D02*
X4766Y203D01*
X5110Y203D02*
X5117Y203D01*
X0Y202D02*
X7Y202D01*
X4412Y202D02*
X4419Y202D01*
X4456Y202D02*
X4463Y202D01*
X4715Y202D02*
X4722Y202D01*
X4759Y202D02*
X4766Y202D01*
X5110Y202D02*
X5117Y202D01*
X0Y201D02*
X7Y201D01*
X4412Y201D02*
X4419Y201D01*
X4456Y201D02*
X4463Y201D01*
X4715Y201D02*
X4722Y201D01*
X4759Y201D02*
X4766Y201D01*
X5110Y201D02*
X5117Y201D01*
X0Y200D02*
X7Y200D01*
X4412Y200D02*
X4419Y200D01*
X4456Y200D02*
X4463Y200D01*
X4715Y200D02*
X4722Y200D01*
X4759Y200D02*
X4766Y200D01*
X5110Y200D02*
X5117Y200D01*
X0Y199D02*
X7Y199D01*
X4412Y199D02*
X4419Y199D01*
X4456Y199D02*
X4463Y199D01*
X4715Y199D02*
X4722Y199D01*
X4759Y199D02*
X4766Y199D01*
X5110Y199D02*
X5117Y199D01*
X0Y198D02*
X7Y198D01*
X4412Y198D02*
X4419Y198D01*
X4456Y198D02*
X4463Y198D01*
X4715Y198D02*
X4722Y198D01*
X4759Y198D02*
X4766Y198D01*
X5110Y198D02*
X5117Y198D01*
X0Y197D02*
X7Y197D01*
X4412Y197D02*
X4419Y197D01*
X4456Y197D02*
X4463Y197D01*
X4715Y197D02*
X4722Y197D01*
X4759Y197D02*
X4766Y197D01*
X5110Y197D02*
X5117Y197D01*
X0Y196D02*
X7Y196D01*
X4412Y196D02*
X4419Y196D01*
X4456Y196D02*
X4463Y196D01*
X4715Y196D02*
X4722Y196D01*
X4759Y196D02*
X4766Y196D01*
X5110Y196D02*
X5117Y196D01*
X0Y195D02*
X7Y195D01*
X4412Y195D02*
X4419Y195D01*
X4456Y195D02*
X4463Y195D01*
X4715Y195D02*
X4722Y195D01*
X4759Y195D02*
X4766Y195D01*
X5110Y195D02*
X5117Y195D01*
X0Y194D02*
X7Y194D01*
X4412Y194D02*
X4419Y194D01*
X4456Y194D02*
X4463Y194D01*
X4715Y194D02*
X4722Y194D01*
X4759Y194D02*
X4766Y194D01*
X5110Y194D02*
X5117Y194D01*
X0Y193D02*
X7Y193D01*
X4412Y193D02*
X4419Y193D01*
X4456Y193D02*
X4463Y193D01*
X4715Y193D02*
X4722Y193D01*
X4759Y193D02*
X4766Y193D01*
X5110Y193D02*
X5117Y193D01*
X0Y192D02*
X7Y192D01*
X4412Y192D02*
X4419Y192D01*
X4456Y192D02*
X4463Y192D01*
X4715Y192D02*
X4722Y192D01*
X4759Y192D02*
X4766Y192D01*
X5110Y192D02*
X5117Y192D01*
X0Y191D02*
X7Y191D01*
X4412Y191D02*
X4419Y191D01*
X4456Y191D02*
X4463Y191D01*
X4715Y191D02*
X4722Y191D01*
X4759Y191D02*
X4766Y191D01*
X5110Y191D02*
X5117Y191D01*
X0Y190D02*
X7Y190D01*
X4412Y190D02*
X4419Y190D01*
X4456Y190D02*
X4463Y190D01*
X4715Y190D02*
X4722Y190D01*
X4759Y190D02*
X4766Y190D01*
X5110Y190D02*
X5117Y190D01*
X0Y189D02*
X7Y189D01*
X4412Y189D02*
X4419Y189D01*
X4456Y189D02*
X4463Y189D01*
X4715Y189D02*
X4722Y189D01*
X4759Y189D02*
X4766Y189D01*
X5110Y189D02*
X5117Y189D01*
X0Y188D02*
X7Y188D01*
X4412Y188D02*
X4419Y188D01*
X4456Y188D02*
X4463Y188D01*
X4715Y188D02*
X4722Y188D01*
X4759Y188D02*
X4766Y188D01*
X5110Y188D02*
X5117Y188D01*
X0Y187D02*
X7Y187D01*
X4412Y187D02*
X4419Y187D01*
X4456Y187D02*
X4463Y187D01*
X4715Y187D02*
X4722Y187D01*
X4759Y187D02*
X4765Y187D01*
X5110Y187D02*
X5117Y187D01*
X0Y186D02*
X7Y186D01*
X4412Y186D02*
X4419Y186D01*
X4456Y186D02*
X4463Y186D01*
X4715Y186D02*
X4722Y186D01*
X4759Y186D02*
X4765Y186D01*
X5110Y186D02*
X5117Y186D01*
X0Y185D02*
X7Y185D01*
X4412Y185D02*
X4419Y185D01*
X4456Y185D02*
X4463Y185D01*
X4715Y185D02*
X4722Y185D01*
X4759Y185D02*
X4764Y185D01*
X5110Y185D02*
X5117Y185D01*
X0Y184D02*
X7Y184D01*
X4412Y184D02*
X4419Y184D01*
X4456Y184D02*
X4463Y184D01*
X4715Y184D02*
X4722Y184D01*
X4759Y184D02*
X4764Y184D01*
X5110Y184D02*
X5117Y184D01*
X0Y183D02*
X7Y183D01*
X4412Y183D02*
X4419Y183D01*
X4456Y183D02*
X4463Y183D01*
X4715Y183D02*
X4722Y183D01*
X4759Y183D02*
X4764Y183D01*
X5110Y183D02*
X5117Y183D01*
X0Y182D02*
X7Y182D01*
X4412Y182D02*
X4419Y182D01*
X4456Y182D02*
X4463Y182D01*
X4715Y182D02*
X4722Y182D01*
X4759Y182D02*
X4763Y182D01*
X5110Y182D02*
X5117Y182D01*
X0Y181D02*
X7Y181D01*
X4412Y181D02*
X4419Y181D01*
X4456Y181D02*
X4463Y181D01*
X4715Y181D02*
X4722Y181D01*
X4759Y181D02*
X4763Y181D01*
X5110Y181D02*
X5117Y181D01*
X0Y180D02*
X7Y180D01*
X4412Y180D02*
X4419Y180D01*
X4456Y180D02*
X4463Y180D01*
X4715Y180D02*
X4722Y180D01*
X4759Y180D02*
X4763Y180D01*
X5110Y180D02*
X5117Y180D01*
X0Y179D02*
X7Y179D01*
X4412Y179D02*
X4419Y179D01*
X4456Y179D02*
X4463Y179D01*
X4715Y179D02*
X4722Y179D01*
X4759Y179D02*
X4763Y179D01*
X5110Y179D02*
X5117Y179D01*
X0Y178D02*
X7Y178D01*
X4412Y178D02*
X4419Y178D01*
X4456Y178D02*
X4463Y178D01*
X4715Y178D02*
X4722Y178D01*
X4759Y178D02*
X4762Y178D01*
X5110Y178D02*
X5117Y178D01*
X0Y177D02*
X7Y177D01*
X4412Y177D02*
X4419Y177D01*
X4456Y177D02*
X4463Y177D01*
X4715Y177D02*
X4722Y177D01*
X4759Y177D02*
X4762Y177D01*
X5110Y177D02*
X5117Y177D01*
X0Y176D02*
X7Y176D01*
X4412Y176D02*
X4419Y176D01*
X4456Y176D02*
X4463Y176D01*
X4715Y176D02*
X4722Y176D01*
X4759Y176D02*
X4762Y176D01*
X5110Y176D02*
X5117Y176D01*
X0Y175D02*
X7Y175D01*
X4412Y175D02*
X4419Y175D01*
X4456Y175D02*
X4463Y175D01*
X4715Y175D02*
X4722Y175D01*
X4759Y175D02*
X4762Y175D01*
X5110Y175D02*
X5117Y175D01*
X0Y174D02*
X7Y174D01*
X4412Y174D02*
X4419Y174D01*
X4456Y174D02*
X4463Y174D01*
X4715Y174D02*
X4722Y174D01*
X4759Y174D02*
X4762Y174D01*
X5110Y174D02*
X5117Y174D01*
X0Y173D02*
X7Y173D01*
X4412Y173D02*
X4419Y173D01*
X4456Y173D02*
X4463Y173D01*
X4715Y173D02*
X4722Y173D01*
X4759Y173D02*
X4762Y173D01*
X5110Y173D02*
X5117Y173D01*
X0Y172D02*
X7Y172D01*
X4412Y172D02*
X4419Y172D01*
X4456Y172D02*
X4463Y172D01*
X4715Y172D02*
X4722Y172D01*
X4759Y172D02*
X4763Y172D01*
X5110Y172D02*
X5117Y172D01*
X0Y171D02*
X7Y171D01*
X4412Y171D02*
X4419Y171D01*
X4456Y171D02*
X4463Y171D01*
X4715Y171D02*
X4722Y171D01*
X4759Y171D02*
X4763Y171D01*
X5110Y171D02*
X5117Y171D01*
X0Y170D02*
X7Y170D01*
X4412Y170D02*
X4419Y170D01*
X4456Y170D02*
X4463Y170D01*
X4715Y170D02*
X4722Y170D01*
X4759Y170D02*
X4763Y170D01*
X5110Y170D02*
X5117Y170D01*
X0Y169D02*
X7Y169D01*
X4412Y169D02*
X4419Y169D01*
X4456Y169D02*
X4463Y169D01*
X4715Y169D02*
X4722Y169D01*
X4759Y169D02*
X4763Y169D01*
X5110Y169D02*
X5117Y169D01*
X0Y168D02*
X7Y168D01*
X4412Y168D02*
X4419Y168D01*
X4456Y168D02*
X4463Y168D01*
X4715Y168D02*
X4722Y168D01*
X4759Y168D02*
X4764Y168D01*
X5110Y168D02*
X5117Y168D01*
X0Y167D02*
X7Y167D01*
X4412Y167D02*
X4419Y167D01*
X4456Y167D02*
X4463Y167D01*
X4715Y167D02*
X4722Y167D01*
X4759Y167D02*
X4764Y167D01*
X5110Y167D02*
X5117Y167D01*
X0Y166D02*
X7Y166D01*
X4412Y166D02*
X4419Y166D01*
X4456Y166D02*
X4463Y166D01*
X4715Y166D02*
X4722Y166D01*
X4759Y166D02*
X4764Y166D01*
X5110Y166D02*
X5117Y166D01*
X0Y165D02*
X7Y165D01*
X4412Y165D02*
X4419Y165D01*
X4456Y165D02*
X4463Y165D01*
X4715Y165D02*
X4722Y165D01*
X4759Y165D02*
X4765Y165D01*
X5110Y165D02*
X5117Y165D01*
X0Y164D02*
X7Y164D01*
X4412Y164D02*
X4419Y164D01*
X4456Y164D02*
X4463Y164D01*
X4715Y164D02*
X4722Y164D01*
X4759Y164D02*
X4766Y164D01*
X5110Y164D02*
X5117Y164D01*
X0Y163D02*
X7Y163D01*
X4412Y163D02*
X4419Y163D01*
X4456Y163D02*
X4463Y163D01*
X4715Y163D02*
X4722Y163D01*
X4759Y163D02*
X4766Y163D01*
X5110Y163D02*
X5117Y163D01*
X0Y162D02*
X7Y162D01*
X4412Y162D02*
X4419Y162D01*
X4456Y162D02*
X4463Y162D01*
X4715Y162D02*
X4722Y162D01*
X4759Y162D02*
X4766Y162D01*
X5110Y162D02*
X5117Y162D01*
X0Y161D02*
X7Y161D01*
X4412Y161D02*
X4419Y161D01*
X4456Y161D02*
X4463Y161D01*
X4715Y161D02*
X4722Y161D01*
X4759Y161D02*
X4766Y161D01*
X5110Y161D02*
X5117Y161D01*
X0Y160D02*
X7Y160D01*
X4412Y160D02*
X4419Y160D01*
X4456Y160D02*
X4463Y160D01*
X4715Y160D02*
X4722Y160D01*
X4759Y160D02*
X4766Y160D01*
X5110Y160D02*
X5117Y160D01*
X0Y159D02*
X7Y159D01*
X4412Y159D02*
X4419Y159D01*
X4456Y159D02*
X4463Y159D01*
X4715Y159D02*
X4722Y159D01*
X4759Y159D02*
X4766Y159D01*
X5110Y159D02*
X5117Y159D01*
X0Y158D02*
X7Y158D01*
X4412Y158D02*
X4419Y158D01*
X4456Y158D02*
X4463Y158D01*
X4715Y158D02*
X4722Y158D01*
X4759Y158D02*
X4766Y158D01*
X5110Y158D02*
X5117Y158D01*
X0Y157D02*
X7Y157D01*
X4412Y157D02*
X4419Y157D01*
X4456Y157D02*
X4463Y157D01*
X4715Y157D02*
X4722Y157D01*
X4759Y157D02*
X4766Y157D01*
X5110Y157D02*
X5117Y157D01*
X0Y156D02*
X7Y156D01*
X4412Y156D02*
X4419Y156D01*
X4456Y156D02*
X4463Y156D01*
X4715Y156D02*
X4722Y156D01*
X4759Y156D02*
X4766Y156D01*
X5110Y156D02*
X5117Y156D01*
X0Y155D02*
X7Y155D01*
X4412Y155D02*
X4419Y155D01*
X4456Y155D02*
X4463Y155D01*
X4715Y155D02*
X4722Y155D01*
X4759Y155D02*
X4766Y155D01*
X5110Y155D02*
X5117Y155D01*
X0Y154D02*
X7Y154D01*
X4412Y154D02*
X4419Y154D01*
X4456Y154D02*
X4463Y154D01*
X4715Y154D02*
X4722Y154D01*
X4759Y154D02*
X4766Y154D01*
X5110Y154D02*
X5117Y154D01*
X0Y153D02*
X7Y153D01*
X4412Y153D02*
X4419Y153D01*
X4456Y153D02*
X4463Y153D01*
X4715Y153D02*
X4722Y153D01*
X4759Y153D02*
X4766Y153D01*
X5110Y153D02*
X5117Y153D01*
X0Y152D02*
X7Y152D01*
X4412Y152D02*
X4419Y152D01*
X4456Y152D02*
X4463Y152D01*
X4715Y152D02*
X4722Y152D01*
X4759Y152D02*
X4766Y152D01*
X5110Y152D02*
X5117Y152D01*
X0Y151D02*
X7Y151D01*
X4412Y151D02*
X4419Y151D01*
X4456Y151D02*
X4463Y151D01*
X4715Y151D02*
X4722Y151D01*
X4759Y151D02*
X4766Y151D01*
X5110Y151D02*
X5117Y151D01*
X0Y150D02*
X7Y150D01*
X4412Y150D02*
X4419Y150D01*
X4456Y150D02*
X4463Y150D01*
X4715Y150D02*
X4722Y150D01*
X4759Y150D02*
X4766Y150D01*
X5110Y150D02*
X5117Y150D01*
X0Y149D02*
X7Y149D01*
X4412Y149D02*
X4419Y149D01*
X4456Y149D02*
X4463Y149D01*
X4715Y149D02*
X4722Y149D01*
X4759Y149D02*
X4766Y149D01*
X5110Y149D02*
X5117Y149D01*
X0Y148D02*
X7Y148D01*
X4412Y148D02*
X4419Y148D01*
X4456Y148D02*
X4463Y148D01*
X4715Y148D02*
X4722Y148D01*
X4759Y148D02*
X4766Y148D01*
X5110Y148D02*
X5117Y148D01*
X0Y147D02*
X7Y147D01*
X4412Y147D02*
X4419Y147D01*
X4456Y147D02*
X4463Y147D01*
X4715Y147D02*
X4722Y147D01*
X4759Y147D02*
X4766Y147D01*
X5110Y147D02*
X5117Y147D01*
X0Y146D02*
X7Y146D01*
X4412Y146D02*
X4419Y146D01*
X4456Y146D02*
X4463Y146D01*
X4715Y146D02*
X4722Y146D01*
X4759Y146D02*
X4766Y146D01*
X5110Y146D02*
X5117Y146D01*
X0Y145D02*
X7Y145D01*
X4412Y145D02*
X4419Y145D01*
X4456Y145D02*
X4463Y145D01*
X4715Y145D02*
X4722Y145D01*
X4759Y145D02*
X4766Y145D01*
X5110Y145D02*
X5117Y145D01*
X0Y144D02*
X7Y144D01*
X4412Y144D02*
X4419Y144D01*
X4456Y144D02*
X4463Y144D01*
X4715Y144D02*
X4722Y144D01*
X4759Y144D02*
X4766Y144D01*
X5110Y144D02*
X5117Y144D01*
X0Y143D02*
X7Y143D01*
X4412Y143D02*
X4419Y143D01*
X4456Y143D02*
X4463Y143D01*
X4715Y143D02*
X4722Y143D01*
X4759Y143D02*
X4766Y143D01*
X5110Y143D02*
X5117Y143D01*
X0Y142D02*
X7Y142D01*
X4412Y142D02*
X4419Y142D01*
X4456Y142D02*
X4463Y142D01*
X4715Y142D02*
X4722Y142D01*
X4759Y142D02*
X4766Y142D01*
X5110Y142D02*
X5117Y142D01*
X0Y141D02*
X7Y141D01*
X4412Y141D02*
X4419Y141D01*
X4456Y141D02*
X4463Y141D01*
X4715Y141D02*
X4722Y141D01*
X4759Y141D02*
X4766Y141D01*
X5110Y141D02*
X5117Y141D01*
X0Y140D02*
X7Y140D01*
X4412Y140D02*
X4419Y140D01*
X4456Y140D02*
X4463Y140D01*
X4715Y140D02*
X4722Y140D01*
X4759Y140D02*
X4766Y140D01*
X5110Y140D02*
X5117Y140D01*
X0Y139D02*
X7Y139D01*
X4412Y139D02*
X4419Y139D01*
X4456Y139D02*
X4463Y139D01*
X4715Y139D02*
X4722Y139D01*
X4759Y139D02*
X4766Y139D01*
X5110Y139D02*
X5117Y139D01*
X0Y138D02*
X7Y138D01*
X4412Y138D02*
X4419Y138D01*
X4456Y138D02*
X4463Y138D01*
X4715Y138D02*
X4722Y138D01*
X4759Y138D02*
X4766Y138D01*
X5110Y138D02*
X5117Y138D01*
X0Y137D02*
X7Y137D01*
X4412Y137D02*
X4419Y137D01*
X4456Y137D02*
X4463Y137D01*
X4715Y137D02*
X4722Y137D01*
X4759Y137D02*
X4766Y137D01*
X5110Y137D02*
X5117Y137D01*
X0Y136D02*
X7Y136D01*
X4412Y136D02*
X4419Y136D01*
X4456Y136D02*
X4463Y136D01*
X4715Y136D02*
X4722Y136D01*
X4759Y136D02*
X4766Y136D01*
X5110Y136D02*
X5117Y136D01*
X0Y135D02*
X7Y135D01*
X4412Y135D02*
X4419Y135D01*
X4456Y135D02*
X4463Y135D01*
X4715Y135D02*
X4722Y135D01*
X4759Y135D02*
X4766Y135D01*
X5110Y135D02*
X5117Y135D01*
X0Y134D02*
X7Y134D01*
X4412Y134D02*
X4419Y134D01*
X4456Y134D02*
X4463Y134D01*
X4715Y134D02*
X4722Y134D01*
X4759Y134D02*
X4766Y134D01*
X5110Y134D02*
X5117Y134D01*
X0Y133D02*
X7Y133D01*
X4412Y133D02*
X4419Y133D01*
X4456Y133D02*
X4463Y133D01*
X4715Y133D02*
X4722Y133D01*
X4759Y133D02*
X4766Y133D01*
X5110Y133D02*
X5117Y133D01*
X0Y132D02*
X7Y132D01*
X4412Y132D02*
X4419Y132D01*
X4456Y132D02*
X4463Y132D01*
X4715Y132D02*
X4722Y132D01*
X4759Y132D02*
X4766Y132D01*
X5110Y132D02*
X5117Y132D01*
X0Y131D02*
X7Y131D01*
X4412Y131D02*
X4419Y131D01*
X4456Y131D02*
X4463Y131D01*
X4715Y131D02*
X4722Y131D01*
X4759Y131D02*
X4766Y131D01*
X5110Y131D02*
X5117Y131D01*
X0Y130D02*
X7Y130D01*
X4412Y130D02*
X4419Y130D01*
X4456Y130D02*
X4463Y130D01*
X4715Y130D02*
X4722Y130D01*
X4759Y130D02*
X4766Y130D01*
X5110Y130D02*
X5117Y130D01*
X0Y129D02*
X7Y129D01*
X4412Y129D02*
X4419Y129D01*
X4456Y129D02*
X4463Y129D01*
X4715Y129D02*
X4722Y129D01*
X4759Y129D02*
X4766Y129D01*
X5110Y129D02*
X5117Y129D01*
X0Y128D02*
X7Y128D01*
X4412Y128D02*
X4419Y128D01*
X4456Y128D02*
X4463Y128D01*
X4715Y128D02*
X4722Y128D01*
X4759Y128D02*
X4766Y128D01*
X5110Y128D02*
X5117Y128D01*
X0Y127D02*
X7Y127D01*
X4412Y127D02*
X4419Y127D01*
X4456Y127D02*
X4463Y127D01*
X4715Y127D02*
X4722Y127D01*
X4759Y127D02*
X4766Y127D01*
X5110Y127D02*
X5117Y127D01*
X0Y126D02*
X7Y126D01*
X4412Y126D02*
X4419Y126D01*
X4456Y126D02*
X4463Y126D01*
X4715Y126D02*
X4722Y126D01*
X4759Y126D02*
X4766Y126D01*
X5110Y126D02*
X5117Y126D01*
X0Y125D02*
X7Y125D01*
X4412Y125D02*
X4419Y125D01*
X4456Y125D02*
X4463Y125D01*
X4715Y125D02*
X4722Y125D01*
X4759Y125D02*
X4766Y125D01*
X5110Y125D02*
X5117Y125D01*
X0Y124D02*
X7Y124D01*
X4412Y124D02*
X4419Y124D01*
X4456Y124D02*
X4463Y124D01*
X4715Y124D02*
X4722Y124D01*
X4759Y124D02*
X4766Y124D01*
X5110Y124D02*
X5117Y124D01*
X0Y123D02*
X7Y123D01*
X4412Y123D02*
X4419Y123D01*
X4456Y123D02*
X4463Y123D01*
X4715Y123D02*
X4722Y123D01*
X4759Y123D02*
X4766Y123D01*
X5110Y123D02*
X5117Y123D01*
X0Y122D02*
X7Y122D01*
X4412Y122D02*
X4419Y122D01*
X4456Y122D02*
X4463Y122D01*
X4715Y122D02*
X4722Y122D01*
X4759Y122D02*
X4766Y122D01*
X5110Y122D02*
X5117Y122D01*
X0Y121D02*
X7Y121D01*
X4412Y121D02*
X4419Y121D01*
X4456Y121D02*
X4463Y121D01*
X4715Y121D02*
X4722Y121D01*
X4759Y121D02*
X4766Y121D01*
X5110Y121D02*
X5117Y121D01*
X0Y120D02*
X7Y120D01*
X4412Y120D02*
X4419Y120D01*
X4456Y120D02*
X4463Y120D01*
X4715Y120D02*
X4722Y120D01*
X4759Y120D02*
X4766Y120D01*
X5110Y120D02*
X5117Y120D01*
X0Y119D02*
X7Y119D01*
X4412Y119D02*
X4419Y119D01*
X4456Y119D02*
X4722Y119D01*
X4759Y119D02*
X4766Y119D01*
X5110Y119D02*
X5117Y119D01*
X0Y118D02*
X7Y118D01*
X4412Y118D02*
X4419Y118D01*
X4456Y118D02*
X4722Y118D01*
X4759Y118D02*
X4766Y118D01*
X5110Y118D02*
X5117Y118D01*
X0Y117D02*
X7Y117D01*
X4412Y117D02*
X4419Y117D01*
X4456Y117D02*
X4722Y117D01*
X4759Y117D02*
X4766Y117D01*
X5110Y117D02*
X5117Y117D01*
X0Y116D02*
X7Y116D01*
X4412Y116D02*
X4419Y116D01*
X4456Y116D02*
X4722Y116D01*
X4759Y116D02*
X4766Y116D01*
X5110Y116D02*
X5117Y116D01*
X0Y115D02*
X7Y115D01*
X4412Y115D02*
X4419Y115D01*
X4456Y115D02*
X4722Y115D01*
X4759Y115D02*
X4766Y115D01*
X5110Y115D02*
X5117Y115D01*
X0Y114D02*
X7Y114D01*
X4412Y114D02*
X4419Y114D01*
X4456Y114D02*
X4722Y114D01*
X4759Y114D02*
X4766Y114D01*
X5110Y114D02*
X5117Y114D01*
X0Y113D02*
X7Y113D01*
X4412Y113D02*
X4419Y113D01*
X4456Y113D02*
X4722Y113D01*
X4759Y113D02*
X4766Y113D01*
X5110Y113D02*
X5117Y113D01*
X0Y112D02*
X7Y112D01*
X4412Y112D02*
X4419Y112D01*
X4456Y112D02*
X4722Y112D01*
X4759Y112D02*
X4766Y112D01*
X5110Y112D02*
X5117Y112D01*
X0Y111D02*
X7Y111D01*
X4412Y111D02*
X4419Y111D01*
X4759Y111D02*
X4766Y111D01*
X5110Y111D02*
X5117Y111D01*
X0Y110D02*
X7Y110D01*
X4412Y110D02*
X4419Y110D01*
X4759Y110D02*
X4766Y110D01*
X5110Y110D02*
X5117Y110D01*
X0Y109D02*
X7Y109D01*
X4412Y109D02*
X4419Y109D01*
X4759Y109D02*
X4766Y109D01*
X5110Y109D02*
X5117Y109D01*
X0Y108D02*
X7Y108D01*
X4412Y108D02*
X4419Y108D01*
X4759Y108D02*
X4766Y108D01*
X5110Y108D02*
X5117Y108D01*
X0Y107D02*
X7Y107D01*
X4412Y107D02*
X4419Y107D01*
X4759Y107D02*
X4766Y107D01*
X5110Y107D02*
X5117Y107D01*
X0Y106D02*
X7Y106D01*
X4412Y106D02*
X4419Y106D01*
X4759Y106D02*
X4766Y106D01*
X5110Y106D02*
X5117Y106D01*
X0Y105D02*
X7Y105D01*
X4412Y105D02*
X4419Y105D01*
X4759Y105D02*
X4766Y105D01*
X5110Y105D02*
X5117Y105D01*
X0Y104D02*
X7Y104D01*
X4412Y104D02*
X4419Y104D01*
X4759Y104D02*
X4766Y104D01*
X5110Y104D02*
X5117Y104D01*
X0Y103D02*
X7Y103D01*
X4412Y103D02*
X4419Y103D01*
X4759Y103D02*
X4766Y103D01*
X5110Y103D02*
X5117Y103D01*
X0Y102D02*
X7Y102D01*
X4412Y102D02*
X4419Y102D01*
X4759Y102D02*
X4766Y102D01*
X5110Y102D02*
X5117Y102D01*
X0Y101D02*
X7Y101D01*
X4412Y101D02*
X4419Y101D01*
X4759Y101D02*
X4766Y101D01*
X5110Y101D02*
X5117Y101D01*
X0Y100D02*
X7Y100D01*
X4412Y100D02*
X4419Y100D01*
X4759Y100D02*
X4766Y100D01*
X5110Y100D02*
X5117Y100D01*
X0Y99D02*
X7Y99D01*
X4412Y99D02*
X4419Y99D01*
X4759Y99D02*
X4766Y99D01*
X5110Y99D02*
X5117Y99D01*
X0Y98D02*
X7Y98D01*
X4412Y98D02*
X4419Y98D01*
X4759Y98D02*
X4766Y98D01*
X5110Y98D02*
X5117Y98D01*
X0Y97D02*
X7Y97D01*
X4412Y97D02*
X4419Y97D01*
X4759Y97D02*
X4766Y97D01*
X5110Y97D02*
X5117Y97D01*
X0Y96D02*
X7Y96D01*
X4412Y96D02*
X4419Y96D01*
X4759Y96D02*
X4766Y96D01*
X5110Y96D02*
X5117Y96D01*
X0Y95D02*
X7Y95D01*
X4412Y95D02*
X4419Y95D01*
X4759Y95D02*
X4766Y95D01*
X5110Y95D02*
X5117Y95D01*
X0Y94D02*
X7Y94D01*
X4412Y94D02*
X4419Y94D01*
X4759Y94D02*
X4766Y94D01*
X5110Y94D02*
X5117Y94D01*
X0Y93D02*
X7Y93D01*
X4412Y93D02*
X4419Y93D01*
X4759Y93D02*
X4766Y93D01*
X5110Y93D02*
X5117Y93D01*
X0Y92D02*
X7Y92D01*
X4412Y92D02*
X4419Y92D01*
X4759Y92D02*
X4766Y92D01*
X5110Y92D02*
X5117Y92D01*
X0Y91D02*
X7Y91D01*
X4412Y91D02*
X4419Y91D01*
X4759Y91D02*
X4766Y91D01*
X5110Y91D02*
X5117Y91D01*
X0Y90D02*
X7Y90D01*
X4412Y90D02*
X4419Y90D01*
X4759Y90D02*
X4766Y90D01*
X5110Y90D02*
X5117Y90D01*
X0Y89D02*
X7Y89D01*
X4412Y89D02*
X4419Y89D01*
X4759Y89D02*
X4766Y89D01*
X5110Y89D02*
X5117Y89D01*
X0Y88D02*
X7Y88D01*
X4412Y88D02*
X4419Y88D01*
X4759Y88D02*
X4766Y88D01*
X5110Y88D02*
X5117Y88D01*
X0Y87D02*
X7Y87D01*
X4412Y87D02*
X4419Y87D01*
X4759Y87D02*
X4766Y87D01*
X5110Y87D02*
X5117Y87D01*
X0Y86D02*
X7Y86D01*
X4412Y86D02*
X4419Y86D01*
X4759Y86D02*
X4766Y86D01*
X5110Y86D02*
X5117Y86D01*
X0Y85D02*
X7Y85D01*
X4412Y85D02*
X4419Y85D01*
X4759Y85D02*
X4766Y85D01*
X5110Y85D02*
X5117Y85D01*
X0Y84D02*
X7Y84D01*
X4412Y84D02*
X4419Y84D01*
X4759Y84D02*
X4766Y84D01*
X5110Y84D02*
X5117Y84D01*
X0Y83D02*
X7Y83D01*
X4412Y83D02*
X4419Y83D01*
X4759Y83D02*
X4766Y83D01*
X5110Y83D02*
X5117Y83D01*
X0Y82D02*
X7Y82D01*
X4412Y82D02*
X4419Y82D01*
X4759Y82D02*
X4766Y82D01*
X5110Y82D02*
X5117Y82D01*
X0Y81D02*
X7Y81D01*
X4412Y81D02*
X4419Y81D01*
X4759Y81D02*
X4766Y81D01*
X5110Y81D02*
X5117Y81D01*
X0Y80D02*
X7Y80D01*
X4412Y80D02*
X4419Y80D01*
X4759Y80D02*
X4766Y80D01*
X5110Y80D02*
X5117Y80D01*
X0Y79D02*
X7Y79D01*
X4412Y79D02*
X4419Y79D01*
X4759Y79D02*
X4766Y79D01*
X5110Y79D02*
X5117Y79D01*
X0Y78D02*
X7Y78D01*
X4412Y78D02*
X4419Y78D01*
X4759Y78D02*
X4766Y78D01*
X5110Y78D02*
X5117Y78D01*
X0Y77D02*
X7Y77D01*
X4412Y77D02*
X4419Y77D01*
X4759Y77D02*
X4766Y77D01*
X5110Y77D02*
X5117Y77D01*
X0Y76D02*
X7Y76D01*
X4412Y76D02*
X4420Y76D01*
X4758Y76D02*
X4766Y76D01*
X5110Y76D02*
X5117Y76D01*
X0Y75D02*
X7Y75D01*
X4412Y75D02*
X4766Y75D01*
X5110Y75D02*
X5117Y75D01*
X0Y74D02*
X7Y74D01*
X4412Y74D02*
X4766Y74D01*
X5110Y74D02*
X5117Y74D01*
X0Y73D02*
X7Y73D01*
X4412Y73D02*
X4766Y73D01*
X5110Y73D02*
X5117Y73D01*
X0Y72D02*
X7Y72D01*
X4412Y72D02*
X4766Y72D01*
X5110Y72D02*
X5117Y72D01*
X0Y71D02*
X7Y71D01*
X4412Y71D02*
X4766Y71D01*
X5110Y71D02*
X5117Y71D01*
X0Y70D02*
X7Y70D01*
X4412Y70D02*
X4766Y70D01*
X5110Y70D02*
X5117Y70D01*
X0Y69D02*
X7Y69D01*
X4412Y69D02*
X4766Y69D01*
X5110Y69D02*
X5117Y69D01*
X0Y68D02*
X7Y68D01*
X4413Y68D02*
X4765Y68D01*
X5110Y68D02*
X5117Y68D01*
X0Y67D02*
X7Y67D01*
X5110Y67D02*
X5117Y67D01*
X0Y66D02*
X7Y66D01*
X5110Y66D02*
X5117Y66D01*
X0Y65D02*
X7Y65D01*
X5110Y65D02*
X5117Y65D01*
X0Y64D02*
X7Y64D01*
X5110Y64D02*
X5117Y64D01*
X0Y63D02*
X7Y63D01*
X5110Y63D02*
X5117Y63D01*
X0Y62D02*
X7Y62D01*
X5110Y62D02*
X5117Y62D01*
X0Y61D02*
X7Y61D01*
X5110Y61D02*
X5117Y61D01*
X0Y60D02*
X7Y60D01*
X5110Y60D02*
X5117Y60D01*
X0Y59D02*
X7Y59D01*
X5110Y59D02*
X5117Y59D01*
X0Y58D02*
X7Y58D01*
X5110Y58D02*
X5117Y58D01*
X0Y57D02*
X7Y57D01*
X5110Y57D02*
X5117Y57D01*
X0Y56D02*
X7Y56D01*
X5110Y56D02*
X5117Y56D01*
X0Y55D02*
X7Y55D01*
X5110Y55D02*
X5117Y55D01*
X0Y54D02*
X7Y54D01*
X5110Y54D02*
X5117Y54D01*
X0Y53D02*
X7Y53D01*
X5110Y53D02*
X5117Y53D01*
X0Y52D02*
X7Y52D01*
X5110Y52D02*
X5117Y52D01*
X0Y51D02*
X7Y51D01*
X5110Y51D02*
X5117Y51D01*
X0Y50D02*
X7Y50D01*
X5110Y50D02*
X5117Y50D01*
X0Y49D02*
X7Y49D01*
X5110Y49D02*
X5117Y49D01*
X0Y48D02*
X7Y48D01*
X5110Y48D02*
X5117Y48D01*
X0Y47D02*
X7Y47D01*
X5110Y47D02*
X5117Y47D01*
X0Y46D02*
X7Y46D01*
X5110Y46D02*
X5117Y46D01*
X0Y45D02*
X7Y45D01*
X5110Y45D02*
X5117Y45D01*
X0Y44D02*
X7Y44D01*
X5110Y44D02*
X5117Y44D01*
X0Y43D02*
X7Y43D01*
X5110Y43D02*
X5117Y43D01*
X0Y42D02*
X7Y42D01*
X5110Y42D02*
X5117Y42D01*
X0Y41D02*
X7Y41D01*
X5110Y41D02*
X5117Y41D01*
X0Y40D02*
X7Y40D01*
X5110Y40D02*
X5117Y40D01*
X0Y39D02*
X7Y39D01*
X5110Y39D02*
X5117Y39D01*
X0Y38D02*
X7Y38D01*
X5110Y38D02*
X5117Y38D01*
X0Y37D02*
X7Y37D01*
X5110Y37D02*
X5117Y37D01*
X0Y36D02*
X7Y36D01*
X5110Y36D02*
X5117Y36D01*
X0Y35D02*
X7Y35D01*
X5110Y35D02*
X5117Y35D01*
X0Y34D02*
X7Y34D01*
X5110Y34D02*
X5117Y34D01*
X0Y33D02*
X7Y33D01*
X5110Y33D02*
X5117Y33D01*
X0Y32D02*
X7Y32D01*
X5110Y32D02*
X5117Y32D01*
X0Y31D02*
X7Y31D01*
X5110Y31D02*
X5117Y31D01*
X0Y30D02*
X7Y30D01*
X5110Y30D02*
X5117Y30D01*
X0Y29D02*
X7Y29D01*
X5110Y29D02*
X5117Y29D01*
X0Y28D02*
X7Y28D01*
X5110Y28D02*
X5117Y28D01*
X0Y27D02*
X7Y27D01*
X5110Y27D02*
X5117Y27D01*
X0Y26D02*
X7Y26D01*
X5110Y26D02*
X5117Y26D01*
X0Y25D02*
X7Y25D01*
X5110Y25D02*
X5117Y25D01*
X0Y24D02*
X7Y24D01*
X5110Y24D02*
X5117Y24D01*
X0Y23D02*
X7Y23D01*
X5110Y23D02*
X5117Y23D01*
X0Y22D02*
X7Y22D01*
X5110Y22D02*
X5117Y22D01*
X0Y21D02*
X7Y21D01*
X5110Y21D02*
X5117Y21D01*
X0Y20D02*
X7Y20D01*
X5110Y20D02*
X5117Y20D01*
X0Y19D02*
X7Y19D01*
X5110Y19D02*
X5117Y19D01*
X0Y18D02*
X7Y18D01*
X5110Y18D02*
X5117Y18D01*
X0Y17D02*
X7Y17D01*
X5110Y17D02*
X5117Y17D01*
X0Y16D02*
X7Y16D01*
X5110Y16D02*
X5117Y16D01*
X0Y15D02*
X7Y15D01*
X5110Y15D02*
X5117Y15D01*
X0Y14D02*
X7Y14D01*
X5110Y14D02*
X5117Y14D01*
X0Y13D02*
X7Y13D01*
X5110Y13D02*
X5117Y13D01*
X0Y12D02*
X7Y12D01*
X5110Y12D02*
X5117Y12D01*
X0Y11D02*
X7Y11D01*
X5110Y11D02*
X5117Y11D01*
X0Y10D02*
X7Y10D01*
X5110Y10D02*
X5117Y10D01*
X0Y9D02*
X7Y9D01*
X5110Y9D02*
X5117Y9D01*
X0Y8D02*
X5117Y8D01*
X0Y7D02*
X5117Y7D01*
X0Y6D02*
X5117Y6D01*
X0Y5D02*
X5117Y5D01*
X0Y4D02*
X5117Y4D01*
X0Y3D02*
X5117Y3D01*
X0Y2D02*
X5117Y2D01*
X0Y1D02*
X5117Y1D01*
D02*
G04 End of Silk0*
M02*