G04 MADE WITH FRITZING*
G04 WWW.FRITZING.ORG*
G04 DOUBLE SIDED*
G04 HOLES PLATED*
G04 CONTOUR ON CENTER OF CONTOUR VECTOR*
%ASAXBY*%
%FSLAX23Y23*%
%MOIN*%
%OFA0B0*%
%SFA1.0B1.0*%
%ADD10R,0.001000X0.001000*%
%LNSILK1*%
G90*
G70*
G54D10*
X0Y787D02*
X5117Y787D01*
X0Y786D02*
X5117Y786D01*
X0Y785D02*
X5117Y785D01*
X0Y784D02*
X5117Y784D01*
X0Y783D02*
X5117Y783D01*
X0Y782D02*
X5117Y782D01*
X0Y781D02*
X5117Y781D01*
X0Y780D02*
X5117Y780D01*
X0Y779D02*
X7Y779D01*
X5110Y779D02*
X5117Y779D01*
X0Y778D02*
X7Y778D01*
X5110Y778D02*
X5117Y778D01*
X0Y777D02*
X7Y777D01*
X5110Y777D02*
X5117Y777D01*
X0Y776D02*
X7Y776D01*
X5110Y776D02*
X5117Y776D01*
X0Y775D02*
X7Y775D01*
X5110Y775D02*
X5117Y775D01*
X0Y774D02*
X7Y774D01*
X5110Y774D02*
X5117Y774D01*
X0Y773D02*
X7Y773D01*
X5110Y773D02*
X5117Y773D01*
X0Y772D02*
X7Y772D01*
X5110Y772D02*
X5117Y772D01*
X0Y771D02*
X7Y771D01*
X5110Y771D02*
X5117Y771D01*
X0Y770D02*
X7Y770D01*
X5110Y770D02*
X5117Y770D01*
X0Y769D02*
X7Y769D01*
X5110Y769D02*
X5117Y769D01*
X0Y768D02*
X7Y768D01*
X5110Y768D02*
X5117Y768D01*
X0Y767D02*
X7Y767D01*
X5110Y767D02*
X5117Y767D01*
X0Y766D02*
X7Y766D01*
X5110Y766D02*
X5117Y766D01*
X0Y765D02*
X7Y765D01*
X5110Y765D02*
X5117Y765D01*
X0Y764D02*
X7Y764D01*
X5110Y764D02*
X5117Y764D01*
X0Y763D02*
X7Y763D01*
X5110Y763D02*
X5117Y763D01*
X0Y762D02*
X7Y762D01*
X5110Y762D02*
X5117Y762D01*
X0Y761D02*
X7Y761D01*
X5110Y761D02*
X5117Y761D01*
X0Y760D02*
X7Y760D01*
X5110Y760D02*
X5117Y760D01*
X0Y759D02*
X7Y759D01*
X5110Y759D02*
X5117Y759D01*
X0Y758D02*
X7Y758D01*
X5110Y758D02*
X5117Y758D01*
X0Y757D02*
X7Y757D01*
X5110Y757D02*
X5117Y757D01*
X0Y756D02*
X7Y756D01*
X5110Y756D02*
X5117Y756D01*
X0Y755D02*
X7Y755D01*
X5110Y755D02*
X5117Y755D01*
X0Y754D02*
X7Y754D01*
X5110Y754D02*
X5117Y754D01*
X0Y753D02*
X7Y753D01*
X5110Y753D02*
X5117Y753D01*
X0Y752D02*
X7Y752D01*
X5110Y752D02*
X5117Y752D01*
X0Y751D02*
X7Y751D01*
X5110Y751D02*
X5117Y751D01*
X0Y750D02*
X7Y750D01*
X5110Y750D02*
X5117Y750D01*
X0Y749D02*
X7Y749D01*
X5110Y749D02*
X5117Y749D01*
X0Y748D02*
X7Y748D01*
X5110Y748D02*
X5117Y748D01*
X0Y747D02*
X7Y747D01*
X5110Y747D02*
X5117Y747D01*
X0Y746D02*
X7Y746D01*
X5110Y746D02*
X5117Y746D01*
X0Y745D02*
X7Y745D01*
X1288Y745D02*
X1311Y745D01*
X1337Y745D02*
X1340Y745D01*
X2038Y745D02*
X2061Y745D01*
X2084Y745D02*
X2112Y745D01*
X2786Y745D02*
X2809Y745D01*
X2833Y745D02*
X2861Y745D01*
X3535Y745D02*
X3558Y745D01*
X3582Y745D02*
X3601Y745D01*
X4287Y745D02*
X4310Y745D01*
X4336Y745D02*
X4362Y745D01*
X5110Y745D02*
X5117Y745D01*
X0Y744D02*
X7Y744D01*
X1286Y744D02*
X1313Y744D01*
X1336Y744D02*
X1341Y744D01*
X2036Y744D02*
X2062Y744D01*
X2083Y744D02*
X2114Y744D01*
X2784Y744D02*
X2811Y744D01*
X2832Y744D02*
X2862Y744D01*
X3534Y744D02*
X3560Y744D01*
X3581Y744D02*
X3601Y744D01*
X4285Y744D02*
X4312Y744D01*
X4335Y744D02*
X4363Y744D01*
X5110Y744D02*
X5117Y744D01*
X0Y743D02*
X7Y743D01*
X1285Y743D02*
X1314Y743D01*
X1335Y743D02*
X1341Y743D01*
X2035Y743D02*
X2064Y743D01*
X2083Y743D02*
X2115Y743D01*
X2783Y743D02*
X2812Y743D01*
X2831Y743D02*
X2863Y743D01*
X3533Y743D02*
X3561Y743D01*
X3581Y743D02*
X3601Y743D01*
X4284Y743D02*
X4313Y743D01*
X4334Y743D02*
X4364Y743D01*
X5110Y743D02*
X5117Y743D01*
X0Y742D02*
X7Y742D01*
X1285Y742D02*
X1315Y742D01*
X1335Y742D02*
X1341Y742D01*
X2034Y742D02*
X2064Y742D01*
X2083Y742D02*
X2116Y742D01*
X2782Y742D02*
X2813Y742D01*
X2831Y742D02*
X2864Y742D01*
X3532Y742D02*
X3562Y742D01*
X3581Y742D02*
X3601Y742D01*
X4284Y742D02*
X4314Y742D01*
X4333Y742D02*
X4365Y742D01*
X5110Y742D02*
X5117Y742D01*
X0Y741D02*
X7Y741D01*
X1284Y741D02*
X1316Y741D01*
X1335Y741D02*
X1341Y741D01*
X2034Y741D02*
X2065Y741D01*
X2083Y741D02*
X2116Y741D01*
X2782Y741D02*
X2814Y741D01*
X2832Y741D02*
X2864Y741D01*
X3531Y741D02*
X3563Y741D01*
X3581Y741D02*
X3601Y741D01*
X4283Y741D02*
X4315Y741D01*
X4333Y741D02*
X4365Y741D01*
X5110Y741D02*
X5117Y741D01*
X0Y740D02*
X7Y740D01*
X1284Y740D02*
X1316Y740D01*
X1335Y740D02*
X1341Y740D01*
X2033Y740D02*
X2066Y740D01*
X2084Y740D02*
X2116Y740D01*
X2782Y740D02*
X2814Y740D01*
X2832Y740D02*
X2865Y740D01*
X3531Y740D02*
X3564Y740D01*
X3582Y740D02*
X3601Y740D01*
X4283Y740D02*
X4315Y740D01*
X4332Y740D02*
X4366Y740D01*
X5110Y740D02*
X5117Y740D01*
X0Y739D02*
X7Y739D01*
X1284Y739D02*
X1317Y739D01*
X1335Y739D02*
X1341Y739D01*
X1357Y739D02*
X1360Y739D01*
X2033Y739D02*
X2066Y739D01*
X2085Y739D02*
X2116Y739D01*
X2781Y739D02*
X2814Y739D01*
X2833Y739D02*
X2865Y739D01*
X3531Y739D02*
X3564Y739D01*
X3583Y739D02*
X3601Y739D01*
X4282Y739D02*
X4315Y739D01*
X4332Y739D02*
X4366Y739D01*
X5110Y739D02*
X5117Y739D01*
X0Y738D02*
X7Y738D01*
X1283Y738D02*
X1290Y738D01*
X1310Y738D02*
X1317Y738D01*
X1335Y738D02*
X1341Y738D01*
X1356Y738D02*
X1361Y738D01*
X2033Y738D02*
X2039Y738D01*
X2060Y738D02*
X2066Y738D01*
X2110Y738D02*
X2116Y738D01*
X2781Y738D02*
X2787Y738D01*
X2808Y738D02*
X2815Y738D01*
X2859Y738D02*
X2865Y738D01*
X3531Y738D02*
X3537Y738D01*
X3557Y738D02*
X3564Y738D01*
X3594Y738D02*
X3601Y738D01*
X4282Y738D02*
X4288Y738D01*
X4309Y738D02*
X4316Y738D01*
X4332Y738D02*
X4338Y738D01*
X4360Y738D02*
X4366Y738D01*
X5110Y738D02*
X5117Y738D01*
X0Y737D02*
X7Y737D01*
X1284Y737D02*
X1290Y737D01*
X1311Y737D02*
X1317Y737D01*
X1335Y737D02*
X1341Y737D01*
X1356Y737D02*
X1362Y737D01*
X2033Y737D02*
X2039Y737D01*
X2060Y737D02*
X2066Y737D01*
X2110Y737D02*
X2116Y737D01*
X2781Y737D02*
X2788Y737D01*
X2809Y737D02*
X2815Y737D01*
X2859Y737D02*
X2865Y737D01*
X3531Y737D02*
X3537Y737D01*
X3558Y737D02*
X3564Y737D01*
X3594Y737D02*
X3601Y737D01*
X4282Y737D02*
X4289Y737D01*
X4310Y737D02*
X4316Y737D01*
X4332Y737D02*
X4338Y737D01*
X4360Y737D02*
X4366Y737D01*
X5110Y737D02*
X5117Y737D01*
X0Y736D02*
X7Y736D01*
X1284Y736D02*
X1291Y736D01*
X1311Y736D02*
X1317Y736D01*
X1335Y736D02*
X1341Y736D01*
X1356Y736D02*
X1362Y736D01*
X2033Y736D02*
X2040Y736D01*
X2061Y736D02*
X2066Y736D01*
X2110Y736D02*
X2116Y736D01*
X2782Y736D02*
X2788Y736D01*
X2809Y736D02*
X2815Y736D01*
X2859Y736D02*
X2865Y736D01*
X3531Y736D02*
X3538Y736D01*
X3558Y736D02*
X3564Y736D01*
X3594Y736D02*
X3601Y736D01*
X4283Y736D02*
X4290Y736D01*
X4310Y736D02*
X4316Y736D01*
X4332Y736D02*
X4338Y736D01*
X4360Y736D02*
X4366Y736D01*
X5110Y736D02*
X5117Y736D01*
X0Y735D02*
X7Y735D01*
X1284Y735D02*
X1291Y735D01*
X1311Y735D02*
X1317Y735D01*
X1335Y735D02*
X1341Y735D01*
X1356Y735D02*
X1362Y735D01*
X2033Y735D02*
X2041Y735D01*
X2061Y735D02*
X2066Y735D01*
X2110Y735D02*
X2116Y735D01*
X2782Y735D02*
X2789Y735D01*
X2809Y735D02*
X2815Y735D01*
X2859Y735D02*
X2865Y735D01*
X3531Y735D02*
X3539Y735D01*
X3559Y735D02*
X3564Y735D01*
X3594Y735D02*
X3601Y735D01*
X4283Y735D02*
X4290Y735D01*
X4310Y735D02*
X4316Y735D01*
X4332Y735D02*
X4338Y735D01*
X4360Y735D02*
X4366Y735D01*
X5110Y735D02*
X5117Y735D01*
X0Y734D02*
X7Y734D01*
X1284Y734D02*
X1292Y734D01*
X1312Y734D02*
X1316Y734D01*
X1335Y734D02*
X1341Y734D01*
X1356Y734D02*
X1362Y734D01*
X2034Y734D02*
X2042Y734D01*
X2061Y734D02*
X2066Y734D01*
X2110Y734D02*
X2116Y734D01*
X2782Y734D02*
X2790Y734D01*
X2810Y734D02*
X2814Y734D01*
X2859Y734D02*
X2865Y734D01*
X3532Y734D02*
X3539Y734D01*
X3559Y734D02*
X3563Y734D01*
X3594Y734D02*
X3601Y734D01*
X4283Y734D02*
X4291Y734D01*
X4311Y734D02*
X4315Y734D01*
X4332Y734D02*
X4338Y734D01*
X4360Y734D02*
X4366Y734D01*
X5110Y734D02*
X5117Y734D01*
X0Y733D02*
X7Y733D01*
X1285Y733D02*
X1293Y733D01*
X1313Y733D02*
X1315Y733D01*
X1335Y733D02*
X1341Y733D01*
X1356Y733D02*
X1362Y733D01*
X2034Y733D02*
X2042Y733D01*
X2063Y733D02*
X2064Y733D01*
X2110Y733D02*
X2116Y733D01*
X2783Y733D02*
X2791Y733D01*
X2811Y733D02*
X2812Y733D01*
X2859Y733D02*
X2865Y733D01*
X3532Y733D02*
X3540Y733D01*
X3561Y733D02*
X3562Y733D01*
X3594Y733D02*
X3601Y733D01*
X4284Y733D02*
X4292Y733D01*
X4312Y733D02*
X4313Y733D01*
X4332Y733D02*
X4338Y733D01*
X4360Y733D02*
X4366Y733D01*
X5110Y733D02*
X5117Y733D01*
X0Y732D02*
X7Y732D01*
X1286Y732D02*
X1294Y732D01*
X1335Y732D02*
X1341Y732D01*
X1356Y732D02*
X1362Y732D01*
X2035Y732D02*
X2043Y732D01*
X2110Y732D02*
X2116Y732D01*
X2784Y732D02*
X2792Y732D01*
X2859Y732D02*
X2865Y732D01*
X3533Y732D02*
X3541Y732D01*
X3594Y732D02*
X3601Y732D01*
X4285Y732D02*
X4293Y732D01*
X4332Y732D02*
X4338Y732D01*
X4360Y732D02*
X4366Y732D01*
X5110Y732D02*
X5117Y732D01*
X0Y731D02*
X7Y731D01*
X1287Y731D02*
X1295Y731D01*
X1335Y731D02*
X1341Y731D01*
X1356Y731D02*
X1362Y731D01*
X2036Y731D02*
X2044Y731D01*
X2110Y731D02*
X2116Y731D01*
X2784Y731D02*
X2792Y731D01*
X2859Y731D02*
X2865Y731D01*
X3534Y731D02*
X3542Y731D01*
X3594Y731D02*
X3601Y731D01*
X4285Y731D02*
X4293Y731D01*
X4332Y731D02*
X4338Y731D01*
X4360Y731D02*
X4366Y731D01*
X5110Y731D02*
X5117Y731D01*
X0Y730D02*
X7Y730D01*
X1287Y730D02*
X1295Y730D01*
X1335Y730D02*
X1341Y730D01*
X1356Y730D02*
X1362Y730D01*
X2037Y730D02*
X2045Y730D01*
X2110Y730D02*
X2116Y730D01*
X2785Y730D02*
X2793Y730D01*
X2859Y730D02*
X2865Y730D01*
X3535Y730D02*
X3543Y730D01*
X3594Y730D02*
X3601Y730D01*
X4286Y730D02*
X4294Y730D01*
X4332Y730D02*
X4338Y730D01*
X4360Y730D02*
X4366Y730D01*
X5110Y730D02*
X5117Y730D01*
X0Y729D02*
X7Y729D01*
X1288Y729D02*
X1296Y729D01*
X1335Y729D02*
X1341Y729D01*
X1356Y729D02*
X1362Y729D01*
X2038Y729D02*
X2046Y729D01*
X2110Y729D02*
X2116Y729D01*
X2786Y729D02*
X2794Y729D01*
X2859Y729D02*
X2865Y729D01*
X3535Y729D02*
X3543Y729D01*
X3594Y729D02*
X3601Y729D01*
X4287Y729D02*
X4295Y729D01*
X4332Y729D02*
X4338Y729D01*
X4360Y729D02*
X4366Y729D01*
X5110Y729D02*
X5117Y729D01*
X0Y728D02*
X7Y728D01*
X1289Y728D02*
X1297Y728D01*
X1335Y728D02*
X1341Y728D01*
X1356Y728D02*
X1362Y728D01*
X2038Y728D02*
X2046Y728D01*
X2110Y728D02*
X2116Y728D01*
X2787Y728D02*
X2795Y728D01*
X2859Y728D02*
X2865Y728D01*
X3536Y728D02*
X3544Y728D01*
X3594Y728D02*
X3601Y728D01*
X4288Y728D02*
X4296Y728D01*
X4332Y728D02*
X4338Y728D01*
X4360Y728D02*
X4366Y728D01*
X5110Y728D02*
X5117Y728D01*
X0Y727D02*
X7Y727D01*
X1290Y727D02*
X1298Y727D01*
X1335Y727D02*
X1341Y727D01*
X1356Y727D02*
X1362Y727D01*
X2039Y727D02*
X2047Y727D01*
X2110Y727D02*
X2116Y727D01*
X2787Y727D02*
X2795Y727D01*
X2859Y727D02*
X2865Y727D01*
X3537Y727D02*
X3545Y727D01*
X3594Y727D02*
X3601Y727D01*
X4289Y727D02*
X4297Y727D01*
X4332Y727D02*
X4338Y727D01*
X4360Y727D02*
X4366Y727D01*
X5110Y727D02*
X5117Y727D01*
X0Y726D02*
X7Y726D01*
X1290Y726D02*
X1298Y726D01*
X1335Y726D02*
X1341Y726D01*
X1356Y726D02*
X1362Y726D01*
X2040Y726D02*
X2048Y726D01*
X2110Y726D02*
X2116Y726D01*
X2788Y726D02*
X2796Y726D01*
X2859Y726D02*
X2865Y726D01*
X3538Y726D02*
X3546Y726D01*
X3594Y726D02*
X3601Y726D01*
X4289Y726D02*
X4297Y726D01*
X4332Y726D02*
X4338Y726D01*
X4360Y726D02*
X4366Y726D01*
X5110Y726D02*
X5117Y726D01*
X0Y725D02*
X7Y725D01*
X1291Y725D02*
X1299Y725D01*
X1335Y725D02*
X1341Y725D01*
X1356Y725D02*
X1362Y725D01*
X2041Y725D02*
X2049Y725D01*
X2110Y725D02*
X2116Y725D01*
X2789Y725D02*
X2797Y725D01*
X2859Y725D02*
X2865Y725D01*
X3538Y725D02*
X3546Y725D01*
X3594Y725D02*
X3601Y725D01*
X4290Y725D02*
X4298Y725D01*
X4332Y725D02*
X4338Y725D01*
X4360Y725D02*
X4366Y725D01*
X5110Y725D02*
X5117Y725D01*
X0Y724D02*
X7Y724D01*
X1292Y724D02*
X1300Y724D01*
X1335Y724D02*
X1341Y724D01*
X1356Y724D02*
X1362Y724D01*
X2041Y724D02*
X2049Y724D01*
X2110Y724D02*
X2116Y724D01*
X2790Y724D02*
X2798Y724D01*
X2859Y724D02*
X2865Y724D01*
X3539Y724D02*
X3547Y724D01*
X3594Y724D02*
X3601Y724D01*
X4291Y724D02*
X4299Y724D01*
X4332Y724D02*
X4338Y724D01*
X4360Y724D02*
X4366Y724D01*
X5110Y724D02*
X5117Y724D01*
X0Y723D02*
X7Y723D01*
X1293Y723D02*
X1301Y723D01*
X1335Y723D02*
X1341Y723D01*
X1356Y723D02*
X1362Y723D01*
X2042Y723D02*
X2050Y723D01*
X2109Y723D02*
X2116Y723D01*
X2791Y723D02*
X2799Y723D01*
X2859Y723D02*
X2865Y723D01*
X3540Y723D02*
X3548Y723D01*
X3594Y723D02*
X3601Y723D01*
X4292Y723D02*
X4300Y723D01*
X4332Y723D02*
X4338Y723D01*
X4360Y723D02*
X4366Y723D01*
X5110Y723D02*
X5117Y723D01*
X0Y722D02*
X7Y722D01*
X1294Y722D02*
X1302Y722D01*
X1335Y722D02*
X1341Y722D01*
X1356Y722D02*
X1362Y722D01*
X2043Y722D02*
X2051Y722D01*
X2092Y722D02*
X2116Y722D01*
X2791Y722D02*
X2799Y722D01*
X2837Y722D02*
X2865Y722D01*
X3541Y722D02*
X3549Y722D01*
X3594Y722D02*
X3601Y722D01*
X4292Y722D02*
X4300Y722D01*
X4332Y722D02*
X4338Y722D01*
X4360Y722D02*
X4366Y722D01*
X5110Y722D02*
X5117Y722D01*
X0Y721D02*
X7Y721D01*
X1294Y721D02*
X1302Y721D01*
X1335Y721D02*
X1341Y721D01*
X1356Y721D02*
X1362Y721D01*
X2044Y721D02*
X2052Y721D01*
X2091Y721D02*
X2115Y721D01*
X2792Y721D02*
X2800Y721D01*
X2835Y721D02*
X2865Y721D01*
X3542Y721D02*
X3550Y721D01*
X3594Y721D02*
X3601Y721D01*
X4293Y721D02*
X4301Y721D01*
X4332Y721D02*
X4338Y721D01*
X4360Y721D02*
X4366Y721D01*
X5110Y721D02*
X5117Y721D01*
X0Y720D02*
X7Y720D01*
X1295Y720D02*
X1303Y720D01*
X1335Y720D02*
X1341Y720D01*
X1356Y720D02*
X1362Y720D01*
X2045Y720D02*
X2053Y720D01*
X2090Y720D02*
X2115Y720D01*
X2793Y720D02*
X2801Y720D01*
X2833Y720D02*
X2865Y720D01*
X3542Y720D02*
X3550Y720D01*
X3594Y720D02*
X3601Y720D01*
X4294Y720D02*
X4302Y720D01*
X4332Y720D02*
X4338Y720D01*
X4360Y720D02*
X4366Y720D01*
X5110Y720D02*
X5117Y720D01*
X0Y719D02*
X7Y719D01*
X1296Y719D02*
X1304Y719D01*
X1335Y719D02*
X1341Y719D01*
X1356Y719D02*
X1362Y719D01*
X2045Y719D02*
X2053Y719D01*
X2090Y719D02*
X2114Y719D01*
X2794Y719D02*
X2802Y719D01*
X2832Y719D02*
X2864Y719D01*
X3543Y719D02*
X3551Y719D01*
X3594Y719D02*
X3601Y719D01*
X4295Y719D02*
X4303Y719D01*
X4332Y719D02*
X4338Y719D01*
X4360Y719D02*
X4366Y719D01*
X5110Y719D02*
X5117Y719D01*
X0Y718D02*
X7Y718D01*
X1297Y718D02*
X1305Y718D01*
X1335Y718D02*
X1341Y718D01*
X1356Y718D02*
X1362Y718D01*
X2046Y718D02*
X2054Y718D01*
X2090Y718D02*
X2114Y718D01*
X2794Y718D02*
X2802Y718D01*
X2832Y718D02*
X2863Y718D01*
X3544Y718D02*
X3552Y718D01*
X3594Y718D02*
X3601Y718D01*
X4296Y718D02*
X4304Y718D01*
X4332Y718D02*
X4338Y718D01*
X4360Y718D02*
X4366Y718D01*
X5110Y718D02*
X5117Y718D01*
X0Y717D02*
X7Y717D01*
X1297Y717D02*
X1305Y717D01*
X1335Y717D02*
X1341Y717D01*
X1356Y717D02*
X1362Y717D01*
X2047Y717D02*
X2055Y717D01*
X2090Y717D02*
X2115Y717D01*
X2795Y717D02*
X2803Y717D01*
X2832Y717D02*
X2862Y717D01*
X3545Y717D02*
X3553Y717D01*
X3594Y717D02*
X3601Y717D01*
X4296Y717D02*
X4304Y717D01*
X4332Y717D02*
X4338Y717D01*
X4360Y717D02*
X4366Y717D01*
X5110Y717D02*
X5117Y717D01*
X0Y716D02*
X7Y716D01*
X1298Y716D02*
X1306Y716D01*
X1335Y716D02*
X1363Y716D01*
X2048Y716D02*
X2056Y716D01*
X2091Y716D02*
X2115Y716D01*
X2796Y716D02*
X2804Y716D01*
X2831Y716D02*
X2861Y716D01*
X3545Y716D02*
X3553Y716D01*
X3594Y716D02*
X3601Y716D01*
X3611Y716D02*
X3612Y716D01*
X4297Y716D02*
X4305Y716D01*
X4332Y716D02*
X4338Y716D01*
X4360Y716D02*
X4366Y716D01*
X5110Y716D02*
X5117Y716D01*
X0Y715D02*
X7Y715D01*
X1299Y715D02*
X1307Y715D01*
X1335Y715D02*
X1364Y715D01*
X2048Y715D02*
X2056Y715D01*
X2108Y715D02*
X2116Y715D01*
X2797Y715D02*
X2805Y715D01*
X2831Y715D02*
X2838Y715D01*
X3546Y715D02*
X3554Y715D01*
X3594Y715D02*
X3601Y715D01*
X3609Y715D02*
X3613Y715D01*
X4298Y715D02*
X4306Y715D01*
X4332Y715D02*
X4338Y715D01*
X4360Y715D02*
X4366Y715D01*
X5110Y715D02*
X5117Y715D01*
X0Y714D02*
X7Y714D01*
X1300Y714D02*
X1308Y714D01*
X1335Y714D02*
X1365Y714D01*
X2049Y714D02*
X2057Y714D01*
X2109Y714D02*
X2116Y714D01*
X2798Y714D02*
X2806Y714D01*
X2831Y714D02*
X2837Y714D01*
X3547Y714D02*
X3555Y714D01*
X3594Y714D02*
X3601Y714D01*
X3609Y714D02*
X3614Y714D01*
X4299Y714D02*
X4307Y714D01*
X4332Y714D02*
X4338Y714D01*
X4360Y714D02*
X4366Y714D01*
X5110Y714D02*
X5117Y714D01*
X0Y713D02*
X7Y713D01*
X1301Y713D02*
X1309Y713D01*
X1335Y713D02*
X1365Y713D01*
X2050Y713D02*
X2058Y713D01*
X2110Y713D02*
X2116Y713D01*
X2798Y713D02*
X2806Y713D01*
X2831Y713D02*
X2837Y713D01*
X3548Y713D02*
X3556Y713D01*
X3594Y713D02*
X3601Y713D01*
X3608Y713D02*
X3614Y713D01*
X4299Y713D02*
X4307Y713D01*
X4332Y713D02*
X4338Y713D01*
X4360Y713D02*
X4366Y713D01*
X5110Y713D02*
X5117Y713D01*
X0Y712D02*
X7Y712D01*
X1301Y712D02*
X1309Y712D01*
X1335Y712D02*
X1365Y712D01*
X2051Y712D02*
X2059Y712D01*
X2110Y712D02*
X2116Y712D01*
X2799Y712D02*
X2807Y712D01*
X2831Y712D02*
X2837Y712D01*
X3549Y712D02*
X3557Y712D01*
X3594Y712D02*
X3601Y712D01*
X3608Y712D02*
X3614Y712D01*
X4300Y712D02*
X4308Y712D01*
X4332Y712D02*
X4338Y712D01*
X4360Y712D02*
X4366Y712D01*
X5110Y712D02*
X5117Y712D01*
X0Y711D02*
X7Y711D01*
X1302Y711D02*
X1310Y711D01*
X1335Y711D02*
X1365Y711D01*
X2052Y711D02*
X2060Y711D01*
X2110Y711D02*
X2116Y711D01*
X2800Y711D02*
X2808Y711D01*
X2831Y711D02*
X2837Y711D01*
X3549Y711D02*
X3557Y711D01*
X3594Y711D02*
X3601Y711D01*
X3608Y711D02*
X3614Y711D01*
X4301Y711D02*
X4309Y711D01*
X4332Y711D02*
X4338Y711D01*
X4360Y711D02*
X4366Y711D01*
X5110Y711D02*
X5117Y711D01*
X0Y710D02*
X7Y710D01*
X1303Y710D02*
X1311Y710D01*
X1335Y710D02*
X1364Y710D01*
X2052Y710D02*
X2060Y710D01*
X2110Y710D02*
X2116Y710D01*
X2801Y710D02*
X2809Y710D01*
X2831Y710D02*
X2837Y710D01*
X3550Y710D02*
X3558Y710D01*
X3594Y710D02*
X3601Y710D01*
X3608Y710D02*
X3614Y710D01*
X4302Y710D02*
X4310Y710D01*
X4332Y710D02*
X4338Y710D01*
X4360Y710D02*
X4366Y710D01*
X5110Y710D02*
X5117Y710D01*
X0Y709D02*
X7Y709D01*
X1304Y709D02*
X1312Y709D01*
X1356Y709D02*
X1362Y709D01*
X2053Y709D02*
X2061Y709D01*
X2110Y709D02*
X2116Y709D01*
X2801Y709D02*
X2809Y709D01*
X2831Y709D02*
X2837Y709D01*
X3551Y709D02*
X3559Y709D01*
X3594Y709D02*
X3601Y709D01*
X3608Y709D02*
X3614Y709D01*
X4303Y709D02*
X4311Y709D01*
X4332Y709D02*
X4338Y709D01*
X4360Y709D02*
X4366Y709D01*
X5110Y709D02*
X5117Y709D01*
X0Y708D02*
X7Y708D01*
X1304Y708D02*
X1312Y708D01*
X1356Y708D02*
X1362Y708D01*
X2054Y708D02*
X2062Y708D01*
X2110Y708D02*
X2116Y708D01*
X2802Y708D02*
X2810Y708D01*
X2831Y708D02*
X2837Y708D01*
X3552Y708D02*
X3560Y708D01*
X3594Y708D02*
X3601Y708D01*
X3608Y708D02*
X3614Y708D01*
X4303Y708D02*
X4311Y708D01*
X4332Y708D02*
X4338Y708D01*
X4360Y708D02*
X4366Y708D01*
X5110Y708D02*
X5117Y708D01*
X0Y707D02*
X7Y707D01*
X1305Y707D02*
X1313Y707D01*
X1356Y707D02*
X1362Y707D01*
X2055Y707D02*
X2063Y707D01*
X2110Y707D02*
X2116Y707D01*
X2803Y707D02*
X2811Y707D01*
X2831Y707D02*
X2837Y707D01*
X3552Y707D02*
X3560Y707D01*
X3594Y707D02*
X3601Y707D01*
X3608Y707D02*
X3614Y707D01*
X4304Y707D02*
X4312Y707D01*
X4332Y707D02*
X4338Y707D01*
X4360Y707D02*
X4366Y707D01*
X5110Y707D02*
X5117Y707D01*
X0Y706D02*
X7Y706D01*
X1306Y706D02*
X1314Y706D01*
X1356Y706D02*
X1362Y706D01*
X2055Y706D02*
X2063Y706D01*
X2110Y706D02*
X2116Y706D01*
X2804Y706D02*
X2812Y706D01*
X2831Y706D02*
X2837Y706D01*
X3553Y706D02*
X3561Y706D01*
X3594Y706D02*
X3601Y706D01*
X3608Y706D02*
X3614Y706D01*
X4305Y706D02*
X4313Y706D01*
X4332Y706D02*
X4338Y706D01*
X4360Y706D02*
X4366Y706D01*
X5110Y706D02*
X5117Y706D01*
X0Y705D02*
X7Y705D01*
X1307Y705D02*
X1315Y705D01*
X1356Y705D02*
X1362Y705D01*
X2056Y705D02*
X2064Y705D01*
X2110Y705D02*
X2116Y705D01*
X2805Y705D02*
X2813Y705D01*
X2831Y705D02*
X2837Y705D01*
X3554Y705D02*
X3562Y705D01*
X3594Y705D02*
X3601Y705D01*
X3608Y705D02*
X3614Y705D01*
X4306Y705D02*
X4314Y705D01*
X4332Y705D02*
X4338Y705D01*
X4360Y705D02*
X4366Y705D01*
X5110Y705D02*
X5117Y705D01*
X0Y704D02*
X7Y704D01*
X1285Y704D02*
X1288Y704D01*
X1308Y704D02*
X1315Y704D01*
X1356Y704D02*
X1362Y704D01*
X2035Y704D02*
X2037Y704D01*
X2057Y704D02*
X2065Y704D01*
X2110Y704D02*
X2116Y704D01*
X2783Y704D02*
X2785Y704D01*
X2805Y704D02*
X2813Y704D01*
X2831Y704D02*
X2837Y704D01*
X3533Y704D02*
X3535Y704D01*
X3555Y704D02*
X3563Y704D01*
X3594Y704D02*
X3601Y704D01*
X3608Y704D02*
X3614Y704D01*
X4284Y704D02*
X4286Y704D01*
X4306Y704D02*
X4314Y704D01*
X4332Y704D02*
X4338Y704D01*
X4360Y704D02*
X4366Y704D01*
X5110Y704D02*
X5117Y704D01*
X0Y703D02*
X7Y703D01*
X1284Y703D02*
X1289Y703D01*
X1308Y703D02*
X1316Y703D01*
X1356Y703D02*
X1362Y703D01*
X2034Y703D02*
X2038Y703D01*
X2058Y703D02*
X2065Y703D01*
X2110Y703D02*
X2116Y703D01*
X2782Y703D02*
X2787Y703D01*
X2806Y703D02*
X2814Y703D01*
X2831Y703D02*
X2837Y703D01*
X3531Y703D02*
X3536Y703D01*
X3556Y703D02*
X3563Y703D01*
X3594Y703D02*
X3601Y703D01*
X3608Y703D02*
X3614Y703D01*
X4283Y703D02*
X4288Y703D01*
X4307Y703D02*
X4315Y703D01*
X4332Y703D02*
X4338Y703D01*
X4360Y703D02*
X4366Y703D01*
X5110Y703D02*
X5117Y703D01*
X0Y702D02*
X7Y702D01*
X1284Y702D02*
X1289Y702D01*
X1309Y702D02*
X1317Y702D01*
X1356Y702D02*
X1362Y702D01*
X2033Y702D02*
X2039Y702D01*
X2059Y702D02*
X2066Y702D01*
X2110Y702D02*
X2116Y702D01*
X2781Y702D02*
X2787Y702D01*
X2807Y702D02*
X2814Y702D01*
X2831Y702D02*
X2837Y702D01*
X3531Y702D02*
X3537Y702D01*
X3556Y702D02*
X3564Y702D01*
X3594Y702D02*
X3601Y702D01*
X3608Y702D02*
X3614Y702D01*
X4283Y702D02*
X4288Y702D01*
X4308Y702D02*
X4315Y702D01*
X4332Y702D02*
X4338Y702D01*
X4360Y702D02*
X4366Y702D01*
X5110Y702D02*
X5117Y702D01*
X0Y701D02*
X7Y701D01*
X1283Y701D02*
X1289Y701D01*
X1310Y701D02*
X1317Y701D01*
X1356Y701D02*
X1362Y701D01*
X2033Y701D02*
X2039Y701D01*
X2059Y701D02*
X2066Y701D01*
X2110Y701D02*
X2116Y701D01*
X2781Y701D02*
X2787Y701D01*
X2808Y701D02*
X2815Y701D01*
X2831Y701D02*
X2837Y701D01*
X3531Y701D02*
X3537Y701D01*
X3557Y701D02*
X3564Y701D01*
X3594Y701D02*
X3601Y701D01*
X3608Y701D02*
X3614Y701D01*
X4282Y701D02*
X4288Y701D01*
X4309Y701D02*
X4316Y701D01*
X4332Y701D02*
X4338Y701D01*
X4360Y701D02*
X4366Y701D01*
X5110Y701D02*
X5117Y701D01*
X0Y700D02*
X7Y700D01*
X1284Y700D02*
X1290Y700D01*
X1311Y700D02*
X1317Y700D01*
X1356Y700D02*
X1362Y700D01*
X2033Y700D02*
X2039Y700D01*
X2060Y700D02*
X2066Y700D01*
X2110Y700D02*
X2116Y700D01*
X2781Y700D02*
X2788Y700D01*
X2808Y700D02*
X2815Y700D01*
X2831Y700D02*
X2837Y700D01*
X3531Y700D02*
X3537Y700D01*
X3558Y700D02*
X3564Y700D01*
X3594Y700D02*
X3601Y700D01*
X3608Y700D02*
X3614Y700D01*
X4282Y700D02*
X4289Y700D01*
X4310Y700D02*
X4316Y700D01*
X4332Y700D02*
X4338Y700D01*
X4360Y700D02*
X4366Y700D01*
X5110Y700D02*
X5117Y700D01*
X0Y699D02*
X7Y699D01*
X1284Y699D02*
X1291Y699D01*
X1311Y699D02*
X1317Y699D01*
X1356Y699D02*
X1362Y699D01*
X2033Y699D02*
X2040Y699D01*
X2060Y699D02*
X2066Y699D01*
X2110Y699D02*
X2116Y699D01*
X2781Y699D02*
X2788Y699D01*
X2809Y699D02*
X2815Y699D01*
X2831Y699D02*
X2837Y699D01*
X3531Y699D02*
X3538Y699D01*
X3558Y699D02*
X3564Y699D01*
X3594Y699D02*
X3601Y699D01*
X3608Y699D02*
X3614Y699D01*
X4283Y699D02*
X4289Y699D01*
X4310Y699D02*
X4316Y699D01*
X4332Y699D02*
X4338Y699D01*
X4360Y699D02*
X4366Y699D01*
X5110Y699D02*
X5117Y699D01*
X0Y698D02*
X7Y698D01*
X1284Y698D02*
X1317Y698D01*
X1356Y698D02*
X1362Y698D01*
X2033Y698D02*
X2066Y698D01*
X2085Y698D02*
X2116Y698D01*
X2782Y698D02*
X2815Y698D01*
X2831Y698D02*
X2863Y698D01*
X3531Y698D02*
X3564Y698D01*
X3582Y698D02*
X3614Y698D01*
X4283Y698D02*
X4316Y698D01*
X4332Y698D02*
X4366Y698D01*
X5110Y698D02*
X5117Y698D01*
X0Y697D02*
X7Y697D01*
X1284Y697D02*
X1317Y697D01*
X1356Y697D02*
X1362Y697D01*
X2034Y697D02*
X2066Y697D01*
X2084Y697D02*
X2116Y697D01*
X2782Y697D02*
X2814Y697D01*
X2831Y697D02*
X2864Y697D01*
X3532Y697D02*
X3564Y697D01*
X3581Y697D02*
X3614Y697D01*
X4283Y697D02*
X4315Y697D01*
X4333Y697D02*
X4366Y697D01*
X5110Y697D02*
X5117Y697D01*
X0Y696D02*
X7Y696D01*
X1285Y696D02*
X1316Y696D01*
X1356Y696D02*
X1362Y696D01*
X2034Y696D02*
X2066Y696D01*
X2083Y696D02*
X2116Y696D01*
X2783Y696D02*
X2814Y696D01*
X2831Y696D02*
X2865Y696D01*
X3532Y696D02*
X3563Y696D01*
X3581Y696D02*
X3614Y696D01*
X4284Y696D02*
X4315Y696D01*
X4333Y696D02*
X4365Y696D01*
X5110Y696D02*
X5117Y696D01*
X0Y695D02*
X7Y695D01*
X1286Y695D02*
X1316Y695D01*
X1356Y695D02*
X1362Y695D01*
X2035Y695D02*
X2065Y695D01*
X2083Y695D02*
X2115Y695D01*
X2784Y695D02*
X2813Y695D01*
X2831Y695D02*
X2865Y695D01*
X3533Y695D02*
X3563Y695D01*
X3581Y695D02*
X3614Y695D01*
X4285Y695D02*
X4314Y695D01*
X4333Y695D02*
X4365Y695D01*
X5110Y695D02*
X5117Y695D01*
X0Y694D02*
X7Y694D01*
X1287Y694D02*
X1315Y694D01*
X1356Y694D02*
X1362Y694D01*
X2036Y694D02*
X2064Y694D01*
X2083Y694D02*
X2115Y694D01*
X2784Y694D02*
X2813Y694D01*
X2831Y694D02*
X2865Y694D01*
X3534Y694D02*
X3562Y694D01*
X3581Y694D02*
X3614Y694D01*
X4286Y694D02*
X4314Y694D01*
X4334Y694D02*
X4364Y694D01*
X5110Y694D02*
X5117Y694D01*
X0Y693D02*
X7Y693D01*
X1288Y693D02*
X1314Y693D01*
X1357Y693D02*
X1361Y693D01*
X2037Y693D02*
X2063Y693D01*
X2084Y693D02*
X2114Y693D01*
X2786Y693D02*
X2811Y693D01*
X2831Y693D02*
X2864Y693D01*
X3535Y693D02*
X3561Y693D01*
X3581Y693D02*
X3614Y693D01*
X4287Y693D02*
X4313Y693D01*
X4335Y693D02*
X4363Y693D01*
X5110Y693D02*
X5117Y693D01*
X0Y692D02*
X7Y692D01*
X1290Y692D02*
X1312Y692D01*
X1358Y692D02*
X1360Y692D01*
X2040Y692D02*
X2061Y692D01*
X2085Y692D02*
X2112Y692D01*
X2788Y692D02*
X2810Y692D01*
X2831Y692D02*
X2863Y692D01*
X3537Y692D02*
X3559Y692D01*
X3583Y692D02*
X3612Y692D01*
X4289Y692D02*
X4311Y692D01*
X4337Y692D02*
X4361Y692D01*
X5110Y692D02*
X5117Y692D01*
X0Y691D02*
X7Y691D01*
X5110Y691D02*
X5117Y691D01*
X0Y690D02*
X7Y690D01*
X5110Y690D02*
X5117Y690D01*
X0Y689D02*
X7Y689D01*
X5110Y689D02*
X5117Y689D01*
X0Y688D02*
X7Y688D01*
X5110Y688D02*
X5117Y688D01*
X0Y687D02*
X7Y687D01*
X5110Y687D02*
X5117Y687D01*
X0Y686D02*
X7Y686D01*
X5110Y686D02*
X5117Y686D01*
X0Y685D02*
X7Y685D01*
X5110Y685D02*
X5117Y685D01*
X0Y684D02*
X7Y684D01*
X5110Y684D02*
X5117Y684D01*
X0Y683D02*
X7Y683D01*
X5110Y683D02*
X5117Y683D01*
X0Y682D02*
X7Y682D01*
X5110Y682D02*
X5117Y682D01*
X0Y681D02*
X7Y681D01*
X5110Y681D02*
X5117Y681D01*
X0Y680D02*
X7Y680D01*
X5110Y680D02*
X5117Y680D01*
X0Y679D02*
X7Y679D01*
X5110Y679D02*
X5117Y679D01*
X0Y678D02*
X7Y678D01*
X5110Y678D02*
X5117Y678D01*
X0Y677D02*
X7Y677D01*
X5110Y677D02*
X5117Y677D01*
X0Y676D02*
X7Y676D01*
X5110Y676D02*
X5117Y676D01*
X0Y675D02*
X7Y675D01*
X5110Y675D02*
X5117Y675D01*
X0Y674D02*
X7Y674D01*
X5110Y674D02*
X5117Y674D01*
X0Y673D02*
X7Y673D01*
X5110Y673D02*
X5117Y673D01*
X0Y672D02*
X7Y672D01*
X5110Y672D02*
X5117Y672D01*
X0Y671D02*
X7Y671D01*
X5110Y671D02*
X5117Y671D01*
X0Y670D02*
X7Y670D01*
X5110Y670D02*
X5117Y670D01*
X0Y669D02*
X7Y669D01*
X5110Y669D02*
X5117Y669D01*
X0Y668D02*
X7Y668D01*
X5110Y668D02*
X5117Y668D01*
X0Y667D02*
X7Y667D01*
X5110Y667D02*
X5117Y667D01*
X0Y666D02*
X7Y666D01*
X5110Y666D02*
X5117Y666D01*
X0Y665D02*
X7Y665D01*
X5110Y665D02*
X5117Y665D01*
X0Y664D02*
X7Y664D01*
X5110Y664D02*
X5117Y664D01*
X0Y663D02*
X7Y663D01*
X5110Y663D02*
X5117Y663D01*
X0Y662D02*
X7Y662D01*
X5110Y662D02*
X5117Y662D01*
X0Y661D02*
X7Y661D01*
X5110Y661D02*
X5117Y661D01*
X0Y660D02*
X7Y660D01*
X5110Y660D02*
X5117Y660D01*
X0Y659D02*
X7Y659D01*
X5110Y659D02*
X5117Y659D01*
X0Y658D02*
X7Y658D01*
X5110Y658D02*
X5117Y658D01*
X0Y657D02*
X7Y657D01*
X5110Y657D02*
X5117Y657D01*
X0Y656D02*
X7Y656D01*
X5110Y656D02*
X5117Y656D01*
X0Y655D02*
X7Y655D01*
X5110Y655D02*
X5117Y655D01*
X0Y654D02*
X7Y654D01*
X5110Y654D02*
X5117Y654D01*
X0Y653D02*
X7Y653D01*
X5110Y653D02*
X5117Y653D01*
X0Y652D02*
X7Y652D01*
X5110Y652D02*
X5117Y652D01*
X0Y651D02*
X7Y651D01*
X5110Y651D02*
X5117Y651D01*
X0Y650D02*
X7Y650D01*
X5110Y650D02*
X5117Y650D01*
X0Y649D02*
X7Y649D01*
X5110Y649D02*
X5117Y649D01*
X0Y648D02*
X7Y648D01*
X5110Y648D02*
X5117Y648D01*
X0Y647D02*
X7Y647D01*
X5110Y647D02*
X5117Y647D01*
X0Y646D02*
X7Y646D01*
X5110Y646D02*
X5117Y646D01*
X0Y645D02*
X7Y645D01*
X5110Y645D02*
X5117Y645D01*
X0Y644D02*
X7Y644D01*
X5110Y644D02*
X5117Y644D01*
X0Y643D02*
X7Y643D01*
X5110Y643D02*
X5117Y643D01*
X0Y642D02*
X7Y642D01*
X5110Y642D02*
X5117Y642D01*
X0Y641D02*
X7Y641D01*
X5110Y641D02*
X5117Y641D01*
X0Y640D02*
X7Y640D01*
X5110Y640D02*
X5117Y640D01*
X0Y639D02*
X7Y639D01*
X5110Y639D02*
X5117Y639D01*
X0Y638D02*
X7Y638D01*
X5110Y638D02*
X5117Y638D01*
X0Y637D02*
X7Y637D01*
X5110Y637D02*
X5117Y637D01*
X0Y636D02*
X7Y636D01*
X5110Y636D02*
X5117Y636D01*
X0Y635D02*
X7Y635D01*
X5110Y635D02*
X5117Y635D01*
X0Y634D02*
X7Y634D01*
X5110Y634D02*
X5117Y634D01*
X0Y633D02*
X7Y633D01*
X5110Y633D02*
X5117Y633D01*
X0Y632D02*
X7Y632D01*
X5110Y632D02*
X5117Y632D01*
X0Y631D02*
X7Y631D01*
X5110Y631D02*
X5117Y631D01*
X0Y630D02*
X7Y630D01*
X5110Y630D02*
X5117Y630D01*
X0Y629D02*
X7Y629D01*
X5110Y629D02*
X5117Y629D01*
X0Y628D02*
X7Y628D01*
X5110Y628D02*
X5117Y628D01*
X0Y627D02*
X7Y627D01*
X5110Y627D02*
X5117Y627D01*
X0Y626D02*
X7Y626D01*
X5110Y626D02*
X5117Y626D01*
X0Y625D02*
X7Y625D01*
X5110Y625D02*
X5117Y625D01*
X0Y624D02*
X7Y624D01*
X5110Y624D02*
X5117Y624D01*
X0Y623D02*
X7Y623D01*
X5110Y623D02*
X5117Y623D01*
X0Y622D02*
X7Y622D01*
X5110Y622D02*
X5117Y622D01*
X0Y621D02*
X7Y621D01*
X5110Y621D02*
X5117Y621D01*
X0Y620D02*
X7Y620D01*
X5110Y620D02*
X5117Y620D01*
X0Y619D02*
X7Y619D01*
X5110Y619D02*
X5117Y619D01*
X0Y618D02*
X7Y618D01*
X5110Y618D02*
X5117Y618D01*
X0Y617D02*
X7Y617D01*
X5110Y617D02*
X5117Y617D01*
X0Y616D02*
X7Y616D01*
X5110Y616D02*
X5117Y616D01*
X0Y615D02*
X7Y615D01*
X5110Y615D02*
X5117Y615D01*
X0Y614D02*
X7Y614D01*
X5110Y614D02*
X5117Y614D01*
X0Y613D02*
X7Y613D01*
X5110Y613D02*
X5117Y613D01*
X0Y612D02*
X7Y612D01*
X5110Y612D02*
X5117Y612D01*
X0Y611D02*
X7Y611D01*
X5110Y611D02*
X5117Y611D01*
X0Y610D02*
X7Y610D01*
X5110Y610D02*
X5117Y610D01*
X0Y609D02*
X7Y609D01*
X5110Y609D02*
X5117Y609D01*
X0Y608D02*
X7Y608D01*
X5110Y608D02*
X5117Y608D01*
X0Y607D02*
X7Y607D01*
X5110Y607D02*
X5117Y607D01*
X0Y606D02*
X7Y606D01*
X5110Y606D02*
X5117Y606D01*
X0Y605D02*
X7Y605D01*
X5110Y605D02*
X5117Y605D01*
X0Y604D02*
X7Y604D01*
X5110Y604D02*
X5117Y604D01*
X0Y603D02*
X7Y603D01*
X5110Y603D02*
X5117Y603D01*
X0Y602D02*
X7Y602D01*
X5110Y602D02*
X5117Y602D01*
X0Y601D02*
X7Y601D01*
X5110Y601D02*
X5117Y601D01*
X0Y600D02*
X7Y600D01*
X5110Y600D02*
X5117Y600D01*
X0Y599D02*
X7Y599D01*
X5110Y599D02*
X5117Y599D01*
X0Y598D02*
X7Y598D01*
X5110Y598D02*
X5117Y598D01*
X0Y597D02*
X7Y597D01*
X5110Y597D02*
X5117Y597D01*
X0Y596D02*
X7Y596D01*
X5110Y596D02*
X5117Y596D01*
X0Y595D02*
X7Y595D01*
X5110Y595D02*
X5117Y595D01*
X0Y594D02*
X7Y594D01*
X5110Y594D02*
X5117Y594D01*
X0Y593D02*
X7Y593D01*
X5110Y593D02*
X5117Y593D01*
X0Y592D02*
X7Y592D01*
X5110Y592D02*
X5117Y592D01*
X0Y591D02*
X7Y591D01*
X5110Y591D02*
X5117Y591D01*
X0Y590D02*
X7Y590D01*
X5110Y590D02*
X5117Y590D01*
X0Y589D02*
X7Y589D01*
X5110Y589D02*
X5117Y589D01*
X0Y588D02*
X7Y588D01*
X5110Y588D02*
X5117Y588D01*
X0Y587D02*
X7Y587D01*
X5110Y587D02*
X5117Y587D01*
X0Y586D02*
X7Y586D01*
X5110Y586D02*
X5117Y586D01*
X0Y585D02*
X7Y585D01*
X5110Y585D02*
X5117Y585D01*
X0Y584D02*
X7Y584D01*
X5110Y584D02*
X5117Y584D01*
X0Y583D02*
X7Y583D01*
X5110Y583D02*
X5117Y583D01*
X0Y582D02*
X7Y582D01*
X5110Y582D02*
X5117Y582D01*
X0Y581D02*
X7Y581D01*
X5110Y581D02*
X5117Y581D01*
X0Y580D02*
X7Y580D01*
X5110Y580D02*
X5117Y580D01*
X0Y579D02*
X7Y579D01*
X5110Y579D02*
X5117Y579D01*
X0Y578D02*
X7Y578D01*
X5110Y578D02*
X5117Y578D01*
X0Y577D02*
X7Y577D01*
X5110Y577D02*
X5117Y577D01*
X0Y576D02*
X7Y576D01*
X5110Y576D02*
X5117Y576D01*
X0Y575D02*
X7Y575D01*
X5110Y575D02*
X5117Y575D01*
X0Y574D02*
X7Y574D01*
X5110Y574D02*
X5117Y574D01*
X0Y573D02*
X7Y573D01*
X5110Y573D02*
X5117Y573D01*
X0Y572D02*
X7Y572D01*
X5110Y572D02*
X5117Y572D01*
X0Y571D02*
X7Y571D01*
X5110Y571D02*
X5117Y571D01*
X0Y570D02*
X7Y570D01*
X5110Y570D02*
X5117Y570D01*
X0Y569D02*
X7Y569D01*
X5110Y569D02*
X5117Y569D01*
X0Y568D02*
X7Y568D01*
X5110Y568D02*
X5117Y568D01*
X0Y567D02*
X7Y567D01*
X5110Y567D02*
X5117Y567D01*
X0Y566D02*
X7Y566D01*
X5110Y566D02*
X5117Y566D01*
X0Y565D02*
X7Y565D01*
X5110Y565D02*
X5117Y565D01*
X0Y564D02*
X7Y564D01*
X5110Y564D02*
X5117Y564D01*
X0Y563D02*
X7Y563D01*
X5110Y563D02*
X5117Y563D01*
X0Y562D02*
X7Y562D01*
X5110Y562D02*
X5117Y562D01*
X0Y561D02*
X7Y561D01*
X5110Y561D02*
X5117Y561D01*
X0Y560D02*
X7Y560D01*
X5110Y560D02*
X5117Y560D01*
X0Y559D02*
X7Y559D01*
X5110Y559D02*
X5117Y559D01*
X0Y558D02*
X7Y558D01*
X5110Y558D02*
X5117Y558D01*
X0Y557D02*
X7Y557D01*
X5110Y557D02*
X5117Y557D01*
X0Y556D02*
X7Y556D01*
X5110Y556D02*
X5117Y556D01*
X0Y555D02*
X7Y555D01*
X5110Y555D02*
X5117Y555D01*
X0Y554D02*
X7Y554D01*
X5110Y554D02*
X5117Y554D01*
X0Y553D02*
X7Y553D01*
X5110Y553D02*
X5117Y553D01*
X0Y552D02*
X7Y552D01*
X5110Y552D02*
X5117Y552D01*
X0Y551D02*
X7Y551D01*
X5110Y551D02*
X5117Y551D01*
X0Y550D02*
X7Y550D01*
X5110Y550D02*
X5117Y550D01*
X0Y549D02*
X7Y549D01*
X5110Y549D02*
X5117Y549D01*
X0Y548D02*
X7Y548D01*
X5110Y548D02*
X5117Y548D01*
X0Y547D02*
X7Y547D01*
X5110Y547D02*
X5117Y547D01*
X0Y546D02*
X7Y546D01*
X5110Y546D02*
X5117Y546D01*
X0Y545D02*
X7Y545D01*
X5110Y545D02*
X5117Y545D01*
X0Y544D02*
X7Y544D01*
X5110Y544D02*
X5117Y544D01*
X0Y543D02*
X7Y543D01*
X5110Y543D02*
X5117Y543D01*
X0Y542D02*
X7Y542D01*
X5110Y542D02*
X5117Y542D01*
X0Y541D02*
X7Y541D01*
X5110Y541D02*
X5117Y541D01*
X0Y540D02*
X7Y540D01*
X5110Y540D02*
X5117Y540D01*
X0Y539D02*
X7Y539D01*
X5110Y539D02*
X5117Y539D01*
X0Y538D02*
X7Y538D01*
X5110Y538D02*
X5117Y538D01*
X0Y537D02*
X7Y537D01*
X5110Y537D02*
X5117Y537D01*
X0Y536D02*
X7Y536D01*
X5110Y536D02*
X5117Y536D01*
X0Y535D02*
X7Y535D01*
X5110Y535D02*
X5117Y535D01*
X0Y534D02*
X7Y534D01*
X5110Y534D02*
X5117Y534D01*
X0Y533D02*
X7Y533D01*
X5110Y533D02*
X5117Y533D01*
X0Y532D02*
X7Y532D01*
X5110Y532D02*
X5117Y532D01*
X0Y531D02*
X7Y531D01*
X5110Y531D02*
X5117Y531D01*
X0Y530D02*
X7Y530D01*
X5110Y530D02*
X5117Y530D01*
X0Y529D02*
X7Y529D01*
X5110Y529D02*
X5117Y529D01*
X0Y528D02*
X7Y528D01*
X5110Y528D02*
X5117Y528D01*
X0Y527D02*
X7Y527D01*
X5110Y527D02*
X5117Y527D01*
X0Y526D02*
X7Y526D01*
X5110Y526D02*
X5117Y526D01*
X0Y525D02*
X7Y525D01*
X5110Y525D02*
X5117Y525D01*
X0Y524D02*
X7Y524D01*
X5110Y524D02*
X5117Y524D01*
X0Y523D02*
X7Y523D01*
X5110Y523D02*
X5117Y523D01*
X0Y522D02*
X7Y522D01*
X5110Y522D02*
X5117Y522D01*
X0Y521D02*
X7Y521D01*
X5110Y521D02*
X5117Y521D01*
X0Y520D02*
X7Y520D01*
X5110Y520D02*
X5117Y520D01*
X0Y519D02*
X7Y519D01*
X5110Y519D02*
X5117Y519D01*
X0Y518D02*
X7Y518D01*
X5110Y518D02*
X5117Y518D01*
X0Y517D02*
X7Y517D01*
X5110Y517D02*
X5117Y517D01*
X0Y516D02*
X7Y516D01*
X5110Y516D02*
X5117Y516D01*
X0Y515D02*
X7Y515D01*
X5110Y515D02*
X5117Y515D01*
X0Y514D02*
X7Y514D01*
X5110Y514D02*
X5117Y514D01*
X0Y513D02*
X7Y513D01*
X5110Y513D02*
X5117Y513D01*
X0Y512D02*
X7Y512D01*
X5110Y512D02*
X5117Y512D01*
X0Y511D02*
X7Y511D01*
X5110Y511D02*
X5117Y511D01*
X0Y510D02*
X7Y510D01*
X5110Y510D02*
X5117Y510D01*
X0Y509D02*
X7Y509D01*
X5110Y509D02*
X5117Y509D01*
X0Y508D02*
X7Y508D01*
X5110Y508D02*
X5117Y508D01*
X0Y507D02*
X7Y507D01*
X5110Y507D02*
X5117Y507D01*
X0Y506D02*
X7Y506D01*
X5110Y506D02*
X5117Y506D01*
X0Y505D02*
X7Y505D01*
X5110Y505D02*
X5117Y505D01*
X0Y504D02*
X7Y504D01*
X5110Y504D02*
X5117Y504D01*
X0Y503D02*
X7Y503D01*
X5110Y503D02*
X5117Y503D01*
X0Y502D02*
X7Y502D01*
X5110Y502D02*
X5117Y502D01*
X0Y501D02*
X7Y501D01*
X5110Y501D02*
X5117Y501D01*
X0Y500D02*
X7Y500D01*
X5110Y500D02*
X5117Y500D01*
X0Y499D02*
X7Y499D01*
X5110Y499D02*
X5117Y499D01*
X0Y498D02*
X7Y498D01*
X5110Y498D02*
X5117Y498D01*
X0Y497D02*
X7Y497D01*
X5110Y497D02*
X5117Y497D01*
X0Y496D02*
X7Y496D01*
X5110Y496D02*
X5117Y496D01*
X0Y495D02*
X7Y495D01*
X5110Y495D02*
X5117Y495D01*
X0Y494D02*
X7Y494D01*
X5110Y494D02*
X5117Y494D01*
X0Y493D02*
X7Y493D01*
X5110Y493D02*
X5117Y493D01*
X0Y492D02*
X7Y492D01*
X5110Y492D02*
X5117Y492D01*
X0Y491D02*
X7Y491D01*
X5110Y491D02*
X5117Y491D01*
X0Y490D02*
X7Y490D01*
X5110Y490D02*
X5117Y490D01*
X0Y489D02*
X7Y489D01*
X5110Y489D02*
X5117Y489D01*
X0Y488D02*
X7Y488D01*
X5110Y488D02*
X5117Y488D01*
X0Y487D02*
X7Y487D01*
X5110Y487D02*
X5117Y487D01*
X0Y486D02*
X7Y486D01*
X5110Y486D02*
X5117Y486D01*
X0Y485D02*
X7Y485D01*
X5110Y485D02*
X5117Y485D01*
X0Y484D02*
X7Y484D01*
X5110Y484D02*
X5117Y484D01*
X0Y483D02*
X7Y483D01*
X5110Y483D02*
X5117Y483D01*
X0Y482D02*
X7Y482D01*
X5110Y482D02*
X5117Y482D01*
X0Y481D02*
X7Y481D01*
X5110Y481D02*
X5117Y481D01*
X0Y480D02*
X7Y480D01*
X5110Y480D02*
X5117Y480D01*
X0Y479D02*
X7Y479D01*
X5110Y479D02*
X5117Y479D01*
X0Y478D02*
X7Y478D01*
X5110Y478D02*
X5117Y478D01*
X0Y477D02*
X7Y477D01*
X5110Y477D02*
X5117Y477D01*
X0Y476D02*
X7Y476D01*
X5110Y476D02*
X5117Y476D01*
X0Y475D02*
X7Y475D01*
X5110Y475D02*
X5117Y475D01*
X0Y474D02*
X7Y474D01*
X5110Y474D02*
X5117Y474D01*
X0Y473D02*
X7Y473D01*
X5110Y473D02*
X5117Y473D01*
X0Y472D02*
X7Y472D01*
X5110Y472D02*
X5117Y472D01*
X0Y471D02*
X7Y471D01*
X5110Y471D02*
X5117Y471D01*
X0Y470D02*
X7Y470D01*
X5110Y470D02*
X5117Y470D01*
X0Y469D02*
X7Y469D01*
X5110Y469D02*
X5117Y469D01*
X0Y468D02*
X7Y468D01*
X5110Y468D02*
X5117Y468D01*
X0Y467D02*
X7Y467D01*
X5110Y467D02*
X5117Y467D01*
X0Y466D02*
X7Y466D01*
X5110Y466D02*
X5117Y466D01*
X0Y465D02*
X7Y465D01*
X5110Y465D02*
X5117Y465D01*
X0Y464D02*
X7Y464D01*
X5110Y464D02*
X5117Y464D01*
X0Y463D02*
X7Y463D01*
X5110Y463D02*
X5117Y463D01*
X0Y462D02*
X7Y462D01*
X5110Y462D02*
X5117Y462D01*
X0Y461D02*
X7Y461D01*
X5110Y461D02*
X5117Y461D01*
X0Y460D02*
X7Y460D01*
X5110Y460D02*
X5117Y460D01*
X0Y459D02*
X7Y459D01*
X5110Y459D02*
X5117Y459D01*
X0Y458D02*
X7Y458D01*
X5110Y458D02*
X5117Y458D01*
X0Y457D02*
X7Y457D01*
X5110Y457D02*
X5117Y457D01*
X0Y456D02*
X7Y456D01*
X5110Y456D02*
X5117Y456D01*
X0Y455D02*
X7Y455D01*
X5110Y455D02*
X5117Y455D01*
X0Y454D02*
X7Y454D01*
X5110Y454D02*
X5117Y454D01*
X0Y453D02*
X7Y453D01*
X5110Y453D02*
X5117Y453D01*
X0Y452D02*
X7Y452D01*
X5110Y452D02*
X5117Y452D01*
X0Y451D02*
X7Y451D01*
X5110Y451D02*
X5117Y451D01*
X0Y450D02*
X7Y450D01*
X5110Y450D02*
X5117Y450D01*
X0Y449D02*
X7Y449D01*
X5110Y449D02*
X5117Y449D01*
X0Y448D02*
X7Y448D01*
X5110Y448D02*
X5117Y448D01*
X0Y447D02*
X7Y447D01*
X5110Y447D02*
X5117Y447D01*
X0Y446D02*
X7Y446D01*
X5110Y446D02*
X5117Y446D01*
X0Y445D02*
X7Y445D01*
X5110Y445D02*
X5117Y445D01*
X0Y444D02*
X7Y444D01*
X5110Y444D02*
X5117Y444D01*
X0Y443D02*
X7Y443D01*
X5110Y443D02*
X5117Y443D01*
X0Y442D02*
X7Y442D01*
X5110Y442D02*
X5117Y442D01*
X0Y441D02*
X7Y441D01*
X5110Y441D02*
X5117Y441D01*
X0Y440D02*
X7Y440D01*
X5110Y440D02*
X5117Y440D01*
X0Y439D02*
X7Y439D01*
X5110Y439D02*
X5117Y439D01*
X0Y438D02*
X7Y438D01*
X5110Y438D02*
X5117Y438D01*
X0Y437D02*
X7Y437D01*
X5110Y437D02*
X5117Y437D01*
X0Y436D02*
X7Y436D01*
X5110Y436D02*
X5117Y436D01*
X0Y435D02*
X7Y435D01*
X5110Y435D02*
X5117Y435D01*
X0Y434D02*
X7Y434D01*
X5110Y434D02*
X5117Y434D01*
X0Y433D02*
X7Y433D01*
X5110Y433D02*
X5117Y433D01*
X0Y432D02*
X7Y432D01*
X5110Y432D02*
X5117Y432D01*
X0Y431D02*
X7Y431D01*
X5110Y431D02*
X5117Y431D01*
X0Y430D02*
X7Y430D01*
X5110Y430D02*
X5117Y430D01*
X0Y429D02*
X7Y429D01*
X5110Y429D02*
X5117Y429D01*
X0Y428D02*
X7Y428D01*
X5110Y428D02*
X5117Y428D01*
X0Y427D02*
X7Y427D01*
X5110Y427D02*
X5117Y427D01*
X0Y426D02*
X7Y426D01*
X5110Y426D02*
X5117Y426D01*
X0Y425D02*
X7Y425D01*
X5110Y425D02*
X5117Y425D01*
X0Y424D02*
X7Y424D01*
X5110Y424D02*
X5117Y424D01*
X0Y423D02*
X7Y423D01*
X5110Y423D02*
X5117Y423D01*
X0Y422D02*
X7Y422D01*
X5110Y422D02*
X5117Y422D01*
X0Y421D02*
X7Y421D01*
X5110Y421D02*
X5117Y421D01*
X0Y420D02*
X7Y420D01*
X5110Y420D02*
X5117Y420D01*
X0Y419D02*
X7Y419D01*
X5110Y419D02*
X5117Y419D01*
X0Y418D02*
X7Y418D01*
X5110Y418D02*
X5117Y418D01*
X0Y417D02*
X7Y417D01*
X5110Y417D02*
X5117Y417D01*
X0Y416D02*
X7Y416D01*
X5110Y416D02*
X5117Y416D01*
X0Y415D02*
X7Y415D01*
X5110Y415D02*
X5117Y415D01*
X0Y414D02*
X7Y414D01*
X5110Y414D02*
X5117Y414D01*
X0Y413D02*
X7Y413D01*
X5110Y413D02*
X5117Y413D01*
X0Y412D02*
X7Y412D01*
X5110Y412D02*
X5117Y412D01*
X0Y411D02*
X7Y411D01*
X5110Y411D02*
X5117Y411D01*
X0Y410D02*
X7Y410D01*
X5110Y410D02*
X5117Y410D01*
X0Y409D02*
X7Y409D01*
X5110Y409D02*
X5117Y409D01*
X0Y408D02*
X7Y408D01*
X5110Y408D02*
X5117Y408D01*
X0Y407D02*
X7Y407D01*
X5110Y407D02*
X5117Y407D01*
X0Y406D02*
X7Y406D01*
X5110Y406D02*
X5117Y406D01*
X0Y405D02*
X7Y405D01*
X5110Y405D02*
X5117Y405D01*
X0Y404D02*
X7Y404D01*
X5110Y404D02*
X5117Y404D01*
X0Y403D02*
X7Y403D01*
X5110Y403D02*
X5117Y403D01*
X0Y402D02*
X7Y402D01*
X5110Y402D02*
X5117Y402D01*
X0Y401D02*
X7Y401D01*
X5110Y401D02*
X5117Y401D01*
X0Y400D02*
X7Y400D01*
X5110Y400D02*
X5117Y400D01*
X0Y399D02*
X7Y399D01*
X5110Y399D02*
X5117Y399D01*
X0Y398D02*
X7Y398D01*
X5110Y398D02*
X5117Y398D01*
X0Y397D02*
X7Y397D01*
X5110Y397D02*
X5117Y397D01*
X0Y396D02*
X7Y396D01*
X5110Y396D02*
X5117Y396D01*
X0Y395D02*
X7Y395D01*
X5110Y395D02*
X5117Y395D01*
X0Y394D02*
X7Y394D01*
X5110Y394D02*
X5117Y394D01*
X0Y393D02*
X7Y393D01*
X5110Y393D02*
X5117Y393D01*
X0Y392D02*
X7Y392D01*
X5110Y392D02*
X5117Y392D01*
X0Y391D02*
X7Y391D01*
X5110Y391D02*
X5117Y391D01*
X0Y390D02*
X7Y390D01*
X5110Y390D02*
X5117Y390D01*
X0Y389D02*
X7Y389D01*
X5110Y389D02*
X5117Y389D01*
X0Y388D02*
X7Y388D01*
X3423Y388D02*
X3423Y388D01*
X5110Y388D02*
X5117Y388D01*
X0Y387D02*
X7Y387D01*
X3024Y387D02*
X3024Y387D01*
X5110Y387D02*
X5117Y387D01*
X0Y386D02*
X7Y386D01*
X3424Y386D02*
X3424Y386D01*
X5110Y386D02*
X5117Y386D01*
X0Y385D02*
X7Y385D01*
X3025Y385D02*
X3025Y385D01*
X3424Y385D02*
X3424Y385D01*
X5110Y385D02*
X5117Y385D01*
X0Y384D02*
X7Y384D01*
X3025Y384D02*
X3025Y384D01*
X5110Y384D02*
X5117Y384D01*
X0Y383D02*
X7Y383D01*
X3026Y383D02*
X3026Y383D01*
X3425Y383D02*
X3425Y383D01*
X5110Y383D02*
X5117Y383D01*
X0Y382D02*
X7Y382D01*
X3026Y382D02*
X3026Y382D01*
X5110Y382D02*
X5117Y382D01*
X0Y381D02*
X7Y381D01*
X3027Y381D02*
X3027Y381D01*
X3426Y381D02*
X3426Y381D01*
X5110Y381D02*
X5117Y381D01*
X0Y380D02*
X7Y380D01*
X3027Y380D02*
X3027Y380D01*
X3427Y380D02*
X3427Y380D01*
X5110Y380D02*
X5117Y380D01*
X0Y379D02*
X7Y379D01*
X3028Y379D02*
X3028Y379D01*
X3427Y379D02*
X3427Y379D01*
X5110Y379D02*
X5117Y379D01*
X0Y378D02*
X7Y378D01*
X3029Y378D02*
X3029Y378D01*
X3428Y378D02*
X3428Y378D01*
X5110Y378D02*
X5117Y378D01*
X0Y377D02*
X7Y377D01*
X3029Y377D02*
X3029Y377D01*
X3429Y377D02*
X3429Y377D01*
X5110Y377D02*
X5117Y377D01*
X0Y376D02*
X7Y376D01*
X3030Y376D02*
X3030Y376D01*
X3430Y376D02*
X3430Y376D01*
X5110Y376D02*
X5117Y376D01*
X0Y375D02*
X7Y375D01*
X3031Y375D02*
X3031Y375D01*
X3430Y375D02*
X3431Y375D01*
X5110Y375D02*
X5117Y375D01*
X0Y374D02*
X7Y374D01*
X3032Y374D02*
X3032Y374D01*
X3431Y374D02*
X3431Y374D01*
X5110Y374D02*
X5117Y374D01*
X0Y373D02*
X7Y373D01*
X3033Y373D02*
X3033Y373D01*
X3432Y373D02*
X3432Y373D01*
X5110Y373D02*
X5117Y373D01*
X0Y372D02*
X7Y372D01*
X3034Y372D02*
X3034Y372D01*
X3433Y372D02*
X3434Y372D01*
X5110Y372D02*
X5117Y372D01*
X0Y371D02*
X7Y371D01*
X3035Y371D02*
X3035Y371D01*
X3435Y371D02*
X3435Y371D01*
X5110Y371D02*
X5117Y371D01*
X0Y370D02*
X7Y370D01*
X3037Y370D02*
X3037Y370D01*
X3436Y370D02*
X3436Y370D01*
X5110Y370D02*
X5117Y370D01*
X0Y369D02*
X7Y369D01*
X3038Y369D02*
X3038Y369D01*
X3437Y369D02*
X3438Y369D01*
X5110Y369D02*
X5117Y369D01*
X0Y368D02*
X7Y368D01*
X3040Y368D02*
X3040Y368D01*
X3439Y368D02*
X3439Y368D01*
X5110Y368D02*
X5117Y368D01*
X0Y367D02*
X7Y367D01*
X3042Y367D02*
X3042Y367D01*
X3441Y367D02*
X3441Y367D01*
X5110Y367D02*
X5117Y367D01*
X0Y366D02*
X7Y366D01*
X3044Y366D02*
X3044Y366D01*
X3443Y366D02*
X3443Y366D01*
X5110Y366D02*
X5117Y366D01*
X0Y365D02*
X7Y365D01*
X5110Y365D02*
X5117Y365D01*
X0Y364D02*
X7Y364D01*
X5110Y364D02*
X5117Y364D01*
X0Y363D02*
X7Y363D01*
X5110Y363D02*
X5117Y363D01*
X0Y362D02*
X7Y362D01*
X5110Y362D02*
X5117Y362D01*
X0Y361D02*
X7Y361D01*
X5110Y361D02*
X5117Y361D01*
X0Y360D02*
X7Y360D01*
X5110Y360D02*
X5117Y360D01*
X0Y359D02*
X7Y359D01*
X5110Y359D02*
X5117Y359D01*
X0Y358D02*
X7Y358D01*
X5110Y358D02*
X5117Y358D01*
X0Y357D02*
X7Y357D01*
X5110Y357D02*
X5117Y357D01*
X0Y356D02*
X7Y356D01*
X5110Y356D02*
X5117Y356D01*
X0Y355D02*
X7Y355D01*
X5110Y355D02*
X5117Y355D01*
X0Y354D02*
X7Y354D01*
X5110Y354D02*
X5117Y354D01*
X0Y353D02*
X7Y353D01*
X5110Y353D02*
X5117Y353D01*
X0Y352D02*
X7Y352D01*
X5110Y352D02*
X5117Y352D01*
X0Y351D02*
X7Y351D01*
X5110Y351D02*
X5117Y351D01*
X0Y350D02*
X7Y350D01*
X5110Y350D02*
X5117Y350D01*
X0Y349D02*
X7Y349D01*
X5110Y349D02*
X5117Y349D01*
X0Y348D02*
X7Y348D01*
X5110Y348D02*
X5117Y348D01*
X0Y347D02*
X7Y347D01*
X5110Y347D02*
X5117Y347D01*
X0Y346D02*
X7Y346D01*
X5110Y346D02*
X5117Y346D01*
X0Y345D02*
X7Y345D01*
X5110Y345D02*
X5117Y345D01*
X0Y344D02*
X7Y344D01*
X5110Y344D02*
X5117Y344D01*
X0Y343D02*
X7Y343D01*
X5110Y343D02*
X5117Y343D01*
X0Y342D02*
X7Y342D01*
X5110Y342D02*
X5117Y342D01*
X0Y341D02*
X7Y341D01*
X5110Y341D02*
X5117Y341D01*
X0Y340D02*
X7Y340D01*
X5110Y340D02*
X5117Y340D01*
X0Y339D02*
X7Y339D01*
X5110Y339D02*
X5117Y339D01*
X0Y338D02*
X7Y338D01*
X5110Y338D02*
X5117Y338D01*
X0Y337D02*
X7Y337D01*
X5110Y337D02*
X5117Y337D01*
X0Y336D02*
X7Y336D01*
X5110Y336D02*
X5117Y336D01*
X0Y335D02*
X7Y335D01*
X5110Y335D02*
X5117Y335D01*
X0Y334D02*
X7Y334D01*
X5110Y334D02*
X5117Y334D01*
X0Y333D02*
X7Y333D01*
X5110Y333D02*
X5117Y333D01*
X0Y332D02*
X7Y332D01*
X5110Y332D02*
X5117Y332D01*
X0Y331D02*
X7Y331D01*
X5110Y331D02*
X5117Y331D01*
X0Y330D02*
X7Y330D01*
X5110Y330D02*
X5117Y330D01*
X0Y329D02*
X7Y329D01*
X5110Y329D02*
X5117Y329D01*
X0Y328D02*
X7Y328D01*
X5110Y328D02*
X5117Y328D01*
X0Y327D02*
X7Y327D01*
X5110Y327D02*
X5117Y327D01*
X0Y326D02*
X7Y326D01*
X5110Y326D02*
X5117Y326D01*
X0Y325D02*
X7Y325D01*
X5110Y325D02*
X5117Y325D01*
X0Y324D02*
X7Y324D01*
X5110Y324D02*
X5117Y324D01*
X0Y323D02*
X7Y323D01*
X5110Y323D02*
X5117Y323D01*
X0Y322D02*
X7Y322D01*
X5110Y322D02*
X5117Y322D01*
X0Y321D02*
X7Y321D01*
X5110Y321D02*
X5117Y321D01*
X0Y320D02*
X7Y320D01*
X5110Y320D02*
X5117Y320D01*
X0Y319D02*
X7Y319D01*
X5110Y319D02*
X5117Y319D01*
X0Y318D02*
X7Y318D01*
X5110Y318D02*
X5117Y318D01*
X0Y317D02*
X7Y317D01*
X5110Y317D02*
X5117Y317D01*
X0Y316D02*
X7Y316D01*
X5110Y316D02*
X5117Y316D01*
X0Y315D02*
X7Y315D01*
X5110Y315D02*
X5117Y315D01*
X0Y314D02*
X7Y314D01*
X5110Y314D02*
X5117Y314D01*
X0Y313D02*
X7Y313D01*
X5110Y313D02*
X5117Y313D01*
X0Y312D02*
X7Y312D01*
X5110Y312D02*
X5117Y312D01*
X0Y311D02*
X7Y311D01*
X5110Y311D02*
X5117Y311D01*
X0Y310D02*
X7Y310D01*
X5110Y310D02*
X5117Y310D01*
X0Y309D02*
X7Y309D01*
X5110Y309D02*
X5117Y309D01*
X0Y308D02*
X7Y308D01*
X5110Y308D02*
X5117Y308D01*
X0Y307D02*
X7Y307D01*
X5110Y307D02*
X5117Y307D01*
X0Y306D02*
X7Y306D01*
X5110Y306D02*
X5117Y306D01*
X0Y305D02*
X7Y305D01*
X5110Y305D02*
X5117Y305D01*
X0Y304D02*
X7Y304D01*
X5110Y304D02*
X5117Y304D01*
X0Y303D02*
X7Y303D01*
X5110Y303D02*
X5117Y303D01*
X0Y302D02*
X7Y302D01*
X5110Y302D02*
X5117Y302D01*
X0Y301D02*
X7Y301D01*
X5110Y301D02*
X5117Y301D01*
X0Y300D02*
X7Y300D01*
X5110Y300D02*
X5117Y300D01*
X0Y299D02*
X7Y299D01*
X5110Y299D02*
X5117Y299D01*
X0Y298D02*
X7Y298D01*
X5110Y298D02*
X5117Y298D01*
X0Y297D02*
X7Y297D01*
X5110Y297D02*
X5117Y297D01*
X0Y296D02*
X7Y296D01*
X5110Y296D02*
X5117Y296D01*
X0Y295D02*
X7Y295D01*
X5110Y295D02*
X5117Y295D01*
X0Y294D02*
X7Y294D01*
X5110Y294D02*
X5117Y294D01*
X0Y293D02*
X7Y293D01*
X5110Y293D02*
X5117Y293D01*
X0Y292D02*
X7Y292D01*
X5110Y292D02*
X5117Y292D01*
X0Y291D02*
X7Y291D01*
X5110Y291D02*
X5117Y291D01*
X0Y290D02*
X7Y290D01*
X5110Y290D02*
X5117Y290D01*
X0Y289D02*
X7Y289D01*
X5110Y289D02*
X5117Y289D01*
X0Y288D02*
X7Y288D01*
X5110Y288D02*
X5117Y288D01*
X0Y287D02*
X7Y287D01*
X5110Y287D02*
X5117Y287D01*
X0Y286D02*
X7Y286D01*
X5110Y286D02*
X5117Y286D01*
X0Y285D02*
X7Y285D01*
X5110Y285D02*
X5117Y285D01*
X0Y284D02*
X7Y284D01*
X5110Y284D02*
X5117Y284D01*
X0Y283D02*
X7Y283D01*
X5110Y283D02*
X5117Y283D01*
X0Y282D02*
X7Y282D01*
X5110Y282D02*
X5117Y282D01*
X0Y281D02*
X7Y281D01*
X5110Y281D02*
X5117Y281D01*
X0Y280D02*
X7Y280D01*
X5110Y280D02*
X5117Y280D01*
X0Y279D02*
X7Y279D01*
X5110Y279D02*
X5117Y279D01*
X0Y278D02*
X7Y278D01*
X5110Y278D02*
X5117Y278D01*
X0Y277D02*
X7Y277D01*
X5110Y277D02*
X5117Y277D01*
X0Y276D02*
X7Y276D01*
X5110Y276D02*
X5117Y276D01*
X0Y275D02*
X7Y275D01*
X5110Y275D02*
X5117Y275D01*
X0Y274D02*
X7Y274D01*
X5110Y274D02*
X5117Y274D01*
X0Y273D02*
X7Y273D01*
X5110Y273D02*
X5117Y273D01*
X0Y272D02*
X7Y272D01*
X5110Y272D02*
X5117Y272D01*
X0Y271D02*
X7Y271D01*
X5110Y271D02*
X5117Y271D01*
X0Y270D02*
X7Y270D01*
X5110Y270D02*
X5117Y270D01*
X0Y269D02*
X7Y269D01*
X5110Y269D02*
X5117Y269D01*
X0Y268D02*
X7Y268D01*
X5110Y268D02*
X5117Y268D01*
X0Y267D02*
X7Y267D01*
X5110Y267D02*
X5117Y267D01*
X0Y266D02*
X7Y266D01*
X5110Y266D02*
X5117Y266D01*
X0Y265D02*
X7Y265D01*
X5110Y265D02*
X5117Y265D01*
X0Y264D02*
X7Y264D01*
X5110Y264D02*
X5117Y264D01*
X0Y263D02*
X7Y263D01*
X5110Y263D02*
X5117Y263D01*
X0Y262D02*
X7Y262D01*
X5110Y262D02*
X5117Y262D01*
X0Y261D02*
X7Y261D01*
X5110Y261D02*
X5117Y261D01*
X0Y260D02*
X7Y260D01*
X5110Y260D02*
X5117Y260D01*
X0Y259D02*
X7Y259D01*
X5110Y259D02*
X5117Y259D01*
X0Y258D02*
X7Y258D01*
X5110Y258D02*
X5117Y258D01*
X0Y257D02*
X7Y257D01*
X5110Y257D02*
X5117Y257D01*
X0Y256D02*
X7Y256D01*
X5110Y256D02*
X5117Y256D01*
X0Y255D02*
X7Y255D01*
X5110Y255D02*
X5117Y255D01*
X0Y254D02*
X7Y254D01*
X5110Y254D02*
X5117Y254D01*
X0Y253D02*
X7Y253D01*
X5110Y253D02*
X5117Y253D01*
X0Y252D02*
X7Y252D01*
X5110Y252D02*
X5117Y252D01*
X0Y251D02*
X7Y251D01*
X5110Y251D02*
X5117Y251D01*
X0Y250D02*
X7Y250D01*
X5110Y250D02*
X5117Y250D01*
X0Y249D02*
X7Y249D01*
X5110Y249D02*
X5117Y249D01*
X0Y248D02*
X7Y248D01*
X5110Y248D02*
X5117Y248D01*
X0Y247D02*
X7Y247D01*
X5110Y247D02*
X5117Y247D01*
X0Y246D02*
X7Y246D01*
X5110Y246D02*
X5117Y246D01*
X0Y245D02*
X7Y245D01*
X5110Y245D02*
X5117Y245D01*
X0Y244D02*
X7Y244D01*
X5110Y244D02*
X5117Y244D01*
X0Y243D02*
X7Y243D01*
X5110Y243D02*
X5117Y243D01*
X0Y242D02*
X7Y242D01*
X5110Y242D02*
X5117Y242D01*
X0Y241D02*
X7Y241D01*
X5110Y241D02*
X5117Y241D01*
X0Y240D02*
X7Y240D01*
X5110Y240D02*
X5117Y240D01*
X0Y239D02*
X7Y239D01*
X5110Y239D02*
X5117Y239D01*
X0Y238D02*
X7Y238D01*
X5110Y238D02*
X5117Y238D01*
X0Y237D02*
X7Y237D01*
X5110Y237D02*
X5117Y237D01*
X0Y236D02*
X7Y236D01*
X5110Y236D02*
X5117Y236D01*
X0Y235D02*
X7Y235D01*
X5110Y235D02*
X5117Y235D01*
X0Y234D02*
X7Y234D01*
X5110Y234D02*
X5117Y234D01*
X0Y233D02*
X7Y233D01*
X5110Y233D02*
X5117Y233D01*
X0Y232D02*
X7Y232D01*
X5110Y232D02*
X5117Y232D01*
X0Y231D02*
X7Y231D01*
X5110Y231D02*
X5117Y231D01*
X0Y230D02*
X7Y230D01*
X5110Y230D02*
X5117Y230D01*
X0Y229D02*
X7Y229D01*
X5110Y229D02*
X5117Y229D01*
X0Y228D02*
X7Y228D01*
X5110Y228D02*
X5117Y228D01*
X0Y227D02*
X7Y227D01*
X5110Y227D02*
X5117Y227D01*
X0Y226D02*
X7Y226D01*
X5110Y226D02*
X5117Y226D01*
X0Y225D02*
X7Y225D01*
X5110Y225D02*
X5117Y225D01*
X0Y224D02*
X7Y224D01*
X5110Y224D02*
X5117Y224D01*
X0Y223D02*
X7Y223D01*
X5110Y223D02*
X5117Y223D01*
X0Y222D02*
X7Y222D01*
X5110Y222D02*
X5117Y222D01*
X0Y221D02*
X7Y221D01*
X5110Y221D02*
X5117Y221D01*
X0Y220D02*
X7Y220D01*
X5110Y220D02*
X5117Y220D01*
X0Y219D02*
X7Y219D01*
X5110Y219D02*
X5117Y219D01*
X0Y218D02*
X7Y218D01*
X5110Y218D02*
X5117Y218D01*
X0Y217D02*
X7Y217D01*
X5110Y217D02*
X5117Y217D01*
X0Y216D02*
X7Y216D01*
X5110Y216D02*
X5117Y216D01*
X0Y215D02*
X7Y215D01*
X5110Y215D02*
X5117Y215D01*
X0Y214D02*
X7Y214D01*
X5110Y214D02*
X5117Y214D01*
X0Y213D02*
X7Y213D01*
X5110Y213D02*
X5117Y213D01*
X0Y212D02*
X7Y212D01*
X5110Y212D02*
X5117Y212D01*
X0Y211D02*
X7Y211D01*
X5110Y211D02*
X5117Y211D01*
X0Y210D02*
X7Y210D01*
X5110Y210D02*
X5117Y210D01*
X0Y209D02*
X7Y209D01*
X5110Y209D02*
X5117Y209D01*
X0Y208D02*
X7Y208D01*
X5110Y208D02*
X5117Y208D01*
X0Y207D02*
X7Y207D01*
X5110Y207D02*
X5117Y207D01*
X0Y206D02*
X7Y206D01*
X5110Y206D02*
X5117Y206D01*
X0Y205D02*
X7Y205D01*
X5110Y205D02*
X5117Y205D01*
X0Y204D02*
X7Y204D01*
X5110Y204D02*
X5117Y204D01*
X0Y203D02*
X7Y203D01*
X5110Y203D02*
X5117Y203D01*
X0Y202D02*
X7Y202D01*
X5110Y202D02*
X5117Y202D01*
X0Y201D02*
X7Y201D01*
X5110Y201D02*
X5117Y201D01*
X0Y200D02*
X7Y200D01*
X5110Y200D02*
X5117Y200D01*
X0Y199D02*
X7Y199D01*
X5110Y199D02*
X5117Y199D01*
X0Y198D02*
X7Y198D01*
X5110Y198D02*
X5117Y198D01*
X0Y197D02*
X7Y197D01*
X5110Y197D02*
X5117Y197D01*
X0Y196D02*
X7Y196D01*
X5110Y196D02*
X5117Y196D01*
X0Y195D02*
X7Y195D01*
X5110Y195D02*
X5117Y195D01*
X0Y194D02*
X7Y194D01*
X5110Y194D02*
X5117Y194D01*
X0Y193D02*
X7Y193D01*
X5110Y193D02*
X5117Y193D01*
X0Y192D02*
X7Y192D01*
X5110Y192D02*
X5117Y192D01*
X0Y191D02*
X7Y191D01*
X5110Y191D02*
X5117Y191D01*
X0Y190D02*
X7Y190D01*
X5110Y190D02*
X5117Y190D01*
X0Y189D02*
X7Y189D01*
X5110Y189D02*
X5117Y189D01*
X0Y188D02*
X7Y188D01*
X5110Y188D02*
X5117Y188D01*
X0Y187D02*
X7Y187D01*
X5110Y187D02*
X5117Y187D01*
X0Y186D02*
X7Y186D01*
X5110Y186D02*
X5117Y186D01*
X0Y185D02*
X7Y185D01*
X5110Y185D02*
X5117Y185D01*
X0Y184D02*
X7Y184D01*
X5110Y184D02*
X5117Y184D01*
X0Y183D02*
X7Y183D01*
X5110Y183D02*
X5117Y183D01*
X0Y182D02*
X7Y182D01*
X5110Y182D02*
X5117Y182D01*
X0Y181D02*
X7Y181D01*
X5110Y181D02*
X5117Y181D01*
X0Y180D02*
X7Y180D01*
X5110Y180D02*
X5117Y180D01*
X0Y179D02*
X7Y179D01*
X5110Y179D02*
X5117Y179D01*
X0Y178D02*
X7Y178D01*
X5110Y178D02*
X5117Y178D01*
X0Y177D02*
X7Y177D01*
X5110Y177D02*
X5117Y177D01*
X0Y176D02*
X7Y176D01*
X5110Y176D02*
X5117Y176D01*
X0Y175D02*
X7Y175D01*
X5110Y175D02*
X5117Y175D01*
X0Y174D02*
X7Y174D01*
X5110Y174D02*
X5117Y174D01*
X0Y173D02*
X7Y173D01*
X5110Y173D02*
X5117Y173D01*
X0Y172D02*
X7Y172D01*
X5110Y172D02*
X5117Y172D01*
X0Y171D02*
X7Y171D01*
X5110Y171D02*
X5117Y171D01*
X0Y170D02*
X7Y170D01*
X5110Y170D02*
X5117Y170D01*
X0Y169D02*
X7Y169D01*
X5110Y169D02*
X5117Y169D01*
X0Y168D02*
X7Y168D01*
X5110Y168D02*
X5117Y168D01*
X0Y167D02*
X7Y167D01*
X5110Y167D02*
X5117Y167D01*
X0Y166D02*
X7Y166D01*
X5110Y166D02*
X5117Y166D01*
X0Y165D02*
X7Y165D01*
X5110Y165D02*
X5117Y165D01*
X0Y164D02*
X7Y164D01*
X5110Y164D02*
X5117Y164D01*
X0Y163D02*
X7Y163D01*
X5110Y163D02*
X5117Y163D01*
X0Y162D02*
X7Y162D01*
X5110Y162D02*
X5117Y162D01*
X0Y161D02*
X7Y161D01*
X5110Y161D02*
X5117Y161D01*
X0Y160D02*
X7Y160D01*
X5110Y160D02*
X5117Y160D01*
X0Y159D02*
X7Y159D01*
X5110Y159D02*
X5117Y159D01*
X0Y158D02*
X7Y158D01*
X5110Y158D02*
X5117Y158D01*
X0Y157D02*
X7Y157D01*
X5110Y157D02*
X5117Y157D01*
X0Y156D02*
X7Y156D01*
X5110Y156D02*
X5117Y156D01*
X0Y155D02*
X7Y155D01*
X5110Y155D02*
X5117Y155D01*
X0Y154D02*
X7Y154D01*
X5110Y154D02*
X5117Y154D01*
X0Y153D02*
X7Y153D01*
X5110Y153D02*
X5117Y153D01*
X0Y152D02*
X7Y152D01*
X5110Y152D02*
X5117Y152D01*
X0Y151D02*
X7Y151D01*
X5110Y151D02*
X5117Y151D01*
X0Y150D02*
X7Y150D01*
X5110Y150D02*
X5117Y150D01*
X0Y149D02*
X7Y149D01*
X5110Y149D02*
X5117Y149D01*
X0Y148D02*
X7Y148D01*
X5110Y148D02*
X5117Y148D01*
X0Y147D02*
X7Y147D01*
X5110Y147D02*
X5117Y147D01*
X0Y146D02*
X7Y146D01*
X5110Y146D02*
X5117Y146D01*
X0Y145D02*
X7Y145D01*
X5110Y145D02*
X5117Y145D01*
X0Y144D02*
X7Y144D01*
X5110Y144D02*
X5117Y144D01*
X0Y143D02*
X7Y143D01*
X5110Y143D02*
X5117Y143D01*
X0Y142D02*
X7Y142D01*
X5110Y142D02*
X5117Y142D01*
X0Y141D02*
X7Y141D01*
X5110Y141D02*
X5117Y141D01*
X0Y140D02*
X7Y140D01*
X5110Y140D02*
X5117Y140D01*
X0Y139D02*
X7Y139D01*
X5110Y139D02*
X5117Y139D01*
X0Y138D02*
X7Y138D01*
X5110Y138D02*
X5117Y138D01*
X0Y137D02*
X7Y137D01*
X5110Y137D02*
X5117Y137D01*
X0Y136D02*
X7Y136D01*
X5110Y136D02*
X5117Y136D01*
X0Y135D02*
X7Y135D01*
X5110Y135D02*
X5117Y135D01*
X0Y134D02*
X7Y134D01*
X5110Y134D02*
X5117Y134D01*
X0Y133D02*
X7Y133D01*
X5110Y133D02*
X5117Y133D01*
X0Y132D02*
X7Y132D01*
X5110Y132D02*
X5117Y132D01*
X0Y131D02*
X7Y131D01*
X5110Y131D02*
X5117Y131D01*
X0Y130D02*
X7Y130D01*
X5110Y130D02*
X5117Y130D01*
X0Y129D02*
X7Y129D01*
X5110Y129D02*
X5117Y129D01*
X0Y128D02*
X7Y128D01*
X5110Y128D02*
X5117Y128D01*
X0Y127D02*
X7Y127D01*
X5110Y127D02*
X5117Y127D01*
X0Y126D02*
X7Y126D01*
X5110Y126D02*
X5117Y126D01*
X0Y125D02*
X7Y125D01*
X5110Y125D02*
X5117Y125D01*
X0Y124D02*
X7Y124D01*
X5110Y124D02*
X5117Y124D01*
X0Y123D02*
X7Y123D01*
X5110Y123D02*
X5117Y123D01*
X0Y122D02*
X7Y122D01*
X5110Y122D02*
X5117Y122D01*
X0Y121D02*
X7Y121D01*
X5110Y121D02*
X5117Y121D01*
X0Y120D02*
X7Y120D01*
X5110Y120D02*
X5117Y120D01*
X0Y119D02*
X7Y119D01*
X5110Y119D02*
X5117Y119D01*
X0Y118D02*
X7Y118D01*
X5110Y118D02*
X5117Y118D01*
X0Y117D02*
X7Y117D01*
X5110Y117D02*
X5117Y117D01*
X0Y116D02*
X7Y116D01*
X5110Y116D02*
X5117Y116D01*
X0Y115D02*
X7Y115D01*
X5110Y115D02*
X5117Y115D01*
X0Y114D02*
X7Y114D01*
X5110Y114D02*
X5117Y114D01*
X0Y113D02*
X7Y113D01*
X5110Y113D02*
X5117Y113D01*
X0Y112D02*
X7Y112D01*
X5110Y112D02*
X5117Y112D01*
X0Y111D02*
X7Y111D01*
X5110Y111D02*
X5117Y111D01*
X0Y110D02*
X7Y110D01*
X5110Y110D02*
X5117Y110D01*
X0Y109D02*
X7Y109D01*
X5110Y109D02*
X5117Y109D01*
X0Y108D02*
X7Y108D01*
X5110Y108D02*
X5117Y108D01*
X0Y107D02*
X7Y107D01*
X5110Y107D02*
X5117Y107D01*
X0Y106D02*
X7Y106D01*
X5110Y106D02*
X5117Y106D01*
X0Y105D02*
X7Y105D01*
X5110Y105D02*
X5117Y105D01*
X0Y104D02*
X7Y104D01*
X5110Y104D02*
X5117Y104D01*
X0Y103D02*
X7Y103D01*
X5110Y103D02*
X5117Y103D01*
X0Y102D02*
X7Y102D01*
X5110Y102D02*
X5117Y102D01*
X0Y101D02*
X7Y101D01*
X5110Y101D02*
X5117Y101D01*
X0Y100D02*
X7Y100D01*
X5110Y100D02*
X5117Y100D01*
X0Y99D02*
X7Y99D01*
X5110Y99D02*
X5117Y99D01*
X0Y98D02*
X7Y98D01*
X5110Y98D02*
X5117Y98D01*
X0Y97D02*
X7Y97D01*
X5110Y97D02*
X5117Y97D01*
X0Y96D02*
X7Y96D01*
X5110Y96D02*
X5117Y96D01*
X0Y95D02*
X7Y95D01*
X5110Y95D02*
X5117Y95D01*
X0Y94D02*
X7Y94D01*
X5110Y94D02*
X5117Y94D01*
X0Y93D02*
X7Y93D01*
X5110Y93D02*
X5117Y93D01*
X0Y92D02*
X7Y92D01*
X5110Y92D02*
X5117Y92D01*
X0Y91D02*
X7Y91D01*
X5110Y91D02*
X5117Y91D01*
X0Y90D02*
X7Y90D01*
X5110Y90D02*
X5117Y90D01*
X0Y89D02*
X7Y89D01*
X5110Y89D02*
X5117Y89D01*
X0Y88D02*
X7Y88D01*
X5110Y88D02*
X5117Y88D01*
X0Y87D02*
X7Y87D01*
X5110Y87D02*
X5117Y87D01*
X0Y86D02*
X7Y86D01*
X5110Y86D02*
X5117Y86D01*
X0Y85D02*
X7Y85D01*
X5110Y85D02*
X5117Y85D01*
X0Y84D02*
X7Y84D01*
X5110Y84D02*
X5117Y84D01*
X0Y83D02*
X7Y83D01*
X5110Y83D02*
X5117Y83D01*
X0Y82D02*
X7Y82D01*
X5110Y82D02*
X5117Y82D01*
X0Y81D02*
X7Y81D01*
X5110Y81D02*
X5117Y81D01*
X0Y80D02*
X7Y80D01*
X5110Y80D02*
X5117Y80D01*
X0Y79D02*
X7Y79D01*
X5110Y79D02*
X5117Y79D01*
X0Y78D02*
X7Y78D01*
X5110Y78D02*
X5117Y78D01*
X0Y77D02*
X7Y77D01*
X5110Y77D02*
X5117Y77D01*
X0Y76D02*
X7Y76D01*
X5110Y76D02*
X5117Y76D01*
X0Y75D02*
X7Y75D01*
X5110Y75D02*
X5117Y75D01*
X0Y74D02*
X7Y74D01*
X5110Y74D02*
X5117Y74D01*
X0Y73D02*
X7Y73D01*
X5110Y73D02*
X5117Y73D01*
X0Y72D02*
X7Y72D01*
X5110Y72D02*
X5117Y72D01*
X0Y71D02*
X7Y71D01*
X5110Y71D02*
X5117Y71D01*
X0Y70D02*
X7Y70D01*
X5110Y70D02*
X5117Y70D01*
X0Y69D02*
X7Y69D01*
X5110Y69D02*
X5117Y69D01*
X0Y68D02*
X7Y68D01*
X5110Y68D02*
X5117Y68D01*
X0Y67D02*
X7Y67D01*
X5110Y67D02*
X5117Y67D01*
X0Y66D02*
X7Y66D01*
X5110Y66D02*
X5117Y66D01*
X0Y65D02*
X7Y65D01*
X5110Y65D02*
X5117Y65D01*
X0Y64D02*
X7Y64D01*
X5110Y64D02*
X5117Y64D01*
X0Y63D02*
X7Y63D01*
X5110Y63D02*
X5117Y63D01*
X0Y62D02*
X7Y62D01*
X5110Y62D02*
X5117Y62D01*
X0Y61D02*
X7Y61D01*
X5110Y61D02*
X5117Y61D01*
X0Y60D02*
X7Y60D01*
X5110Y60D02*
X5117Y60D01*
X0Y59D02*
X7Y59D01*
X5110Y59D02*
X5117Y59D01*
X0Y58D02*
X7Y58D01*
X5110Y58D02*
X5117Y58D01*
X0Y57D02*
X7Y57D01*
X5110Y57D02*
X5117Y57D01*
X0Y56D02*
X7Y56D01*
X5110Y56D02*
X5117Y56D01*
X0Y55D02*
X7Y55D01*
X5110Y55D02*
X5117Y55D01*
X0Y54D02*
X7Y54D01*
X5110Y54D02*
X5117Y54D01*
X0Y53D02*
X7Y53D01*
X5110Y53D02*
X5117Y53D01*
X0Y52D02*
X7Y52D01*
X5110Y52D02*
X5117Y52D01*
X0Y51D02*
X7Y51D01*
X5110Y51D02*
X5117Y51D01*
X0Y50D02*
X7Y50D01*
X5110Y50D02*
X5117Y50D01*
X0Y49D02*
X7Y49D01*
X5110Y49D02*
X5117Y49D01*
X0Y48D02*
X7Y48D01*
X5110Y48D02*
X5117Y48D01*
X0Y47D02*
X7Y47D01*
X5110Y47D02*
X5117Y47D01*
X0Y46D02*
X7Y46D01*
X5110Y46D02*
X5117Y46D01*
X0Y45D02*
X7Y45D01*
X5110Y45D02*
X5117Y45D01*
X0Y44D02*
X7Y44D01*
X5110Y44D02*
X5117Y44D01*
X0Y43D02*
X7Y43D01*
X5110Y43D02*
X5117Y43D01*
X0Y42D02*
X7Y42D01*
X5110Y42D02*
X5117Y42D01*
X0Y41D02*
X7Y41D01*
X5110Y41D02*
X5117Y41D01*
X0Y40D02*
X7Y40D01*
X5110Y40D02*
X5117Y40D01*
X0Y39D02*
X7Y39D01*
X5110Y39D02*
X5117Y39D01*
X0Y38D02*
X7Y38D01*
X5110Y38D02*
X5117Y38D01*
X0Y37D02*
X7Y37D01*
X5110Y37D02*
X5117Y37D01*
X0Y36D02*
X7Y36D01*
X5110Y36D02*
X5117Y36D01*
X0Y35D02*
X7Y35D01*
X5110Y35D02*
X5117Y35D01*
X0Y34D02*
X7Y34D01*
X5110Y34D02*
X5117Y34D01*
X0Y33D02*
X7Y33D01*
X5110Y33D02*
X5117Y33D01*
X0Y32D02*
X7Y32D01*
X5110Y32D02*
X5117Y32D01*
X0Y31D02*
X7Y31D01*
X5110Y31D02*
X5117Y31D01*
X0Y30D02*
X7Y30D01*
X5110Y30D02*
X5117Y30D01*
X0Y29D02*
X7Y29D01*
X5110Y29D02*
X5117Y29D01*
X0Y28D02*
X7Y28D01*
X5110Y28D02*
X5117Y28D01*
X0Y27D02*
X7Y27D01*
X5110Y27D02*
X5117Y27D01*
X0Y26D02*
X7Y26D01*
X5110Y26D02*
X5117Y26D01*
X0Y25D02*
X7Y25D01*
X5110Y25D02*
X5117Y25D01*
X0Y24D02*
X7Y24D01*
X5110Y24D02*
X5117Y24D01*
X0Y23D02*
X7Y23D01*
X5110Y23D02*
X5117Y23D01*
X0Y22D02*
X7Y22D01*
X5110Y22D02*
X5117Y22D01*
X0Y21D02*
X7Y21D01*
X5110Y21D02*
X5117Y21D01*
X0Y20D02*
X7Y20D01*
X5110Y20D02*
X5117Y20D01*
X0Y19D02*
X7Y19D01*
X5110Y19D02*
X5117Y19D01*
X0Y18D02*
X7Y18D01*
X5110Y18D02*
X5117Y18D01*
X0Y17D02*
X7Y17D01*
X5110Y17D02*
X5117Y17D01*
X0Y16D02*
X7Y16D01*
X5110Y16D02*
X5117Y16D01*
X0Y15D02*
X7Y15D01*
X5110Y15D02*
X5117Y15D01*
X0Y14D02*
X7Y14D01*
X5110Y14D02*
X5117Y14D01*
X0Y13D02*
X7Y13D01*
X5110Y13D02*
X5117Y13D01*
X0Y12D02*
X7Y12D01*
X5110Y12D02*
X5117Y12D01*
X0Y11D02*
X7Y11D01*
X5110Y11D02*
X5117Y11D01*
X0Y10D02*
X7Y10D01*
X5110Y10D02*
X5117Y10D01*
X0Y9D02*
X7Y9D01*
X5110Y9D02*
X5117Y9D01*
X0Y8D02*
X5117Y8D01*
X0Y7D02*
X5117Y7D01*
X0Y6D02*
X5117Y6D01*
X0Y5D02*
X5117Y5D01*
X0Y4D02*
X5117Y4D01*
X0Y3D02*
X5117Y3D01*
X0Y2D02*
X5117Y2D01*
X0Y1D02*
X5117Y1D01*
D02*
G04 End of Silk1*
M02*