<?xml version='1.0' encoding='UTF-8' standalone='no'?>
<!-- Created with Fritzing (http://www.fritzing.org/) -->
<svg xmlns="http://www.w3.org/2000/svg" y="0in" baseProfile="tiny" width="2.62666in" version="1.2" xmlns:svg="http://www.w3.org/2000/svg" x="0in"  height="1.11618in" viewBox="0 0 189.119 80.365">
 <g transform="matrix(-1, 0, 0, 1, 189.119, 0)">
  <g partID="854590560">
   <g id="board" >
    <rect y="0.288" width="188.543" id="boardoutline" stroke-width="0.5" fill-opacity="0.5" x="0.288"  stroke="black" height="79.789" fill="none"/>
   </g>
  </g>
  <g partID="854846061">
   <g transform="translate(108.01,13.3984)">
    <g id="copper1" >
     <circle cy="3.01732" cx="3.01732" id="connector0pin" stroke-width="0.850392"  r="0.992124" stroke="black" fill="none"/>
    </g>
   </g>
  </g>
  <g partID="854846521">
   <g transform="translate(149.482,25.4944)">
    <g id="copper1" >
     <circle cy="3.01732" cx="3.01732" id="connector0pin" stroke-width="0.850392"  r="0.992124" stroke="black" fill="none"/>
    </g>
   </g>
  </g>
  <g partID="854847061">
   <g transform="translate(178.858,6.4864)">
    <g id="copper1" >
     <circle cy="3.01732" cx="3.01732" id="connector0pin" stroke-width="0.850392"  r="0.992124" stroke="black" fill="none"/>
    </g>
   </g>
  </g>
  <g partID="854847481">
   <g transform="translate(178.858,27.2224)">
    <g id="copper1" >
     <circle cy="3.01732" cx="3.01732" id="connector0pin" stroke-width="0.850392"  r="0.992124" stroke="black" fill="none"/>
    </g>
   </g>
  </g>
  <g partID="854847961">
   <g transform="translate(106.282,44.5024)">
    <g id="copper1" >
     <circle cy="3.01732" cx="3.01732" id="connector0pin" stroke-width="0.850392"  r="0.992124" stroke="black" fill="none"/>
    </g>
   </g>
  </g>
  <g partID="854933521">
   <g transform="translate(114.284,63.9472)">
    <g id="copper1" >
     <circle cy="6.13543" cx="6.13543" id="nonconn0" stroke-width="0"  r="4.53543" stroke="black" fill="black"/>
    </g>
   </g>
  </g>
  <g partID="854933501">
   <g transform="translate(6.284,6.3472)">
    <g id="copper1" >
     <circle cy="6.13543" cx="6.13543" id="nonconn0" stroke-width="0"  r="4.53543" stroke="black" fill="black"/>
    </g>
   </g>
  </g>
  <g partID="854933481">
   <g transform="translate(6.284,56.7472)">
    <g id="copper1" >
     <circle cy="6.13543" cx="6.13543" id="nonconn0" stroke-width="0"  r="4.53543" stroke="black" fill="black"/>
    </g>
   </g>
  </g>
  <g partID="854564082">
   <g transform="translate(7.3792,29.0424)">
    <g id="copper1" >
     <g id="copper0" >
      <rect y="2.952" width="4.176" id="square" stroke-width="1.44" x="2.952"  height="4.176" stroke="black" fill="none"/>
      <circle cy="5.04" cx="5.04" id="connector0pin" stroke-width="1.44"  r="2.088" stroke="black" fill="none"/>
      <circle cy="12.24" cx="5.04" id="connector1pin" stroke-width="1.44"  r="2.088" stroke="black" fill="none"/>
     </g>
    </g>
   </g>
  </g>
  <g partID="854635262">
   <g transform="translate(179.61,69.9096)">
    <g transform="matrix(-1,0,0,-1,0,0)">
     <g id="copper1" >
      <rect y="11.9481" width="4.55811" id="square" stroke-width="1.44" x="6.51215"  r="285" height="4.55811" stroke="black" fill="none"/>
      <circle cy="14.2272" id="connector11pin" cx="15.9912" stroke-width="1.44"  r="2.27905" stroke="black" fill="none"/>
      <circle cy="21.4272" id="connector10pin" cx="15.9912" stroke-width="1.44"  r="2.27905" stroke="black" fill="none"/>
      <circle cy="28.6272" id="connector9pin" cx="15.9912" stroke-width="1.44"  r="2.27905" stroke="black" fill="none"/>
      <circle cy="35.8272" id="connector8pin" cx="15.9912" stroke-width="1.44"  r="2.27905" stroke="black" fill="none"/>
      <circle cy="43.0272" id="connector7pin" cx="15.9912" stroke-width="1.44"  r="2.27905" stroke="black" fill="none"/>
      <circle cy="50.2272" id="connector6pin" cx="15.9912" stroke-width="1.44"  r="2.27905" stroke="black" fill="none"/>
      <circle cy="14.2272" id="connector0pin" cx="8.7912" stroke-width="1.44"  r="2.27905" stroke="black" fill="none"/>
      <circle cy="21.4272" id="connector1pin" cx="8.7912" stroke-width="1.44"  r="2.27905" stroke="black" fill="none"/>
      <circle cy="28.6272" id="connector2pin" cx="8.7912" stroke-width="1.44"  r="2.27905" stroke="black" fill="none"/>
      <circle cy="35.8272" id="connector3pin" cx="8.7912" stroke-width="1.44"  r="2.27905" stroke="black" fill="none"/>
      <circle cy="43.0272" id="connector4pin" cx="8.7912" stroke-width="1.44"  r="2.27905" stroke="black" fill="none"/>
      <circle cy="50.2272" id="connector5pin" cx="8.7912" stroke-width="1.44"  r="2.27905" stroke="black" fill="none"/>
     </g>
    </g>
   </g>
  </g>
  <g partID="854590992">
   <g transform="translate(111.628,12.6552)">
    <g id="copper1" >
     <rect y="11.9481" width="4.55811" id="square" stroke-width="1.44" x="6.51215"  r="285" height="4.55811" stroke="black" fill="none"/>
     <circle cy="14.2272" id="connector5pin" cx="15.9912" stroke-width="1.44"  r="2.27906" stroke="black" fill="none"/>
     <circle cy="21.4272" id="connector4pin" cx="15.9912" stroke-width="1.44"  r="2.27906" stroke="black" fill="none"/>
     <circle cy="28.6272" id="connector3pin" cx="15.9912" stroke-width="1.44"  r="2.27906" stroke="black" fill="none"/>
     <circle cy="14.2272" id="connector0pin" cx="8.7912" stroke-width="1.44"  r="2.27906" stroke="black" fill="none"/>
     <circle cy="21.4272" id="connector1pin" cx="8.7912" stroke-width="1.44"  r="2.27906" stroke="black" fill="none"/>
     <circle cy="28.6272" id="connector2pin" cx="8.7912" stroke-width="1.44"  r="2.27906" stroke="black" fill="none"/>
    </g>
   </g>
  </g>
  <g partID="854478962">
   <g transform="translate(96.3352,74.7984)">
    <g transform="matrix(-1,0,0,-1,0,0)">
     <g gorn="0.4.0" id="copper1">
      <g transform="matrix(1, 0, 0, 1, 0, 42.42)">
       <g>
        <g>
         <g gorn="0.4.0.0.0.0" id="keepout"/>
        </g>
       </g>
      </g>
      <g transform="matrix(1, 0, 0, 1, 0, 42.42)">
       <g>
        <g>
         <g gorn="0.4.0.1.0.0" id="soldermask"/>
        </g>
       </g>
      </g>
      <g transform="matrix(1, 0, 0, 1, 0, 42.42)">
       <g>
        <g>
         <g gorn="0.4.0.2.0.0" id="outline"/>
        </g>
       </g>
      </g>
      <circle gorn="0.4.0.3" cy="55.116" id="connector6pin" cx="4.284" stroke-width="1.44" r="1.98" stroke="black" fill="none"/>
      <circle gorn="0.4.0.4" cy="47.916" id="connector5pin" cx="4.284" stroke-width="1.44" r="1.98" stroke="black" fill="none"/>
      <circle gorn="0.4.0.5" cy="40.716" id="connector4pin" cx="4.284" stroke-width="1.44" r="1.98" stroke="black" fill="none"/>
      <circle gorn="0.4.0.6" cy="33.516" id="connector3pin" cx="4.284" stroke-width="1.44" r="1.98" stroke="black" fill="none"/>
      <circle gorn="0.4.0.7" cy="26.316" id="connector2pin" cx="4.284" stroke-width="1.44" r="1.98" stroke="black" fill="none"/>
      <circle gorn="0.4.0.8" cy="19.116" id="connector1pin" cx="4.284" stroke-width="1.44" r="1.98" stroke="black" fill="none"/>
      <circle gorn="0.4.0.9" cy="47.916" id="connector11pin" cx="61.884" stroke-width="1.44" r="1.98" stroke="black" fill="none"/>
      <circle gorn="0.4.0.10" cy="40.716" id="connector10pin" cx="61.884" stroke-width="1.44" r="1.98" stroke="black" fill="none"/>
      <circle gorn="0.4.0.11" cy="33.516" id="connector9pin" cx="61.884" stroke-width="1.44" r="1.98" stroke="black" fill="none"/>
      <circle gorn="0.4.0.12" cy="26.316" id="connector8pin" cx="61.884" stroke-width="1.44" r="1.98" stroke="black" fill="none"/>
      <circle gorn="0.4.0.13" cy="19.116" id="connector7pin" cx="61.884" stroke-width="1.44" r="1.98" stroke="black" fill="none"/>
     </g>
    </g>
   </g>
  </g>
  <g partID="854845280">
   <line stroke-width="1.728" y1="19.7744" x1="161.262" y2="21.6" stroke-linecap="round" x2="114.483" stroke="black"/>
  </g>
  <g partID="854845080">
   <line stroke-width="1.728" y1="38.88" x1="161.139" y2="34.4166" stroke-linecap="round" x2="129.954" stroke="black"/>
  </g>
  <g partID="854845060">
   <line stroke-width="1.728" y1="39.641" x1="161.925" y2="38.88" stroke-linecap="round" x2="161.139" stroke="black"/>
  </g>
  <g partID="854845340">
   <line stroke-width="1.728" y1="31.968" x1="114.483" y2="33.2908" stroke-linecap="round" x2="118.197" stroke="black"/>
  </g>
  <g partID="854845320">
   <line stroke-width="1.728" y1="21.6" x1="114.483" y2="31.968" stroke-linecap="round" x2="114.483" stroke="black"/>
  </g>
  <g partID="854845560">
   <line stroke-width="1.728" y1="61.344" x1="168.051" y2="55.8354" stroke-linecap="round" x2="94.1055" stroke="black"/>
  </g>
  <g partID="854845520">
   <line stroke-width="1.728" y1="57.8017" x1="169.783" y2="61.344" stroke-linecap="round" x2="168.051" stroke="black"/>
  </g>
  <g partID="854845840">
   <line stroke-width="1.728" y1="40.608" x1="154.227" y2="40.608" stroke-linecap="round" x2="135.219" stroke="black"/>
  </g>
  <g partID="854845720">
   <line stroke-width="1.728" y1="46.9668" x1="161.811" y2="40.608" stroke-linecap="round" x2="154.227" stroke="black"/>
  </g>
  <g partID="854846040">
   <line stroke-width="1.728" y1="35.424" x1="111.027" y2="17.7829" stroke-linecap="round" x2="111.027" stroke="black"/>
  </g>
  <g partID="854845940">
   <line stroke-width="1.728" y1="45.792" x1="116.211" y2="35.424" stroke-linecap="round" x2="111.027" stroke="black"/>
  </g>
  <g partID="854845920">
   <line stroke-width="1.728" y1="45.792" x1="131.763" y2="45.792" stroke-linecap="round" x2="116.211" stroke="black"/>
  </g>
  <g partID="854845860">
   <line stroke-width="1.728" y1="40.608" x1="135.219" y2="45.792" stroke-linecap="round" x2="131.763" stroke="black"/>
  </g>
  <g partID="854846680">
   <line stroke-width="1.728" y1="12.96" x1="102.387" y2="18.5593" stroke-linecap="round" x2="93.7781" stroke="black"/>
  </g>
  <g partID="854846660">
   <line stroke-width="1.728" y1="12.96" x1="168.051" y2="12.96" stroke-linecap="round" x2="102.387" stroke="black"/>
  </g>
  <g partID="854846580">
   <line stroke-width="1.728" y1="17.501" x1="169.921" y2="12.96" stroke-linecap="round" x2="168.051" stroke="black"/>
  </g>
  <g partID="854846540">
   <line stroke-width="1.728" y1="28.3138" x1="153.852" y2="27.2245" stroke-linecap="round" x2="161.285" stroke="black"/>
  </g>
  <g partID="854847500">
   <line stroke-width="1.728" y1="30.6887" x1="180.584" y2="33.308" stroke-linecap="round" x2="173.048" stroke="black"/>
  </g>
  <g partID="854847120">
   <line stroke-width="1.728" y1="25.056" x1="173.235" y2="25.4598" stroke-linecap="round" x2="172.701" stroke="black"/>
  </g>
  <g partID="854847080">
   <line stroke-width="1.728" y1="10.6989" x1="181.211" y2="25.056" stroke-linecap="round" x2="173.235" stroke="black"/>
  </g>
  <g partID="854848020">
   <line stroke-width="1.728" y1="49.248" x1="112.755" y2="55.3863" stroke-linecap="round" x2="161.279" stroke="black"/>
  </g>
  <g partID="854847980">
   <line stroke-width="1.728" y1="48.1313" x1="110.522" y2="49.248" stroke-linecap="round" x2="112.755" stroke="black"/>
  </g>
  <g partID="854848400">
   <line stroke-width="1.728" y1="64.8" x1="171.507" y2="61.344" stroke-linecap="round" x2="86.8352" stroke="black"/>
  </g>
  <g partID="854848360">
   <line stroke-width="1.728" y1="61.344" x1="176.691" y2="64.8" stroke-linecap="round" x2="171.507" stroke="black"/>
  </g>
  <g partID="854848340">
   <line stroke-width="1.728" y1="50.976" x1="176.691" y2="61.344" stroke-linecap="round" x2="176.691" stroke="black"/>
  </g>
  <g partID="854848300">
   <line stroke-width="1.728" y1="49.4045" x1="172.991" y2="50.976" stroke-linecap="round" x2="176.691" stroke="black"/>
  </g>
  <g partID="854848520">
   <line stroke-width="1.728" y1="52.704" x1="86.8352" y2="49.7784" stroke-linecap="round" x2="90.4499" stroke="black"/>
  </g>
  <g partID="854848500">
   <line stroke-width="1.728" y1="61.344" x1="86.8352" y2="52.704" stroke-linecap="round" x2="86.8352" stroke="black"/>
  </g>
  <g partID="854848600">
   <line stroke-width="1.728" y1="42.8518" x1="13.9149" y2="61.344" stroke-linecap="round" x2="31.5392" stroke="black"/>
  </g>
  <g partID="854848740">
   <line stroke-width="1.728" y1="61.344" x1="31.5392" y2="52.704" stroke-linecap="round" x2="86.8352" stroke="black"/>
  </g>
  <g partID="854848980">
   <line stroke-width="1.728" y1="14.688" x1="86.8352" y2="7.776" stroke-linecap="round" x2="97.2032" stroke="black"/>
  </g>
  <g partID="854848960">
   <line stroke-width="1.728" y1="37.152" x1="86.8352" y2="14.688" stroke-linecap="round" x2="86.8352" stroke="black"/>
  </g>
  <g partID="854848880">
   <line stroke-width="1.728" y1="40.0035" x1="90.4362" y2="37.152" stroke-linecap="round" x2="86.8352" stroke="black"/>
  </g>
  <g partID="854849160">
   <line stroke-width="1.728" y1="37.152" x1="185.331" y2="40.6366" stroke-linecap="round" x2="173.088" stroke="black"/>
  </g>
  <g partID="854849140">
   <line stroke-width="1.728" y1="6.048" x1="185.331" y2="37.152" stroke-linecap="round" x2="185.331" stroke="black"/>
  </g>
  <g partID="854849080">
   <line stroke-width="1.728" y1="7.776" x1="97.2032" y2="6.048" stroke-linecap="round" x2="185.331" stroke="black"/>
  </g>
 </g>
</svg>
