<?xml version='1.0' encoding='UTF-8' standalone='no'?>
<!-- Created with Fritzing (http://www.fritzing.org/) -->
<svg xmlns="http://www.w3.org/2000/svg" y="0in" baseProfile="tiny" width="2.62666in" version="1.2" xmlns:svg="http://www.w3.org/2000/svg" x="0in"  height="1.11618in" viewBox="0 0 189.119 80.365">
 <g partID="854590560">
  <g id="board" >
   <rect y="0.288" width="188.543" id="boardoutline" stroke-width="0.5" fill-opacity="0.5" x="0.288"  stroke="black" height="79.789" fill="none"/>
  </g>
 </g>
 <g partID="854846060">
  <g transform="translate(108.01,13.3984)">
   <g id="copper0" >
    <circle cy="3.01732" cx="3.01732" id="connector0pin" stroke-width="0.850392"  r="0.992124" stroke="black" fill="none"/>
   </g>
  </g>
 </g>
 <g partID="854846520">
  <g transform="translate(149.482,25.4944)">
   <g id="copper0" >
    <circle cy="3.01732" cx="3.01732" id="connector0pin" stroke-width="0.850392"  r="0.992124" stroke="black" fill="none"/>
   </g>
  </g>
 </g>
 <g partID="854847060">
  <g transform="translate(178.858,6.4864)">
   <g id="copper0" >
    <circle cy="3.01732" cx="3.01732" id="connector0pin" stroke-width="0.850392"  r="0.992124" stroke="black" fill="none"/>
   </g>
  </g>
 </g>
 <g partID="854847480">
  <g transform="translate(178.858,27.2224)">
   <g id="copper0" >
    <circle cy="3.01732" cx="3.01732" id="connector0pin" stroke-width="0.850392"  r="0.992124" stroke="black" fill="none"/>
   </g>
  </g>
 </g>
 <g partID="854847960">
  <g transform="translate(106.282,44.5024)">
   <g id="copper0" >
    <circle cy="3.01732" cx="3.01732" id="connector0pin" stroke-width="0.850392"  r="0.992124" stroke="black" fill="none"/>
   </g>
  </g>
 </g>
 <g partID="854933520">
  <g transform="translate(114.284,63.9472)">
   <g id="copper0" >
    <circle cy="6.13543" cx="6.13543" id="nonconn0" stroke-width="0"  r="4.53543" stroke="black" fill="black"/>
   </g>
  </g>
 </g>
 <g partID="854933500">
  <g transform="translate(6.284,6.3472)">
   <g id="copper0" >
    <circle cy="6.13543" cx="6.13543" id="nonconn0" stroke-width="0"  r="4.53543" stroke="black" fill="black"/>
   </g>
  </g>
 </g>
 <g partID="854933480">
  <g transform="translate(6.284,56.7472)">
   <g id="copper0" >
    <circle cy="6.13543" cx="6.13543" id="nonconn0" stroke-width="0"  r="4.53543" stroke="black" fill="black"/>
   </g>
  </g>
 </g>
 <g partID="854564080">
  <g transform="translate(7.3792,29.0424)">
   <g id="copper0" >
    <rect y="2.952" width="4.176" id="square" stroke-width="1.44" x="2.952"  height="4.176" stroke="black" fill="none"/>
    <circle cy="5.04" cx="5.04" id="connector0pin" stroke-width="1.44"  r="2.088" stroke="black" fill="none"/>
    <circle cy="12.24" cx="5.04" id="connector1pin" stroke-width="1.44"  r="2.088" stroke="black" fill="none"/>
   </g>
  </g>
 </g>
 <g partID="854635260">
  <g transform="translate(179.61,69.9096)">
   <g transform="matrix(-1,0,0,-1,0,0)">
    <g id="copper0" >
     <g id="copper1" >
      <rect y="11.9481" width="4.55811" id="square" stroke-width="1.44" x="6.51215"  r="285" height="4.55811" stroke="black" fill="none"/>
      <circle cy="14.2272" id="connector11pin" cx="15.9912" stroke-width="1.44"  r="2.27905" stroke="black" fill="none"/>
      <circle cy="21.4272" id="connector10pin" cx="15.9912" stroke-width="1.44"  r="2.27905" stroke="black" fill="none"/>
      <circle cy="28.6272" id="connector9pin" cx="15.9912" stroke-width="1.44"  r="2.27905" stroke="black" fill="none"/>
      <circle cy="35.8272" id="connector8pin" cx="15.9912" stroke-width="1.44"  r="2.27905" stroke="black" fill="none"/>
      <circle cy="43.0272" id="connector7pin" cx="15.9912" stroke-width="1.44"  r="2.27905" stroke="black" fill="none"/>
      <circle cy="50.2272" id="connector6pin" cx="15.9912" stroke-width="1.44"  r="2.27905" stroke="black" fill="none"/>
      <circle cy="14.2272" id="connector0pin" cx="8.7912" stroke-width="1.44"  r="2.27905" stroke="black" fill="none"/>
      <circle cy="21.4272" id="connector1pin" cx="8.7912" stroke-width="1.44"  r="2.27905" stroke="black" fill="none"/>
      <circle cy="28.6272" id="connector2pin" cx="8.7912" stroke-width="1.44"  r="2.27905" stroke="black" fill="none"/>
      <circle cy="35.8272" id="connector3pin" cx="8.7912" stroke-width="1.44"  r="2.27905" stroke="black" fill="none"/>
      <circle cy="43.0272" id="connector4pin" cx="8.7912" stroke-width="1.44"  r="2.27905" stroke="black" fill="none"/>
      <circle cy="50.2272" id="connector5pin" cx="8.7912" stroke-width="1.44"  r="2.27905" stroke="black" fill="none"/>
     </g>
    </g>
   </g>
  </g>
 </g>
 <g partID="854590990">
  <g transform="translate(111.628,12.6552)">
   <g id="copper0" >
    <g id="copper1" >
     <rect y="11.9481" width="4.55811" id="square" stroke-width="1.44" x="6.51215"  r="285" height="4.55811" stroke="black" fill="none"/>
     <circle cy="14.2272" id="connector5pin" cx="15.9912" stroke-width="1.44"  r="2.27906" stroke="black" fill="none"/>
     <circle cy="21.4272" id="connector4pin" cx="15.9912" stroke-width="1.44"  r="2.27906" stroke="black" fill="none"/>
     <circle cy="28.6272" id="connector3pin" cx="15.9912" stroke-width="1.44"  r="2.27906" stroke="black" fill="none"/>
     <circle cy="14.2272" id="connector0pin" cx="8.7912" stroke-width="1.44"  r="2.27906" stroke="black" fill="none"/>
     <circle cy="21.4272" id="connector1pin" cx="8.7912" stroke-width="1.44"  r="2.27906" stroke="black" fill="none"/>
     <circle cy="28.6272" id="connector2pin" cx="8.7912" stroke-width="1.44"  r="2.27906" stroke="black" fill="none"/>
    </g>
   </g>
  </g>
 </g>
 <g partID="854478960">
  <g transform="translate(96.3352,74.7984)">
   <g transform="matrix(-1,0,0,-1,0,0)">
    <g gorn="0.4" id="copper0">
     <g gorn="0.4.0" id="copper1">
      <g transform="matrix(1, 0, 0, 1, 0, 42.42)">
       <g>
        <g>
         <g gorn="0.4.0.0.0.0" id="keepout"/>
        </g>
       </g>
      </g>
      <g transform="matrix(1, 0, 0, 1, 0, 42.42)">
       <g>
        <g>
         <g gorn="0.4.0.1.0.0" id="soldermask"/>
        </g>
       </g>
      </g>
      <g transform="matrix(1, 0, 0, 1, 0, 42.42)">
       <g>
        <g>
         <g gorn="0.4.0.2.0.0" id="outline"/>
        </g>
       </g>
      </g>
      <circle gorn="0.4.0.3" cy="55.116" id="connector6pin" cx="4.284" stroke-width="1.44" r="1.98" stroke="black" fill="none"/>
      <circle gorn="0.4.0.4" cy="47.916" id="connector5pin" cx="4.284" stroke-width="1.44" r="1.98" stroke="black" fill="none"/>
      <circle gorn="0.4.0.5" cy="40.716" id="connector4pin" cx="4.284" stroke-width="1.44" r="1.98" stroke="black" fill="none"/>
      <circle gorn="0.4.0.6" cy="33.516" id="connector3pin" cx="4.284" stroke-width="1.44" r="1.98" stroke="black" fill="none"/>
      <circle gorn="0.4.0.7" cy="26.316" id="connector2pin" cx="4.284" stroke-width="1.44" r="1.98" stroke="black" fill="none"/>
      <circle gorn="0.4.0.8" cy="19.116" id="connector1pin" cx="4.284" stroke-width="1.44" r="1.98" stroke="black" fill="none"/>
      <circle gorn="0.4.0.9" cy="47.916" id="connector11pin" cx="61.884" stroke-width="1.44" r="1.98" stroke="black" fill="none"/>
      <circle gorn="0.4.0.10" cy="40.716" id="connector10pin" cx="61.884" stroke-width="1.44" r="1.98" stroke="black" fill="none"/>
      <circle gorn="0.4.0.11" cy="33.516" id="connector9pin" cx="61.884" stroke-width="1.44" r="1.98" stroke="black" fill="none"/>
      <circle gorn="0.4.0.12" cy="26.316" id="connector8pin" cx="61.884" stroke-width="1.44" r="1.98" stroke="black" fill="none"/>
      <circle gorn="0.4.0.13" cy="19.116" id="connector7pin" cx="61.884" stroke-width="1.44" r="1.98" stroke="black" fill="none"/>
     </g>
    </g>
   </g>
  </g>
 </g>
 <g partID="854845160">
  <line stroke-width="1.728" y1="36.3737" x1="163.058" y2="37.152" stroke-linecap="round" x2="162.867" stroke="black"/>
 </g>
 <g partID="854845180">
  <line stroke-width="1.728" y1="37.152" x1="162.867" y2="37.152" stroke-linecap="round" x2="131.763" stroke="black"/>
 </g>
 <g partID="854845200">
  <line stroke-width="1.728" y1="37.152" x1="131.763" y2="39.617" stroke-linecap="round" x2="129.29" stroke="black"/>
 </g>
 <g partID="854845380">
  <line stroke-width="1.728" y1="28.5631" x1="118.764" y2="54.2148" stroke-linecap="round" x2="93.4968" stroke="black"/>
 </g>
 <g partID="854846080">
  <line stroke-width="1.728" y1="16.416" x1="112.394" y2="16.416" stroke-linecap="round" x2="157.683" stroke="black"/>
 </g>
 <g partID="854846100">
  <line stroke-width="1.728" y1="16.416" x1="157.683" y2="33.696" stroke-linecap="round" x2="157.683" stroke="black"/>
 </g>
 <g partID="854846120">
  <line stroke-width="1.728" y1="33.696" x1="157.683" y2="27.4038" stroke-linecap="round" x2="129.92" stroke="black"/>
 </g>
 <g partID="854846260">
  <line stroke-width="1.728" y1="42.9537" x1="122.084" y2="61.344" stroke-linecap="round" x2="140.403" stroke="black"/>
 </g>
 <g partID="854846340">
  <line stroke-width="1.728" y1="61.344" x1="140.403" y2="61.344" stroke-linecap="round" x2="176.691" stroke="black"/>
 </g>
 <g partID="854846360">
  <line stroke-width="1.728" y1="61.344" x1="176.691" y2="12.96" stroke-linecap="round" x2="176.691" stroke="black"/>
 </g>
 <g partID="854846380">
  <line stroke-width="1.728" y1="12.96" x1="176.691" y2="12.96" stroke-linecap="round" x2="107.571" stroke="black"/>
 </g>
 <g partID="854846400">
  <line stroke-width="1.728" y1="12.96" x1="107.571" y2="21.6" stroke-linecap="round" x2="107.571" stroke="black"/>
 </g>
 <g partID="854846420">
  <line stroke-width="1.728" y1="21.6" x1="107.571" y2="21.6" stroke-linecap="round" x2="154.227" stroke="black"/>
 </g>
 <g partID="854846440">
  <line stroke-width="1.728" y1="21.6" x1="154.227" y2="27.1859" stroke-linecap="round" x2="152.831" stroke="black"/>
 </g>
 <g partID="854846740">
  <line stroke-width="1.728" y1="26.574" x1="94.088" y2="25.056" stroke-linecap="round" x2="104.115" stroke="black"/>
 </g>
 <g partID="854847020">
  <line stroke-width="1.728" y1="25.056" x1="104.115" y2="9.504" stroke-linecap="round" x2="104.115" stroke="black"/>
 </g>
 <g partID="854847040">
  <line stroke-width="1.728" y1="9.504" x1="104.115" y2="9.504" stroke-linecap="round" x2="180.508" stroke="black"/>
 </g>
 <g partID="854847140">
  <line stroke-width="1.728" y1="32.8606" x1="90.3926" y2="30.24" stroke-linecap="round" x2="86.8352" stroke="black"/>
 </g>
 <g partID="854847220">
  <line stroke-width="1.728" y1="30.24" x1="86.8352" y2="14.688" stroke-linecap="round" x2="86.8352" stroke="black"/>
 </g>
 <g partID="854847240">
  <line stroke-width="1.728" y1="14.688" x1="86.8352" y2="6.048" stroke-linecap="round" x2="100.659" stroke="black"/>
 </g>
 <g partID="854847340">
  <line stroke-width="1.728" y1="6.048" x1="100.659" y2="6.048" stroke-linecap="round" x2="185.331" stroke="black"/>
 </g>
 <g partID="854847360">
  <line stroke-width="1.728" y1="6.048" x1="185.331" y2="21.6" stroke-linecap="round" x2="185.331" stroke="black"/>
 </g>
 <g partID="854847380">
  <line stroke-width="1.728" y1="21.6" x1="185.331" y2="28.9708" stroke-linecap="round" x2="182.383" stroke="black"/>
 </g>
 <g partID="854847560">
  <line stroke-width="1.728" y1="35.8574" x1="13.6641" y2="61.344" stroke-linecap="round" x2="31.5392" stroke="black"/>
 </g>
 <g partID="854847740">
  <line stroke-width="1.728" y1="61.344" x1="31.5392" y2="61.344" stroke-linecap="round" x2="97.2032" stroke="black"/>
 </g>
 <g partID="854847760">
  <line stroke-width="1.728" y1="61.344" x1="97.2032" y2="48.5487" stroke-linecap="round" x2="108.399" stroke="black"/>
 </g>
</svg>
