G04 MADE WITH FRITZING*
G04 WWW.FRITZING.ORG*
G04 DOUBLE SIDED*
G04 HOLES PLATED*
G04 CONTOUR ON CENTER OF CONTOUR VECTOR*
%ASAXBY*%
%FSLAX23Y23*%
%MOIN*%
%OFA0B0*%
%SFA1.0B1.0*%
%ADD10C,0.088000*%
%ADD11C,0.093307*%
%ADD12C,0.085000*%
%ADD13C,0.148425*%
%ADD14C,0.076000*%
%ADD15C,0.062139*%
%ADD16C,0.135984*%
%ADD17C,0.049370*%
%ADD18R,0.088000X0.088000*%
%ADD19R,0.093307X0.093307*%
%LNMASK1*%
G90*
G70*
G54D10*
X101Y193D03*
X101Y94D03*
G54D11*
X1711Y1494D03*
X1711Y1594D03*
X1711Y1694D03*
X1811Y1494D03*
X1811Y1594D03*
X1811Y1694D03*
X2801Y1794D03*
X2801Y1694D03*
X2801Y1594D03*
X2801Y1494D03*
X2801Y1394D03*
X2801Y1294D03*
X2701Y1794D03*
X2701Y1694D03*
X2701Y1594D03*
X2701Y1494D03*
X2701Y1394D03*
X2701Y1294D03*
G54D12*
X901Y1994D03*
X901Y1894D03*
X901Y1794D03*
X901Y1694D03*
X901Y1594D03*
X901Y1494D03*
X101Y1894D03*
X101Y1794D03*
X101Y1694D03*
X101Y1594D03*
X101Y1494D03*
G54D13*
X904Y925D03*
G54D14*
X2554Y175D03*
X2454Y175D03*
X2354Y175D03*
X2254Y175D03*
X2154Y175D03*
X2054Y175D03*
X1954Y175D03*
X1854Y175D03*
X1754Y175D03*
X1654Y175D03*
X1554Y175D03*
X1454Y175D03*
X1354Y175D03*
X1254Y175D03*
X1154Y175D03*
X1054Y175D03*
X1454Y975D03*
X1554Y975D03*
X1654Y975D03*
X1754Y975D03*
X1854Y975D03*
X1954Y975D03*
X2054Y975D03*
X2154Y975D03*
X2254Y975D03*
X2354Y975D03*
X2454Y975D03*
X2554Y975D03*
G54D13*
X904Y225D03*
G54D12*
X701Y193D03*
X301Y193D03*
X701Y94D03*
X301Y94D03*
G54D10*
X3254Y175D03*
X3154Y175D03*
X3054Y175D03*
G54D15*
X201Y1151D03*
X201Y1072D03*
X201Y993D03*
G54D12*
X301Y293D03*
X701Y293D03*
G54D16*
X3301Y1994D03*
X1301Y1594D03*
X601Y894D03*
X3101Y494D03*
G54D17*
X2244Y1279D03*
X1788Y535D03*
X1380Y1159D03*
X1572Y1543D03*
X2100Y1831D03*
X1932Y1927D03*
X2340Y655D03*
X2820Y1999D03*
X2940Y1903D03*
X1740Y319D03*
X1500Y1591D03*
X1644Y391D03*
X972Y1183D03*
X2028Y1447D03*
X1308Y1375D03*
X3276Y751D03*
X2508Y1855D03*
X2412Y1639D03*
X3276Y583D03*
X2388Y1831D03*
X2316Y1591D03*
X1116Y1351D03*
X1716Y439D03*
X2316Y1351D03*
X756Y415D03*
X636Y367D03*
X2508Y1783D03*
G54D18*
X101Y193D03*
G54D19*
X1811Y1494D03*
X2701Y1794D03*
G54D18*
X3254Y175D03*
G04 End of Mask1*
M02*