; NON-PLATED HOLES START AT T1
; THROUGH (PLATED) HOLES START AT T100
M48
INCH
T1C0.125984
T100C0.039370
T101C0.038000
T102C0.035000
T103C0.043307
T104C0.015748
T105C0.098425
T106C0.027139
%
T1
X006006Y008935
X031006Y004935
X013006Y015935
X033006Y019935
T100
X023538Y001747
X025538Y009747
X012538Y001747
X022538Y001747
X022538Y009747
X025538Y001747
X016538Y009747
X019538Y001747
X011538Y001747
X017538Y001747
X019538Y009747
X024538Y001747
X015538Y009747
X014538Y009747
X014538Y001747
X017538Y009747
X020538Y001747
X021538Y009747
X020538Y009747
X010538Y001747
X021538Y001747
X018538Y009747
X024538Y009747
X023538Y009747
X016538Y001747
X015538Y001747
X018538Y001747
X013538Y001747
T101
X001006Y000935
X030538Y001747
X001006Y001934
X031538Y001747
X032538Y001747
T102
X001006Y016935
X001006Y017935
X007006Y001934
X007006Y000935
X007006Y002934
X009006Y018935
X009006Y015935
X001006Y018935
X003006Y000935
X003006Y001934
X009006Y019935
X009006Y016935
X009006Y017935
X001006Y014935
X009006Y014935
X003006Y002934
X001006Y015935
T103
X028006Y017935
X028006Y016935
X028006Y012935
X017106Y015935
X018106Y014935
X027006Y012935
X017106Y014935
X027006Y013935
X028006Y013935
X027006Y014935
X028006Y014935
X018106Y016935
X027006Y015935
X017106Y016935
X018106Y015935
X027006Y017935
X028006Y015935
X027006Y016935
T104
X028200Y019988
X016440Y003908
X032760Y005828
X023160Y015908
X025080Y017828
X007560Y004148
X013800Y011588
X017400Y003188
X013080Y013748
X023400Y006548
X017880Y005348
X006360Y003668
X015000Y015908
X024120Y016388
X032760Y007508
X023160Y013508
X017160Y004388
X009720Y011828
X019320Y019268
X023880Y018308
X025080Y018548
X022440Y012788
X029400Y019028
X011160Y013508
X021000Y018308
X020280Y014468
X015720Y015428
T105
X009038Y009247
X009038Y002247
T106
X002006Y009934
X002006Y011508
X002006Y010721
T00
M30
