G04 MADE WITH FRITZING*
G04 WWW.FRITZING.ORG*
G04 DOUBLE SIDED*
G04 HOLES PLATED*
G04 CONTOUR ON CENTER OF CONTOUR VECTOR*
%ASAXBY*%
%FSLAX23Y23*%
%MOIN*%
%OFA0B0*%
%SFA1.0B1.0*%
%ADD10C,0.078000*%
%ADD11C,0.083307*%
%ADD12C,0.075000*%
%ADD13C,0.138425*%
%ADD14C,0.066000*%
%ADD15C,0.052139*%
%ADD16C,0.039370*%
%ADD17R,0.078000X0.078000*%
%ADD18R,0.083307X0.083307*%
%ADD19C,0.024000*%
%LNCOPPER1*%
G90*
G70*
G54D10*
X101Y193D03*
X101Y94D03*
G54D11*
X1711Y1494D03*
X1711Y1594D03*
X1711Y1694D03*
X1811Y1494D03*
X1811Y1594D03*
X1811Y1694D03*
X2801Y1794D03*
X2801Y1694D03*
X2801Y1594D03*
X2801Y1494D03*
X2801Y1394D03*
X2801Y1294D03*
X2701Y1794D03*
X2701Y1694D03*
X2701Y1594D03*
X2701Y1494D03*
X2701Y1394D03*
X2701Y1294D03*
G54D12*
X901Y1994D03*
X901Y1894D03*
X901Y1794D03*
X901Y1694D03*
X901Y1594D03*
X901Y1494D03*
X101Y1894D03*
X101Y1794D03*
X101Y1694D03*
X101Y1594D03*
X101Y1494D03*
G54D13*
X904Y925D03*
G54D14*
X2554Y175D03*
X2454Y175D03*
X2354Y175D03*
X2254Y175D03*
X2154Y175D03*
X2054Y175D03*
X1954Y175D03*
X1854Y175D03*
X1754Y175D03*
X1654Y175D03*
X1554Y175D03*
X1454Y175D03*
X1354Y175D03*
X1254Y175D03*
X1154Y175D03*
X1054Y175D03*
X1454Y975D03*
X1554Y975D03*
X1654Y975D03*
X1754Y975D03*
X1854Y975D03*
X1954Y975D03*
X2054Y975D03*
X2154Y975D03*
X2254Y975D03*
X2354Y975D03*
X2454Y975D03*
X2554Y975D03*
G54D13*
X904Y225D03*
G54D12*
X701Y193D03*
X301Y193D03*
X701Y94D03*
X301Y94D03*
G54D10*
X3254Y175D03*
X3154Y175D03*
X3054Y175D03*
G54D15*
X201Y1151D03*
X201Y1072D03*
X201Y993D03*
G54D12*
X301Y293D03*
X701Y293D03*
G54D16*
X2244Y1279D03*
X1788Y535D03*
X1380Y1159D03*
X1572Y1543D03*
X2100Y1831D03*
X1932Y1927D03*
X2340Y655D03*
X2820Y1999D03*
X2940Y1903D03*
X1740Y319D03*
X1500Y1591D03*
X1644Y391D03*
X972Y1183D03*
X2028Y1447D03*
X1308Y1375D03*
X3276Y751D03*
X2508Y1855D03*
X2412Y1639D03*
X3276Y583D03*
X2388Y1831D03*
X2316Y1591D03*
X1116Y1351D03*
X1716Y439D03*
X2316Y1351D03*
X756Y415D03*
X636Y367D03*
X2508Y1783D03*
G54D17*
X101Y193D03*
G54D18*
X1811Y1494D03*
X2701Y1794D03*
G54D17*
X3254Y175D03*
G54D19*
X2797Y1261D02*
X2796Y1255D01*
X2796Y1255D02*
X2268Y1015D01*
X2268Y1015D02*
X2264Y1004D01*
D02*
X1436Y149D02*
X1404Y103D01*
X1404Y103D02*
X729Y94D01*
D02*
X1733Y197D02*
X1644Y295D01*
X1644Y295D02*
X972Y319D01*
X972Y319D02*
X804Y319D01*
X804Y319D02*
X728Y300D01*
D02*
X2827Y1513D02*
X2868Y1543D01*
X2868Y1543D02*
X2868Y1855D01*
X2868Y1855D02*
X2628Y1855D01*
X2628Y1855D02*
X2628Y1327D01*
X2628Y1327D02*
X2052Y1015D01*
X2052Y1015D02*
X2052Y1005D01*
D02*
X2921Y1903D02*
X2580Y1903D01*
X2580Y1903D02*
X2580Y1471D01*
X2580Y1471D02*
X2004Y1039D01*
X2004Y1039D02*
X1860Y1039D01*
X1860Y1039D02*
X1857Y1005D01*
D02*
X1817Y1726D02*
X1836Y1831D01*
X1836Y1831D02*
X1980Y1831D01*
X1980Y1831D02*
X2100Y1975D01*
X2100Y1975D02*
X2820Y1975D01*
X2820Y1975D02*
X2820Y1980D01*
D02*
X128Y80D02*
X228Y31D01*
X228Y31D02*
X636Y55D01*
X636Y55D02*
X636Y348D01*
D02*
X874Y1584D02*
X828Y1567D01*
X828Y1567D02*
X757Y434D01*
D02*
X201Y969D02*
X228Y223D01*
X228Y223D02*
X274Y204D01*
D02*
X928Y1503D02*
X972Y1519D01*
X972Y1519D02*
X972Y2047D01*
X972Y2047D02*
X780Y2071D01*
X780Y2071D02*
X228Y1015D01*
X228Y1015D02*
X220Y1009D01*
D02*
X1793Y1466D02*
X1764Y1423D01*
X1764Y1423D02*
X929Y1491D01*
D02*
X2511Y1764D02*
X2532Y1615D01*
X2532Y1615D02*
X2436Y1519D01*
X2436Y1519D02*
X1843Y1495D01*
D02*
X1681Y1680D02*
X1644Y1663D01*
X1644Y1663D02*
X1644Y1543D01*
X1644Y1543D02*
X1591Y1543D01*
D02*
X1382Y1140D02*
X1404Y919D01*
X1404Y919D02*
X2532Y919D01*
X2532Y919D02*
X2543Y946D01*
D02*
X1753Y333D02*
X2172Y799D01*
X2172Y799D02*
X2364Y871D01*
X2364Y871D02*
X2580Y871D01*
X2580Y871D02*
X2640Y1063D01*
X2640Y1063D02*
X2844Y1231D01*
X2844Y1231D02*
X2868Y1231D01*
X2868Y1231D02*
X2868Y1351D01*
X2868Y1351D02*
X2828Y1376D01*
D02*
X1771Y544D02*
X1332Y775D01*
X1332Y775D02*
X1332Y1207D01*
X1332Y1207D02*
X2124Y1207D01*
X2124Y1207D02*
X2228Y1269D01*
D02*
X2431Y1639D02*
X2460Y1639D01*
X2460Y1639D02*
X2460Y1831D01*
X2460Y1831D02*
X2491Y1846D01*
D02*
X3259Y743D02*
X2172Y223D01*
X2172Y223D02*
X2165Y204D01*
D02*
X1327Y1375D02*
X1836Y1375D01*
X1836Y1375D02*
X2010Y1440D01*
D02*
X2321Y1609D02*
X2383Y1813D01*
D02*
X3257Y583D02*
X3204Y583D01*
X3204Y583D02*
X3204Y463D01*
X3204Y463D02*
X3132Y391D01*
X3132Y391D02*
X2628Y391D01*
X2628Y391D02*
X2604Y103D01*
X2604Y103D02*
X2076Y103D01*
X2076Y103D02*
X2063Y145D01*
D02*
X2297Y1349D02*
X1284Y1255D01*
X1284Y1255D02*
X1284Y703D01*
X1284Y703D02*
X1700Y449D01*
D02*
X1132Y1341D02*
X1284Y1255D01*
D02*
X2356Y664D02*
X2628Y823D01*
X2628Y823D02*
X2916Y1183D01*
X2916Y1183D02*
X2916Y1855D01*
X2916Y1855D02*
X2988Y1855D01*
X2988Y1855D02*
X2988Y1975D01*
X2988Y1975D02*
X2868Y1975D01*
X2868Y1975D02*
X2868Y2047D01*
X2868Y2047D02*
X2772Y2047D01*
X2772Y2047D02*
X2772Y2023D01*
X2772Y2023D02*
X2052Y2023D01*
X2052Y2023D02*
X1980Y1927D01*
X1980Y1927D02*
X1951Y1927D01*
D02*
X2085Y1819D02*
X1836Y1614D01*
D02*
X3260Y204D02*
X3324Y535D01*
X3324Y535D02*
X3324Y823D01*
X3324Y823D02*
X3036Y2047D01*
X3036Y2047D02*
X2916Y2095D01*
X2916Y2095D02*
X2004Y2071D01*
X2004Y2071D02*
X1514Y1604D01*
D02*
X980Y1166D02*
X1248Y631D01*
X1248Y631D02*
X1628Y401D01*
G04 End of Copper1*
M02*